<?xml version="1.0" standalone="no"?>
<!DOCTYPE svg PUBLIC "-//W3C//DTD SVG 1.1//EN" "http://www.w3.org/Graphics/SVG/1.1/DTD/svg11.dtd" >
<svg xmlns="http://www.w3.org/2000/svg" xmlns:xlink="http://www.w3.org/1999/xlink" version="1.1">
<metadata>
Created by FontForge 20170731 at Sat Feb  1 21:20:40 2014
 By Aleksey,,,
Copyright (c) 2009 by Letterhead Studio. All rights reserved.
</metadata>
<defs>
<font id="21CentCondensed" horiz-adv-x="505" >
  <font-face 
    font-family="21 Cent Condensed"
    font-weight="400"
    font-stretch="condensed"
    units-per-em="1000"
    panose-1="2 0 5 3 0 0 0 2 0 3"
    ascent="786"
    descent="-214"
    x-height="458"
    cap-height="722"
    bbox="-104 -301 949 977"
    underline-thickness="50"
    underline-position="-200"
    unicode-range="U+0020-FB02"
  />
<missing-glyph horiz-adv-x="142" 
 />
    <glyph glyph-name="fi" unicode="fi" horiz-adv-x="511" 
d="M327 68v316q0 26 -8 33t-37 7h-106v-356q0 -22 6 -31t23 -9h30v-28h-213v28h34q18 0 23.5 12t5.5 47v337h-62v34h62v55q0 87 35 153q19 35 54.5 55t82.5 21q5 1 25 1q54 -1 99 -34q44 -32 44 -101q0 -25 -14 -40t-40 -15t-41 26q-12 25 -4 45q3 16 12 20q-18 72 -73 72
q-89 0 -89 -186v-72h84l158 11v-401q0 -23 6 -31.5t23 -8.5h42v-28h-214v28h22q18 0 24 9t6 31z" />
    <glyph glyph-name="fl" unicode="fl" horiz-adv-x="509" 
d="M489 28v-28h-214v28h22q18 0 24 9t6 31v588q0 25 -6 32.5t-28 7.5h-30q-87 0 -87 -149v-89h84v-34h-84v-356q0 -22 6 -31t23 -9h36v-28h-219v28h34q17 0 23 9t6 31v356h-62v34h62v55q0 100 42 153t136 59l155 11v-668q0 -23 6 -31.5t23 -8.5h42z" />
    <glyph glyph-name=".notdef" horiz-adv-x="142" 
 />
    <glyph glyph-name=".null" horiz-adv-x="0" 
 />
    <glyph glyph-name="nonmarkingreturn" horiz-adv-x="333" 
 />
    <glyph glyph-name="space" unicode=" " horiz-adv-x="224" 
 />
    <glyph glyph-name="exclam" unicode="!" horiz-adv-x="209" 
d="M116 229h-26q-6 91 -20 219q-14 146 -16 230q0 58 49 58q22 0 35.5 -15.5t13.5 -42.5q0 -83 -16 -231q-14 -126 -20 -218zM67 6q-14 17 -14 41t14 41q15 17 36 17t35 -17q15 -17 15 -41t-15 -41q-14 -16 -35 -16t-36 16z" />
    <glyph glyph-name="quotedbl" unicode="&#x22;" horiz-adv-x="299" 
d="M198 596l-26 -42l-15 6q4 18 9 55q12 70 22 97q9 24 36 24q28 -1 28 -31q0 -19 -26 -65q-15 -25 -28 -44zM89 596l-26 -42l-15 6q4 18 9 55q12 70 22 97q9 24 36 24q28 -1 28 -31q0 -19 -26 -65q-15 -25 -28 -44z" />
    <glyph glyph-name="numbersign" unicode="#" horiz-adv-x="589" 
d="M339 285l40 165h-132l-40 -165h132zM528 239h-160l-59 -239h-42l59 239h-132l-59 -239h-41l59 239h-105v46h118l40 165h-145v46h158l60 240h41l-60 -240h132l60 240h41l-59 -240h107v-46h-121l-39 -165h147v-46z" />
    <glyph glyph-name="dollar" unicode="$" 
d="M43 -13l-15 283h26q13 -123 65 -185q51 -62 112 -69v297q-76 28 -125 69q-57 51 -57 148q0 95 48 149t134 56v70h37v-71q76 -10 123 -87l18 88h21l10 -263h-26q-14 106 -52.5 163.5t-93.5 67.5v-280q71 -24 110 -50q89 -55 89 -172q0 -99 -58 -154q-57 -54 -141 -60v-59
h-37v59q-89 8 -150 101l-17 -101h-21zM268 299v-283q51 3 81 38t30 98q0 102 -111 147zM231 438v268q-46 -2 -73.5 -35.5t-27.5 -94.5q0 -93 101 -138z" />
    <glyph glyph-name="percent" unicode="%" horiz-adv-x="610" 
d="M345 166q0 80 29 130.5t82 50.5q54 0 82 -52q29 -53 29 -129t-29 -129q-28 -51 -82 -51t-83 51q-28 52 -28 129zM456 325q-54 0 -54 -159t54 -159t54 159t-54 159zM43 510q0 78 28 128q28 52 83 52q54 0 82 -52q29 -52 29 -128q0 -80 -29 -130.5t-82 -50.5t-82 50.5
t-29 130.5zM154 351q54 0 54 159t-54 159q-55 0 -55 -159t55 -159zM527 677l-398 -677h-45l398 677h45z" />
    <glyph glyph-name="ampersand" unicode="&#x26;" horiz-adv-x="671" 
d="M618 180h26q-1 -87 -38.5 -140.5t-95.5 -53.5q-57 0 -114 73q-76 -72 -182 -72q-77 0 -129 49q-51 50 -51 141q0 80 49 135q43 47 109 87q-49 107 -49 175q0 75 46 121.5t125 46.5q62 0 99 -35t37 -101q0 -70 -50 -116q-44 -39 -108 -74q61 -118 150 -263q26 44 44 98
q21 58 21 95q0 35 -39 35h-53v28h213v-28h-27q-48 0 -65 -62q-33 -121 -75 -189q55 -82 92 -82q26 0 43.5 33t21.5 99zM260 21q53 0 111 61q-74 105 -164 289q-85 -69 -85 -158q0 -80 41 -136q42 -56 97 -56zM229 592q0 -53 45 -148q58 42 84.5 78t26.5 85q0 43 -19.5 75
t-47.5 32q-37 0 -63 -35.5t-26 -86.5z" />
    <glyph glyph-name="quotesingle" unicode="'" horiz-adv-x="191" 
d="M89 596l-26 -42l-15 6q4 18 9 55q12 70 22 97q9 24 36 24q28 -1 28 -31q0 -19 -26 -65q-15 -25 -28 -44z" />
    <glyph glyph-name="parenleft" unicode="(" horiz-adv-x="305" 
d="M131 347q0 -155 30 -257q30 -101 111 -194l-17 -24q-204 151 -204 475q0 323 204 475l17 -25q-81 -93 -111 -195q-30 -100 -30 -255z" />
    <glyph glyph-name="parenright" unicode=")" horiz-adv-x="305" 
d="M173 347q0 155 -30 255q-30 101 -110 195l16 25q204 -152 204 -475q0 -324 -204 -475l-16 24q80 94 110 194q30 102 30 257z" />
    <glyph glyph-name="asterisk" unicode="*" horiz-adv-x="394" 
d="M226 703q0 -13 -9 -59q-8 -50 -11 -97q40 18 74 44q35 26 50 26q10 0 17.5 -9t7.5 -23q0 -17 -14 -25q-12 -5 -55 -13q-45 -6 -75 -16q23 -40 48 -68q8 -9 17.5 -20t14 -16t9 -11.5t6 -10.5t1.5 -9q0 -10 -9.5 -20.5t-20.5 -10.5q-16 0 -27 23l-10 30q-10 42 -41 104
q-22 -44 -42 -104q-13 -53 -36 -53q-11 0 -20.5 10.5t-9.5 20.5q0 11 11 25q53 56 85 110q-30 10 -75 16q-43 7 -56 13.5t-13 24.5q0 14 7.5 23t17.5 9q15 0 49 -26q36 -27 75 -44q-3 52 -12 97q-8 50 -8 59q0 34 27 34t27 -34z" />
    <glyph glyph-name="plus" unicode="+" horiz-adv-x="462" 
d="M252 307v-196h-42v196h-154v45h154v197h42v-197h154v-45h-154z" />
    <glyph glyph-name="comma" unicode="," horiz-adv-x="203" 
d="M155 13q0 -49 -24.5 -90t-69.5 -65l-11 16q68 47 68 98q0 12 -3 24q-9 -3 -21 -3q-19 0 -32.5 15.5t-13.5 39.5t15 41t35 17q27 0 42 -27t15 -66z" />
    <glyph glyph-name="hyphen" unicode="-" horiz-adv-x="351" 
d="M299 290v-50h-248v50h248z" />
    <glyph glyph-name="period" unicode="." horiz-adv-x="197" 
d="M98 106q21 0 36 -17t15 -41t-15 -40.5t-36 -16.5q-20 0 -35 16.5t-15 40.5t15 41t35 17z" />
    <glyph glyph-name="slash" unicode="/" horiz-adv-x="285" 
d="M285 722l-226 -722h-59l225 722h60z" />
    <glyph glyph-name="zero" unicode="0" 
d="M365 361q0 346 -113 346q-112 0 -112 -346q0 -347 112 -347q113 0 113 347zM252 -14q-108 0 -163 105q-56 106 -56 270t56 270q55 105 163 105t163 -105q56 -106 56 -270t-56 -270q-55 -105 -163 -105z" />
    <glyph glyph-name="one" unicode="1" 
d="M280 736h22v-653q0 -33 7.5 -44t28.5 -11h84v-28h-339v28h83q21 0 29 11t8 44v485q0 29 -4.5 40.5t-15.5 11.5q-3 0 -16 -3l-74 -17v28q103 26 137 48q37 23 50 60z" />
    <glyph glyph-name="two" unicode="2" 
d="M88 559q12 17 36 17q22 0 36 -18t14 -44q0 -25 -16 -43t-38 -18q-24 0 -41 27.5t-17 62.5q0 95 57 144q57 51 135 51q74 0 124 -56q49 -55 49 -145q0 -77 -19 -130q-20 -53 -75 -120q-53 -64 -170 -166q-20 -17 -20 -28q0 -7 53 -7h168q30 0 38.5 20.5t26.5 128.5
q0 3 1 7t1 6h25l-14 -248h-391v28l190 254q89 119 89 266q0 72 -32 114.5t-79 42.5q-54 0 -93 -49q-38 -50 -38 -97z" />
    <glyph glyph-name="three" unicode="3" 
d="M445 188q0 -93 -58 -148q-59 -54 -145 -54q-31 0 -60 8.5t-58 27.5t-46.5 56.5t-17.5 89.5q0 41 33 57t58 -14q25 -29 11.5 -65.5t-47.5 -36.5q-13 0 -21 6q7 -45 47 -72q41 -26 82 -26q56 0 89.5 46.5t33.5 132.5q0 75 -26.5 114t-74.5 39q-7 0 -30 -3q-22 -3 -32 -3
q-17 0 -17 22q0 9 5.5 15t11.5 6q7 0 30 -3q22 -3 32 -3q37 0 63 50t26 127q0 72 -27 110t-73 38q-37 0 -77 -31q-41 -30 -48 -73q8 8 25 8q22 0 36.5 -18t14.5 -44q0 -25 -16 -43t-38 -18t-38 18.5t-16 43.5q0 94 54 140q54 48 125 48q78 0 126.5 -49.5t48.5 -130.5
q0 -68 -35.5 -120.5t-96.5 -67.5q72 -11 109 -57.5t37 -122.5z" />
    <glyph glyph-name="four" unicode="4" 
d="M349 736h21v-499h103v-51h-103v-103q0 -33 8 -44t29 -11h58v-28h-294v28h64q21 0 29 11t8 44v103h-247v51zM272 237v323l-210 -323h210z" />
    <glyph glyph-name="five" unicode="5" 
d="M446 238q0 -114 -59 -184q-59 -68 -145 -68q-29 0 -58.5 8.5t-59 27.5t-48 57t-18.5 89q0 26 16 44t37 18q22 0 38 -18t16 -44t-15 -42t-37 -16q-13 0 -21 6q11 -47 50 -73q41 -26 81 -26q55 0 89.5 58.5t34.5 156.5q0 90 -35 142.5t-87 52.5q-65 0 -103 -57
q0 -24 -7.5 -39t-17.5 -15q-22 0 -22 25q0 23 20 48l21 338q93 -25 201 -25q25 0 46.5 3.5t34.5 8t22 9t13.5 8t5.5 3.5q2 0 2 -3q0 -50 -59 -86t-113 -33q-64 0 -130 19l-14 -217q47 45 113 45q104 0 156 -64t52 -157z" />
    <glyph glyph-name="six" unicode="6" 
d="M459 234q0 -113 -60 -181q-58 -67 -145 -67q-208 0 -208 345q0 173 66 289t181 116q52 0 95 -34q44 -34 45 -96q0 -26 -15.5 -44.5t-38.5 -18.5q-22 0 -37.5 18t-15.5 43t12.5 39.5t32.5 14.5q14 0 22 -4q-11 27 -40.5 41.5t-59.5 14.5q-39 0 -69.5 -36t-48.5 -98
q-32 -122 -32 -257q16 59 53 94t86 35q87 0 132 -61t45 -153zM254 14q106 0 106 213q0 84 -27.5 135t-73.5 51q-47 0 -79 -60q-30 -60 -30 -139q0 -97 26.5 -148.5t77.5 -51.5z" />
    <glyph glyph-name="seven" unicode="7" 
d="M477 722v-28q-103 -222 -138 -349q-32 -122 -43 -290q-4 -69 -54 -69q-55 0 -55 74q0 122 55 253q54 130 173 322h-260h-1q-26 -3 -34 -14q-12 -18 -34 -143q0 -3 -1 -6h-25l23 250h394z" />
    <glyph glyph-name="eight" unicode="8" horiz-adv-x="490" 
d="M426 572q0 -115 -119 -172q69 -38 104 -79q36 -41 36 -117q0 -102 -64 -160q-62 -58 -151 -58q-88 0 -139 49.5t-51 132.5q0 124 123 187q-52 36 -77.5 79.5t-25.5 107.5q0 93 54.5 143.5t144.5 50.5q75 0 120 -44.5t45 -119.5zM353 157q-4 40 -15 64t-37 45
q-18 15 -32 24q-18 13 -39 25l-38 23q-48 -36 -70.5 -72.5t-22.5 -90.5q0 -74 37.5 -117.5t96.5 -43.5q57 0 88.5 36t31.5 107zM148 573q0 -63 41 -100q34 -29 91 -59q89 68 89 154q0 68 -30 103.5t-80 35.5q-45 0 -78 -36.5t-33 -97.5z" />
    <glyph glyph-name="nine" unicode="9" 
d="M46 488q0 112 59 180q60 68 146 68q208 0 208 -345q0 -173 -66 -289t-181 -116q-53 0 -96 34q-42 34 -44 96q0 41 33.5 57.5t57.5 -12.5q24 -28 12.5 -64.5t-41.5 -32.5q-14 0 -22 4q11 -27 40.5 -41.5t59.5 -14.5q39 0 70 36.5t47 97.5q33 115 33 257q-16 -59 -53 -94
t-86 -35q-87 0 -132 61t-45 153zM251 708q-106 0 -106 -213q0 -84 27.5 -135t73.5 -51q48 0 78 60q31 59 31 139q0 97 -26.5 148.5t-77.5 51.5z" />
    <glyph glyph-name="colon" unicode=":" horiz-adv-x="197" 
d="M63 363q-15 17 -15 41t15 41t36 17t35 -17q15 -17 15 -41t-15 -41q-14 -16 -35 -16t-36 16zM63 7q-15 17 -15 41t15 41t36 17t35 -17q15 -17 15 -41t-15 -41q-14 -16 -35 -16t-36 16z" />
    <glyph glyph-name="semicolon" unicode=";" horiz-adv-x="203" 
d="M63 363q-15 17 -15 41t15 41t36 17t35 -17q15 -17 15 -41t-15 -41q-14 -16 -35 -16t-36 16zM155 13q0 -49 -24.5 -90t-69.5 -65l-11 16q68 47 68 98q0 12 -3 24q-9 -3 -21 -3q-19 0 -32.5 15.5t-13.5 39.5t15 41t35 17q27 0 42 -27t15 -66z" />
    <glyph glyph-name="less" unicode="&#x3c;" horiz-adv-x="471" 
d="M415 159v-51l-359 211v20l359 210v-51l-284 -169z" />
    <glyph glyph-name="equal" unicode="=" horiz-adv-x="462" 
d="M406 429v-46h-350v46h350zM406 274v-45h-350v45h350z" />
    <glyph glyph-name="greater" unicode="&#x3e;" horiz-adv-x="471" 
d="M415 339v-20l-359 -211v51l284 170l-284 169v51z" />
    <glyph glyph-name="question" unicode="?" horiz-adv-x="413" 
d="M383 566q0 -38 -10.5 -68t-26.5 -49t-36 -35.5l-40 -33t-36 -36t-26.5 -48.5t-10.5 -67h-28q0 92 41 151q4 6 16.5 23.5t18 26t15.5 26t14.5 31.5t8 35t3.5 44q0 67 -28.5 104.5t-84.5 37.5q-47 0 -76 -30.5t-33 -78.5q8 4 22 4q20 0 31 -13.5t11 -34.5
q0 -23 -13.5 -38.5t-33.5 -15.5q-21 0 -35 17t-14 44q0 69 40 121q41 53 130 53q79 0 130 -52q51 -51 51 -118zM148 6q-15 17 -15 41t15 41t36 17t35 -17q15 -17 15 -41t-15 -41q-14 -16 -35 -16t-36 16z" />
    <glyph glyph-name="at" unicode="@" horiz-adv-x="635" 
d="M578 132l17 -12q-41 -104 -120 -156q-79 -54 -169 -54q-118 0 -192 98q-74 100 -74 239q0 191 93 291q87 93 207 93q78 0 154 -63q40 -33 64 -94t24 -138q0 -129 -45 -196t-100 -67t-59 102q-40 -102 -129 -102q-37 0 -61 25t-24 67q0 59 56 100t152 47q1 22 1 56
q-1 99 -74 99q-33 0 -60.5 -15t-32.5 -36q8 2 11 2q15 0 27 -12.5t12 -30.5t-12 -32.5t-33 -14.5q-17 0 -29 15t-12 35q0 55 43 85q43 31 93 31q69 0 105.5 -32t36.5 -95q0 -3 -2 -93q-1 -45 -1 -99q0 -58 18 -58q35 0 64 65q28 63 28 154q0 57 -15 103.5t-38 75.5t-52.5 49
t-57 28t-52.5 8q-112 0 -192 -92q-79 -91 -79 -261q0 -127 66 -217t171 -90q83 0 159 49t113 143zM284 108q39 0 63 47.5t24 135.5q-133 -7 -133 -116q0 -30 12.5 -48.5t33.5 -18.5z" />
    <glyph glyph-name="A" unicode="A" horiz-adv-x="599" 
d="M595 28v-28h-241v28h43q29 0 29 22q0 11 -8 33l-42 149h-218l-39 -133q-8 -27 -8 -38q0 -33 36 -33h33v-28h-176v28h10q51 0 72 71l193 637h48l199 -653q16 -55 57 -55h12zM364 266l-99 344l-98 -344h197z" />
    <glyph glyph-name="B" unicode="B" horiz-adv-x="561" 
d="M535 195q0 -90 -54.5 -142.5t-143.5 -52.5h-305v28h38q22 0 30 11t8 44v555q0 33 -8.5 44.5t-29.5 11.5h-38v28h271q97 0 149.5 -44.5t52.5 -132.5q0 -63 -40 -109t-106 -58q84 -10 130 -57.5t46 -125.5zM301 360h-86v-277q0 -33 8 -44t29 -11h70q47 0 75.5 47t28.5 120
q0 74 -33 119.5t-92 45.5zM396 542q0 69 -28 110.5t-85 41.5h-36q-18 0 -25 -10t-7 -40v-256h86q46 0 70 45q25 46 25 109z" />
    <glyph glyph-name="C" unicode="C" horiz-adv-x="544" 
d="M296 736q41 0 80 -24.5t67 -67.5l19 91h23l13 -279h-26q-19 136 -67 194q-46 57 -100 57q-161 0 -161 -350q0 -155 45.5 -244t121.5 -89q67 0 114.5 60.5t63.5 165.5h26q-15 -130 -80 -198q-65 -66 -142 -66q-112 0 -186 101q-74 103 -74 265q0 164 71 274
q72 110 192 110z" />
    <glyph glyph-name="D" unicode="D" horiz-adv-x="624" 
d="M32 694v28h291q126 0 197 -105q71 -104 71 -256q3 -150 -71.5 -255.5t-198.5 -105.5h-289v28h38q22 0 30 11t8 44v555q0 33 -8.5 44.5t-29.5 11.5h-38zM297 694h-50q-19 0 -25.5 -10.5t-6.5 -45.5v-555q0 -33 8 -44t29 -11h43q89 0 137 93t48 240q0 146 -47 240
q-47 93 -136 93z" />
    <glyph glyph-name="E" unicode="E" horiz-adv-x="555" 
d="M491 269h25l-14 -269h-470v28h38q22 0 30 11t8 44v555q0 33 -8.5 44.5t-29.5 11.5h-38v28h451l12 -238h-26q-12 111 -34 163q-7 20 -22 32q-19 15 -53 15h-113q-19 0 -25.5 -10.5t-6.5 -45.5v-249h75q38 0 53 28q14 28 16 120h26v-325h-26q-1 91 -16 119q-15 29 -53 29
h-75v-277q0 -33 8 -44t29 -11h117q26 0 36.5 2.5t24.5 13.5q20 17 32 64t29 161z" />
    <glyph glyph-name="F" unicode="F" horiz-adv-x="515" 
d="M300 28v-28h-268v28h38q22 0 30 11t8 44v555q0 33 -8.5 44.5t-29.5 11.5h-38v28h451l12 -238h-26q-12 111 -34 163q-7 20 -22 32q-19 15 -53 15h-113q-19 0 -25.5 -10.5t-6.5 -45.5v-249h75q38 0 53 28q14 28 16 120h26v-325h-26q-1 91 -16 119q-15 29 -53 29h-75v-277
q0 -33 8 -44t29 -11h48z" />
    <glyph glyph-name="G" unicode="G" horiz-adv-x="597" 
d="M581 329v-28h-31q-19 0 -26 -11t-7 -45v-262h-25l-35 135q-26 -59 -71.5 -95.5t-92.5 -36.5q-112 0 -186 101q-74 103 -74 265q0 164 71 274q72 110 192 110q42 0 81 -24t66 -68l19 91h23l13 -279h-26q-19 136 -67 194q-46 57 -100 57q-161 0 -161 -350q0 -157 44.5 -245
t122.5 -88q47 0 72 48q26 49 26 110v63q0 35 -6.5 45.5t-25.5 10.5h-48v28h252z" />
    <glyph glyph-name="H" unicode="H" horiz-adv-x="682" 
d="M467 83v274h-252v-274q0 -33 8 -44t29 -11h39v-28h-259v28h38q22 0 30 11t8 44v555q0 33 -8.5 44.5t-29.5 11.5h-38v28h259v-28h-39q-21 0 -29 -11.5t-8 -44.5v-241h252v241q0 33 -8 44.5t-29 11.5h-39v28h259v-28h-39q-21 0 -29 -11.5t-8 -44.5v-555q0 -33 8 -44t29 -11
h39v-28h-259v28h39q21 0 29 11t8 44z" />
    <glyph glyph-name="I" unicode="I" horiz-adv-x="323" 
d="M215 638v-555q0 -33 8 -44t29 -11h39v-28h-259v28h38q22 0 30 11t8 44v555q0 33 -8.5 44.5t-29.5 11.5h-38v28h259v-28h-39q-21 0 -29 -11.5t-8 -44.5z" />
    <glyph glyph-name="J" unicode="J" horiz-adv-x="432" 
d="M337 638v-455q0 -101 -50.5 -149t-138.5 -48q-72 0 -107 47q-34 46 -34 112q0 46 18.5 78.5t49.5 32.5q22 0 37.5 -18t15.5 -43q0 -26 -14.5 -44t-35.5 -18q-22 0 -34 25q-4 -11 -4 -28q0 -47 26.5 -79t67.5 -32q42 0 68.5 41t26.5 123v455q0 33 -8 44.5t-29 11.5h-49v28
h270v-28h-39q-21 0 -29 -11.5t-8 -44.5z" />
    <glyph glyph-name="K" unicode="K" horiz-adv-x="636" 
d="M627 28v-28h-251v28h36q22 0 22 12q0 15 -16 43l-136 287l-67 -98v-189q0 -33 8 -44t29 -11h34v-28h-254v28h38q22 0 30 11t8 44v555q0 33 -8.5 44.5t-29.5 11.5h-38v28h259v-28h-39q-21 0 -29 -11.5t-8 -44.5v-325l230 314q20 26 20 44q0 23 -29 23h-35v28h208v-28h-24
q-43 0 -98 -67l-126 -176l183 -368q17 -32 31 -43.5t33 -11.5h19z" />
    <glyph glyph-name="L" unicode="L" horiz-adv-x="524" 
d="M479 279h26l-16 -279h-462v28h38q21 0 29 11t8 44v555q0 33 -8 44.5t-29 11.5h-38v28h264v-28h-44q-21 0 -29 -11.5t-8 -44.5v-555q0 -33 8 -44t29 -11h109q33 0 55 19q43 37 68 232z" />
    <glyph glyph-name="M" unicode="M" horiz-adv-x="805" 
d="M773 28v-28h-259v28h39q21 0 29 11t8 44v611h-5l-210 -694h-24l-208 694h-4v-601q0 -65 41 -65h34v-28h-185v28h34q42 0 42 65v545q0 33 -8 44.5t-29 11.5h-39v28h218l155 -539l157 539h214v-28h-39q-20 0 -28.5 -12.5t-8.5 -44.5v-554q0 -33 8 -44t29 -11h39z" />
    <glyph glyph-name="N" unicode="N" horiz-adv-x="625" 
d="M532 628v-628h-30l-359 605h-4v-512q0 -65 41 -65h35v-28h-186v28h34q42 0 42 65v545q0 33 -8 44.5t-29 11.5h-39v28h160l306 -539h4v445q0 66 -42 66h-34v28h185v-28h-34q-42 0 -42 -66z" />
    <glyph glyph-name="O" unicode="O" horiz-adv-x="604" 
d="M571 361q0 -164 -71 -270q-70 -105 -198 -105t-198 105q-71 106 -71 270q0 163 71 269q70 106 198 106t198 -106q71 -106 71 -269zM459 361q0 158 -40 251q-41 95 -117 95q-77 0 -118 -95q-40 -93 -40 -251q0 -160 40 -253q40 -94 118 -94q77 0 117 94q40 93 40 253z" />
    <glyph glyph-name="P" unicode="P" horiz-adv-x="544" 
d="M416 520q0 34 -11 73q-11 37 -42 69q-32 32 -78 32h-35q-19 0 -27 -12t-8 -44v-295h71q55 0 93 53q37 52 37 124zM524 520q0 -96 -58.5 -150.5t-163.5 -54.5h-87v-232q0 -33 8 -44t29 -11h39v-28h-259v28h38q22 0 30 15t8 64v531q0 33 -8.5 44.5t-29.5 11.5h-38v28h270
q101 0 161.5 -54.5t60.5 -147.5z" />
    <glyph glyph-name="Q" unicode="Q" horiz-adv-x="604" 
d="M571 361q0 -109 -31.5 -194t-91.5 -132l11 -52l11 -51q21 -82 46 -76q8 0 16.5 7t18 29t13.5 57h26q-4 -39 -14.5 -65.5t-25 -38.5t-26.5 -16.5t-25 -4.5q-67 0 -96 54q-24 44 -35 117q-32 -9 -66 -9q-68 0 -122 32.5t-85 88.5q-62 110 -62 254q0 163 71 269
q70 106 198 106t198 -106q71 -106 71 -269zM459 361q0 158 -40 251q-41 95 -117 95q-77 0 -118 -95q-40 -93 -40 -251q0 -175 47 -267q-1 3 -1 17q0 51 30 89q32 38 74 38q84 0 129 -119q36 91 36 242zM220 111q0 -38 23.5 -67.5t58.5 -29.5q34 0 60 18q-11 113 -27 143
q-15 29 -41 29q-31 0 -52.5 -27t-21.5 -66z" />
    <glyph glyph-name="R" unicode="R" horiz-adv-x="608" 
d="M558 132h26q-4 -77 -27 -109.5t-68 -32.5q-47 0 -70 37.5t-33 118.5q-11 86 -34 140q-24 62 -79 62h-58v-265q0 -33 8 -44t29 -11h39v-28h-259v28h38q22 0 30 11t8 44v555q0 33 -8.5 44.5t-29.5 11.5h-38v28h295q92 0 146 -48.5t54 -136.5q0 -75 -47.5 -124t-129.5 -56
q103 -24 128 -159q8 -42 14 -92q12 -66 28 -66q32 0 38 92zM311 694h-59q-21 0 -29 -11.5t-8 -44.5v-261h81q58 0 90 42t32 118q0 74 -29 115.5t-78 41.5z" />
    <glyph glyph-name="S" unicode="S" horiz-adv-x="499" 
d="M470 201q0 -105 -67 -160t-156 -55q-111 0 -175 102l-18 -101h-21l-15 283h26q18 -141 84 -202q58 -54 120 -54q59 0 96.5 36t37.5 102q0 55 -32 93q-14 17 -37 30q-29 17 -91 40q-75 27 -123 66q-56 48 -56 149q0 99 52 152.5t138 53.5q104 0 161 -89l18 88h21l10 -263
h-26q-18 136 -78 188q-51 47 -106 47q-47 0 -78 -34.5t-31 -96.5q0 -73 52 -109q27 -19 49 -28q28 -12 61 -23q76 -26 124 -66q60 -48 60 -149z" />
    <glyph glyph-name="T" unicode="T" horiz-adv-x="564" 
d="M528 722l16 -258h-25q-15 103 -28 151.5t-28 63t-43 15.5h-54q-19 0 -24.5 -10t-5.5 -46v-555q0 -33 8 -44t29 -11h39v-28h-260v28h39q21 0 29 11t8 44v555q0 36 -5.5 46t-24.5 10h-54q-26 0 -43 -15q-33 -31 -56 -215h-25l16 258h492z" />
    <glyph glyph-name="U" unicode="U" horiz-adv-x="624" 
d="M609 722v-28h-35q-41 0 -41 -66v-412q0 -230 -221 -230t-221 230v422q0 33 -8 44.5t-29 11.5h-39v28h259v-28h-39q-21 0 -28.5 -11.5t-7.5 -44.5v-422q0 -191 149 -191q72 0 112 47t40 144v412q0 66 -42 66h-34v28h185z" />
    <glyph glyph-name="V" unicode="V" horiz-adv-x="599" 
d="M595 722v-28h-10q-49 0 -72 -71l-193 -638h-48l-199 653q-17 56 -57 56h-12v28h241v-28h-43q-28 0 -28 -23q0 -11 7 -33l153 -528l146 513q8 22 8 38q0 33 -36 33h-32v28h175z" />
    <glyph glyph-name="W" unicode="W" horiz-adv-x="855" 
d="M851 722v-28h-10q-49 0 -60 -44l-170 -665h-48l-138 540l-132 -540h-48l-172 652q-9 30 -21.5 43.5t-36.5 13.5h-11v28h235v-28h-37q-27 0 -27 -23q0 -5 6 -33l122 -494l104 434l-16 60q-8 31 -18.5 42.5t-29.5 12.5l-19 1v28h247v-28h-50q-28 0 -28 -23q0 -5 6 -33
l122 -494l115 479q6 29 6 42q0 29 -34 29h-36v28h179z" />
    <glyph glyph-name="X" unicode="X" horiz-adv-x="623" 
d="M611 28v-28h-268l-1 28h46q23 0 23 15q0 12 -16 40l-118 245l-127 -251q-11 -24 -11 -35q0 -14 21 -14h41v-28h-189v28h23q27 0 44.5 11.5t34.5 43.5l144 277l-141 278q-29 56 -67 56h-23v28h263v-28h-39q-25 0 -25 -14q0 -11 16 -42l101 -209l111 218q13 21 11.5 34
t-23.5 13h-36v28h185v-28h-23q-28 0 -45.5 -12t-34.5 -44l-127 -241l159 -314q28 -55 68 -55h23z" />
    <glyph glyph-name="Y" unicode="Y" horiz-adv-x="587" 
d="M583 722v-28h-21q-41 0 -70 -71l-142 -318v-222q0 -33 8 -44t29 -11h39v-28h-259v28h39q21 0 28.5 11t7.5 44v222l-156 333q-27 56 -62 56h-20v28h253v-28h-41q-27 0 -27 -20q0 -5 14 -36l136 -291l120 276q12 24 12 40q0 31 -24 31h-38v28h174z" />
    <glyph glyph-name="Z" unicode="Z" horiz-adv-x="517" 
d="M467 273h26l-16 -273h-453v28l338 666h-196q-56 0 -78 -63q-17 -47 -30 -162h-26l17 253h440v-28l-338 -666h202q50 0 73 47q23 49 41 198z" />
    <glyph glyph-name="bracketleft" unicode="[" horiz-adv-x="271" 
d="M240 -92v-37h-184v947h184v-37h-110v-873h110z" />
    <glyph glyph-name="backslash" unicode="\" horiz-adv-x="285" 
d="M59 722l226 -722h-59l-226 722h59z" />
    <glyph glyph-name="bracketright" unicode="]" horiz-adv-x="271" 
d="M215 818v-947h-185v37h111v873h-111v37h185z" />
    <glyph glyph-name="asciicircum" unicode="^" horiz-adv-x="353" 
d="M312 432h-57l-81 141l-81 -141h-57l126 199h25z" />
    <glyph glyph-name="underscore" unicode="_" horiz-adv-x="402" 
d="M402 -52v-40h-402v40h402z" />
    <glyph glyph-name="grave" unicode="`" horiz-adv-x="328" 
d="M256 552l-16 -10q-118 97 -119 137q0 11 8.5 20t20.5 11q29 2 41 -18q6 -9 65 -140z" />
    <glyph glyph-name="a" unicode="a" horiz-adv-x="444" 
d="M174 29q46 0 72 53t28 156q-85 -4 -120 -44q-33 -38 -33 -88q0 -34 14.5 -55.5t38.5 -21.5zM187 441q-38 0 -68 -17t-42 -44q14 2 16 2q22 0 32 -15t10 -33t-14 -35.5t-34 -17.5t-34.5 17.5t-14.5 39.5q0 64 51 98q53 35 110 35q82 0 125.5 -37t43.5 -109q0 -2 -2 -112
t-2 -119q0 -68 21 -68q6 0 11.5 6.5t10 24t4.5 43.5h22q-1 -112 -80 -112q-66 0 -70 118q-48 -118 -152 -118q-43 0 -71 29t-28 76q0 66 64 114q64 47 179 55v19.5t0.5 17.5t1 14t0.5 9v4q-1 57 -24.5 86t-65.5 29z" />
    <glyph glyph-name="b" unicode="b" horiz-adv-x="462" 
d="M432 229q0 -102 -47 -173q-46 -70 -125 -70q-57 0 -92 32.5t-63 100.5q-20 -79 -40 -126l-24 5q14 73 14 200v458q0 25 -7 33.5t-28 8.5h-28v28l154 10v-379q16 52 49 83.5t74 31.5q72 0 117 -71q46 -70 46 -172zM146 225q0 -92 26.5 -149t67.5 -57q44 0 72 54t28 152
t-28 152.5t-72 54.5q-42 0 -68 -57t-26 -150z" />
    <glyph glyph-name="c" unicode="c" horiz-adv-x="389" 
d="M343 142l22 -11q-21 -68 -60.5 -106.5t-88.5 -38.5q-82 0 -134 66q-52 67 -52 171q0 101 54 175q56 74 142 74q60 0 97 -32.5t37 -92.5q0 -25 -13.5 -43t-34.5 -18q-25 0 -37.5 16t-12.5 38q0 24 12 37.5t31 13.5q10 0 23 -5q-24 61 -97 61q-48 0 -78.5 -60t-30.5 -159
q0 -92 30 -147.5t78 -55.5q80 0 113 117z" />
    <glyph glyph-name="d" unicode="d" horiz-adv-x="466" 
d="M457 28v-28h-133l-5 124q-13 -62 -49.5 -100t-85.5 -38q-71 0 -113 70q-41 71 -41 173t41 173q42 70 113 70q45 0 78.5 -31.5t48.5 -89.5v305q0 25 -6 33.5t-27 8.5h-30v28l154 10v-663q0 -28 6 -36.5t24 -8.5h25zM311 229q0 96 -28.5 151t-68.5 55q-44 0 -68 -52.5
t-24 -153.5q0 -102 24 -154t67 -52q38 0 68 54q30 55 30 152z" />
    <glyph glyph-name="e" unicode="e" horiz-adv-x="409" 
d="M378 233h-256v-17q0 -92 28.5 -143.5t77.5 -51.5q84 0 120 121l23 -10q-17 -66 -63 -106t-94 -40q-86 0 -135 70t-49 173q0 98 50 171q51 72 136 72q79 0 120.5 -64t41.5 -175zM215 443q-42 0 -66 -47.5t-27 -132.5h141q22 0 22 29q0 67 -19 109t-51 42z" />
    <glyph glyph-name="f" unicode="f" horiz-adv-x="290" 
d="M352 641q0 -21 -13 -37t-31 -16t-30.5 14.5t-12.5 35.5q0 47 41 47q-8 30 -51 30q-37 0 -58 -42t-21 -126v-89h84v-34h-84v-356q0 -22 6 -31t23 -9h50v-28h-233v28h34q17 0 23 9t6 31v356h-62v34h62v55q0 230 163 230q44 0 74 -28t30 -74z" />
    <glyph glyph-name="g" unicode="g" horiz-adv-x="445" 
d="M361 315q0 -71 -42 -114t-120 -43q-50 0 -81.5 -13.5t-31.5 -35.5q0 -34 83 -34q6 0 52 2t53 2q129 0 129 -115q0 -66 -55 -114q-53 -49 -152 -49q-83 0 -130.5 30t-47.5 83q0 30 21 53t58 35q-60 20 -60 77q0 34 20.5 59.5t58.5 34.5q-38 17 -58 54.5t-20 87.5
q0 70 42 113.5t119 43.5q85 0 129 -54q10 27 29.5 44.5t39.5 17.5q18 0 31 -11t13 -30q0 -18 -9.5 -29.5t-22.5 -11.5q-11 0 -20 8t-9 20q0 10 6.5 18.5t19.5 9.5q-4 4 -13 4q-15 0 -32 -23q-17 -24 -20 -37q20 -38 20 -83zM276 315q0 57 -19.5 92.5t-57.5 35.5
q-37 0 -56.5 -35t-19.5 -93t19.5 -93.5t56.5 -35.5q38 0 57.5 35t19.5 94zM347 -70q0 61 -105 61q-5 0 -21 -0.5t-20 -0.5q-130 0 -130 -74q0 -40 31 -63.5t95 -23.5q65 0 107.5 27t42.5 74z" />
    <glyph glyph-name="h" unicode="h" horiz-adv-x="512" 
d="M167 233v-165q0 -23 6 -31.5t23 -8.5h28v-28h-212v28h34q18 0 24 9t6 31v588q0 25 -7 33.5t-28 8.5h-29v28l155 10v-402q16 61 56.5 99.5t91.5 38.5q65 0 93.5 -44t28.5 -132v-228q0 -23 6 -31.5t24 -8.5h33v-28h-211v28h27q18 0 24 8.5t6 31.5v216q0 76 -15 107t-53 31
q-39 0 -75 -59t-36 -130z" />
    <glyph glyph-name="i" unicode="i" horiz-adv-x="258" 
d="M184 611q0 -23 -16 -40.5t-38 -17.5t-38.5 17.5t-16.5 40.5q0 24 16 41t39 17q22 0 38 -17t16 -41zM85 68v321q0 25 -6 33.5t-27 8.5h-30v28l154 10v-401q0 -22 6 -31t23 -9h42v-28h-225v28h34q17 0 23 9t6 31z" />
    <glyph glyph-name="j" unicode="j" horiz-adv-x="231" 
d="M29 459l154 11v-470q0 -107 -43 -154q-44 -48 -100 -48q-86 0 -86 78q0 21 12.5 36t30.5 15q19 0 31 -11.5t12 -32.5q0 -15 -10 -26.5t-27 -11.5q-13 0 -19 2q16 -21 52 -21q17 0 28.5 12.5t19.5 52.5t8 109v389q0 25 -6.5 33.5t-27.5 8.5h-29v28zM191 611
q0 -23 -16 -40.5t-38 -17.5t-38.5 17.5t-16.5 40.5q0 24 16 41t39 17q22 0 38 -17t16 -41z" />
    <glyph glyph-name="k" unicode="k" horiz-adv-x="481" 
d="M475 28v-28h-200v28h28q16 0 16 10q0 6 -10 25l-99 176l-48 -51v-120q0 -22 6 -31t24 -9h28v-28h-212v28h34q16 0 22.5 8.5t6.5 31.5v588q0 30 -10 36t-53 6v28l154 10v-502l116 128q34 37 34 55q0 13 -20 13h-42v28h195v-28h-25q-18 0 -48 -21q-5 -3 -23 -21l-24 -27
l-58 -65l140 -238q17 -30 50 -30h18z" />
    <glyph glyph-name="l" unicode="l" horiz-adv-x="246" 
d="M236 28v-28h-226v28h34q18 0 24 9t6 31v588q0 25 -7 33.5t-28 8.5h-29v28l154 10v-668q0 -22 6 -31t24 -9h42z" />
    <glyph glyph-name="m" unicode="m" horiz-adv-x="764" 
d="M753 28v-28h-212v28h28q17 0 23 8.5t6 31.5v216q0 76 -13.5 107t-49.5 31t-69 -53t-33 -122v-179q0 -23 6 -31.5t23 -8.5h28v-28h-205v28h27q18 0 24 9t6 31v216q0 76 -13.5 107t-49.5 31t-70 -54q-33 -54 -33 -125v-175q0 -22 6 -31t23 -9h28v-28h-211v28h34q17 0 23 9
t6 31v321q0 25 -6.5 33.5t-27.5 8.5h-29v28l145 10l6 -135q19 63 57.5 100.5t86.5 37.5q101 0 112 -141q21 64 59 102.5t85 38.5q62 0 89 -44t27 -132v-228q0 -22 6 -31t24 -9h34z" />
    <glyph glyph-name="n" unicode="n" horiz-adv-x="521" 
d="M509 28v-28h-211v28h28q17 0 23 8.5t6 31.5v216q0 76 -15 107t-53 31q-39 0 -75 -54t-36 -125v-175q0 -22 6 -31t23 -9h28v-28h-211v28h34q17 0 23 9t6 31v321q0 25 -6 33.5t-26 8.5h-31v28l145 10l6 -136q18 62 59.5 100.5t92.5 38.5q64 0 92.5 -44t28.5 -132v-228
q0 -22 6 -31t24 -9h33z" />
    <glyph glyph-name="o" unicode="o" horiz-adv-x="438" 
d="M290 69q26 57 26 160q0 104 -26 159q-25 55 -71 55q-47 0 -72 -55q-25 -54 -25 -159q0 -106 25 -160q25 -55 72 -55q46 0 71 55zM219 -14q-85 0 -138 68q-51 69 -51 175q0 107 51 174q53 69 138 69q87 0 138 -68t51 -175t-51 -175t-138 -68z" />
    <glyph glyph-name="p" unicode="p" horiz-adv-x="478" 
d="M448 229q0 -102 -44 -173q-43 -70 -114 -70q-42 0 -76 34.5t-47 89.5v-230q0 -23 6 -31.5t23 -8.5h42v-28h-226v28h34q18 0 24 9t6 31v509q0 25 -6.5 33.5t-26.5 8.5h-31v28l145 10l7 -131q12 58 47 96t79 38q70 0 114 -71t44 -172zM167 229q0 -88 29 -148q30 -59 65 -59
q43 0 69 53.5t26 153.5q0 99 -26 152t-69 53q-35 0 -65 -59q-29 -60 -29 -146z" />
    <glyph glyph-name="q" unicode="q" horiz-adv-x="472" 
d="M407 295v-408q0 -24 6 -32.5t23 -8.5h29v-34h-217v34h38q20 4 25 17t5 49v190q-36 -116 -122 -116q-73 0 -119 70q-45 70 -45 173q0 101 47 172q48 71 126 71q57 0 92.5 -34t61.5 -101q17 75 40 132q1 0 6.5 -1.5t10.5 -2.5t7 -1q-14 -76 -14 -169zM316 232
q-1 96 -26.5 151.5t-67.5 55.5q-44 0 -72 -54t-28 -153q0 -98 28 -152t72 -54q42 0 68 56t26 150z" />
    <glyph glyph-name="r" unicode="r" horiz-adv-x="376" 
d="M369 391q0 -23 -14 -39.5t-34 -16.5t-32 13.5t-12 36.5q0 17 13 30.5t35 13.5q-9 13 -30 13q-28 2 -56.5 -42t-46 -108t-16.5 -119v-88q0 -39 5.5 -48t31.5 -9h39v-28h-230v28h34q20 0 24.5 9.5t4.5 46.5v289q0 35 -4.5 44.5t-26.5 13.5h-32v28l144 11q1 -45 4 -187
q12 74 47 130t79 56q73 0 73 -78z" />
    <glyph glyph-name="s" unicode="s" horiz-adv-x="370" 
d="M181 -14q-32 0 -62.5 16t-49.5 43l-14 -59h-21l-9 188h20q28 -160 137 -160q38 0 61.5 22.5t23.5 65.5q4 33 -26 58q-5 5 -39 18q-23 9 -47 12q-61 16 -89.5 48.5t-28.5 97.5q0 64 38.5 100t100.5 36q66 0 108 -55l12 54h21l9 -168h-19q-16 74 -51.5 109t-78.5 35
q-34 0 -57.5 -23.5t-23.5 -61.5t26.5 -56t89.5 -32q68 -15 100 -45.5t32 -93.5q0 -68 -43.5 -108.5t-119.5 -40.5z" />
    <glyph glyph-name="t" unicode="t" horiz-adv-x="317" 
d="M275 163h26q-11 -177 -119 -177q-63 0 -86 32t-23 105v301h-60v34h21q52 0 77 49q19 67 27 132h25v-181h117v-34h-117v-299q0 -100 52 -100q24 0 40 37t20 101z" />
    <glyph glyph-name="u" unicode="u" horiz-adv-x="507" 
d="M496 28v-28h-145l-6 124q-18 -61 -59.5 -99.5t-92.5 -38.5q-64 0 -92.5 44t-28.5 132v227q0 25 -6.5 33.5t-27.5 8.5h-27v28l151 11v-297q0 -75 15.5 -106.5t53.5 -31.5q39 0 75 54t36 125v175q0 25 -6 33.5t-27 8.5h-27v28l151 11v-402q0 -23 6 -31.5t23 -8.5h34z" />
    <glyph glyph-name="v" unicode="v" horiz-adv-x="445" 
d="M233 -14h-26l-147 403q-9 24 -17.5 32.5t-23.5 8.5h-15v28h194v-28h-28q-18 0 -18 -12q0 -7 8 -29l97 -270l98 270q5 15 5 22q0 19 -20 19h-29v28h130v-28h-14q-30 0 -45 -41z" />
    <glyph glyph-name="w" unicode="w" horiz-adv-x="637" 
d="M444 -14h-22l-105 338l-109 -338h-22l-126 403q-8 24 -16.5 32.5t-24.5 8.5h-15v28h180v-28h-17q-18 0 -18 -12t5 -29l79 -259l71 227l-8 32q-14 41 -42 41h-12v28h189v-28h-23q-22 0 -22 -13q0 -10 5 -28l78 -260l81 260q5 15 5 22q0 19 -20 19h-29v28h127v-28h-11
q-18 0 -28 -8.5t-18 -32.5z" />
    <glyph glyph-name="x" unicode="x" horiz-adv-x="441" 
d="M428 28v-28h-196v28h27q19 0 19 10q0 4 -15 30l-67 133l-72 -133q-13 -25 -13 -29q0 -11 16 -11h25v-28h-140v28h20q30 0 56 41l92 158l-88 162q-23 41 -51 41h-19v28h193v-28h-26q-17 0 -17 -11q0 -5 12 -30l56 -115l63 115q12 21 12 30q0 11 -16 11h-26v28h145v-28h-18
q-39 0 -63 -42l-80 -139l98 -181q22 -40 56 -40h17z" />
    <glyph glyph-name="y" unicode="y" horiz-adv-x="460" 
d="M456 458v-28h-14q-21 0 -33.5 -14t-23.5 -48l-117 -368q-23 -71 -39 -107q-17 -41 -45 -67t-62 -26t-53 24.5t-19 65.5q0 19 13.5 33.5t32.5 14.5q17 0 27.5 -13.5t10.5 -31.5q0 -16 -10 -29.5t-27 -13.5q-11 0 -16 5q9 -32 41 -32q35 0 59.5 37t52.5 131l-160 379
q-16 38 -25.5 49t-26.5 11h-18v28h205v-28h-26q-18 0 -18 -12q0 -11 7 -29l106 -267l85 267l5 22q0 19 -20 19h-30v28h138z" />
    <glyph glyph-name="z" unicode="z" horiz-adv-x="398" 
d="M351 190h26l-10 -190h-329v28l229 402h-122q-21 0 -29 -2t-17.5 -16.5t-15 -40.5t-14.5 -80h-25l9 167h315v-28l-224 -402h125q25 0 37.5 9.5t23 43.5t21.5 109z" />
    <glyph glyph-name="braceleft" unicode="{" horiz-adv-x="329" 
d="M93 345q108 -47 108 -220v-108q0 -51 24.5 -84t63.5 -33v-29q-84 5 -126 66.5t-42 164.5v92q0 51 -20 88t-55 43v40q35 6 55 43t20 88v92q0 103 42 164.5t126 66.5v-29q-39 0 -63.5 -33t-24.5 -84v-108q0 -173 -108 -220z" />
    <glyph glyph-name="bar" unicode="|" horiz-adv-x="141" 
d="M96 722v-910h-52v910h52z" />
    <glyph glyph-name="braceright" unicode="}" horiz-adv-x="329" 
d="M236 345q-108 47 -108 220v108q0 51 -24.5 84t-63.5 33v29q84 -5 126 -66.5t42 -164.5v-92q0 -51 20 -88t55 -43v-40q-35 -6 -55 -43t-20 -88v-92q0 -103 -42 -164.5t-126 -66.5v29q39 0 63.5 33t24.5 84v108q0 173 108 220z" />
    <glyph glyph-name="asciitilde" unicode="~" horiz-adv-x="459" 
d="M334 248q-36 0 -113 41q-77 42 -96 42q-49 0 -59 -88h-29q2 66 24.5 105t63.5 39q35 0 110 -42q77 -41 99 -41q48 0 58 87h29q-2 -66 -24 -104.5t-63 -38.5z" />
    <glyph glyph-name="uni00A0" unicode="&#xa0;" horiz-adv-x="224" 
 />
    <glyph glyph-name="exclamdown" unicode="&#xa1;" horiz-adv-x="209" 
d="M90 497h26q5 -82 19 -220q15 -140 17 -229q0 -27 -13.5 -42.5t-35.5 -15.5q-49 0 -49 58q0 83 16 231q14 126 20 218zM138 719q15 -16 15 -40t-15 -41q-14 -17 -35 -17t-36 17q-14 17 -14 41t14 40q15 17 36 17t35 -17z" />
    <glyph glyph-name="cent" unicode="&#xa2;" horiz-adv-x="389" 
d="M227 -13v-59h-27v59q-76 7 -123 72q-47 67 -47 164q0 94 46 164q47 71 124 83v72h27v-70q59 -1 96 -33.5t37 -91.5q0 -25 -13.5 -43t-34.5 -18q-25 0 -37.5 16t-12.5 38q0 24 12 37.5t31 13.5q10 0 23 -5q-24 61 -101 61v-422q83 0 116 117l22 -11q-20 -65 -56 -102.5
t-82 -41.5zM122 228q0 -77 21 -129t57 -68v408q-36 -18 -57 -74t-21 -137z" />
    <glyph glyph-name="sterling" unicode="&#xa3;" 
d="M456 193l24 -5q-3 -80 -33 -141t-82 -61q-36 0 -67 20.5t-70 63.5q-44 -84 -116 -84q-43 0 -65 26.5t-22 70.5q0 47 28 71q28 25 58 25q35 0 81 -30q-1 50 -37 185h-102v41h87q-17 99 -17 156q0 93 49 151q50 60 136 60q59 0 95 -40.5t36 -102.5q0 -28 -15.5 -47.5
t-39.5 -19.5q-21 0 -38 18t-17 42q0 25 13 40.5t35 15.5q11 0 21 -3q-8 31 -32.5 49.5t-57.5 18.5q-44 0 -72.5 -38t-28.5 -102q0 -36 9 -77l8 -37l11 -44q10 -36 11 -40h133v-41h-122q12 -69 12 -107q0 -47 -12 -96q15 -9 31 -20l35 -22q31 -19 60 -19q55 0 73 123z
M192 103q-47 47 -81 47q-25 0 -42 -20.5t-17 -47.5q0 -31 16.5 -49.5t42.5 -18.5q27 0 49 24t32 65z" />
    <glyph glyph-name="yen" unicode="&#xa5;" horiz-adv-x="587" 
d="M464 224v-39h-114v-102q0 -33 8 -44t29 -11h39v-28h-259v28h39q21 0 28.5 11t7.5 44v102h-113v39h113v78h-113v40h95l-138 296q-27 56 -62 56h-20v28h253v-28h-41q-27 0 -27 -20q0 -5 14 -36l136 -291l120 276q12 24 12 40q0 31 -24 31h-38v28h174v-28h-21
q-22 0 -37 -14.5t-33 -56.5l-126 -281h98v-40h-114v-78h114z" />
    <glyph glyph-name="brokenbar" unicode="&#xa6;" horiz-adv-x="141" 
d="M96 116v-335h-52v335h52zM96 736v-335h-52v335h52z" />
    <glyph glyph-name="section" unicode="&#xa7;" horiz-adv-x="502" 
d="M206 -66q0 -23 -13 -37t-32 -14t-32 16q4 -25 36.5 -42t70.5 -17q34 0 54.5 26.5t20.5 73.5q0 32 -18.5 62t-38.5 47.5t-58 45.5q-7 5 -11 8q-60 44 -93 87.5t-33 106.5q0 99 99 160q-50 59 -50 125q0 74 43.5 114t119.5 40q60 0 99.5 -31t39.5 -87q0 -25 -16 -42.5
t-37 -17.5q-22 0 -38 17.5t-16 42.5q0 27 13.5 38.5t46.5 11.5q-30 39 -92 39q-33 0 -53.5 -26.5t-20.5 -73.5q0 -70 88 -136q32 -22 45.5 -32.5t41 -35t40.5 -44t24.5 -49t11.5 -60.5q0 -98 -98 -160q50 -62 50 -125q0 -74 -44 -114t-120 -40q-60 0 -99.5 31.5t-39.5 86.5
q0 25 14.5 42.5t36.5 17.5q27 0 42.5 -14.5t15.5 -40.5zM129 332q0 -43 29 -80q31 -36 90 -80q57 -42 83 -66q45 46 45 101q0 44 -29 81q-27 36 -88 83q-58 45 -83 70q-47 -53 -47 -109z" />
    <glyph glyph-name="dieresis" unicode="&#xa8;" horiz-adv-x="408" 
d="M241 605q0 20 12 34.5t29 14.5q18 0 30.5 -14.5t12.5 -34.5t-12.5 -34t-30.5 -14q-17 0 -29 14.5t-12 33.5zM94 571q-12 14 -12 34t12 34q13 15 30 15t29 -15q13 -14 13 -34t-13 -34q-12 -14 -29 -14t-30 14z" />
    <glyph glyph-name="copyright" unicode="&#xa9;" horiz-adv-x="697" 
d="M644 359q0 -155 -88 -264t-212 -109t-212 109q-87 109 -87 264t87 266q88 111 212 111q123 0 212 -111q88 -110 88 -266zM617 359q0 143 -80 247q-79 103 -193 103t-193 -103t-79 -247t79 -245q80 -101 193 -101t193 101q80 103 80 245zM478 282h20q-11 -90 -57 -136
t-99 -46q-78 0 -130 70t-52 182q0 114 49 188q49 76 132 76q30 0 59.5 -16.5t47.5 -45.5l14 61h16l9 -191h-19q-14 94 -48 132q-35 38 -72 38q-110 0 -110 -238q0 -107 31 -168t85 -61q46 0 80 42t44 113z" />
    <glyph glyph-name="ordfeminine" unicode="&#xaa;" horiz-adv-x="381" 
d="M148 360q32 0 54 44t22 111q-115 -6 -115 -99q0 -25 10.5 -40.5t28.5 -15.5zM161 667q-33 0 -57 -12.5t-29 -31.5q6 2 13 2q15 0 23 -12t8 -25q0 -14 -10 -27t-26 -13q-15 0 -25.5 12.5t-10.5 30.5q0 47 38 73q39 27 82 27q61 0 94.5 -28t33.5 -82q0 -2 -2 -84
q-1 -41 -1 -90q0 -50 16 -50q19 0 19 55h18q-1 -84 -61 -84q-49 0 -54 89q-35 -89 -114 -89q-33 0 -54.5 22t-21.5 57q0 51 50 86.5t135 40.5q0 78 -12 105q-12 28 -52 28z" />
    <glyph glyph-name="guillemotleft" unicode="&#xab;" horiz-adv-x="426" 
d="M365 27l-162 223l162 223h30l-109 -223l109 -223h-30zM197 27l-162 223l162 223h30l-109 -223l109 -223h-30z" />
    <glyph glyph-name="logicalnot" unicode="&#xac;" horiz-adv-x="378" 
d="M290 114v126h-239v45h276v-171h-37z" />
    <glyph glyph-name="uni00AD" unicode="&#xad;" horiz-adv-x="351" 
d="M299 290v-50h-248v50h248z" />
    <glyph glyph-name="registered" unicode="&#xae;" horiz-adv-x="403" 
d="M363 533q0 -83 -48 -141q-46 -58 -115 -58q-68 0 -114 58t-46 141q0 85 46 143q46 60 114 60q67 0 115 -60q48 -58 48 -143zM343 533q0 77 -42 131t-101 54q-58 0 -101 -55q-42 -54 -42 -130q0 -72 43 -127t100 -55q58 0 100 54q43 55 43 128zM292 468h9q-1 -27 -13 -37
q-8 -5 -11 -5q-20 0 -30.5 17t-13 37t-10.5 37t-23 17h-19v-81q0 -18 12 -18h12v-10h-84v10h12q12 0 12 18v173q0 11 -2.5 14t-9.5 3h-12v10h96q62 0 62 -58q0 -24 -14.5 -39.5t-40.5 -17.5q19 -4 30 -20.5t13 -33.5t5 -30.5t8 -13.5q11 0 12 28zM242 595q0 48 -30 48h-8
q-3 0 -17 -2q-6 -3 -6 -25v-71h26q35 0 35 50z" />
    <glyph glyph-name="overscore" unicode="&#xaf;" horiz-adv-x="388" 
d="M315 645v-54h-242v54h242z" />
    <glyph glyph-name="degree" unicode="&#xb0;" horiz-adv-x="298" 
d="M78 591q0 -38 21.5 -66.5t48.5 -28.5q29 0 50.5 28.5t21.5 66.5q0 35 -21.5 61.5t-50.5 26.5q-27 0 -48.5 -26.5t-21.5 -61.5zM43 591q0 55 30 91.5t75 36.5t75.5 -36.5t30.5 -91.5q0 -57 -30.5 -94.5t-75.5 -37.5t-75 37.5t-30 94.5z" />
    <glyph glyph-name="plusminus" unicode="&#xb1;" horiz-adv-x="462" 
d="M252 338v-174h-42v174h-154v46h154v174h42v-174h154v-46h-154zM406 96v-46h-350v46h350z" />
    <glyph glyph-name="twosuperior" unicode="&#xb2;" horiz-adv-x="289" 
d="M64 589q5 14 20 14q8 0 14 -8.5t6 -19.5q0 -13 -8.5 -22.5t-19.5 -9.5q-12 0 -21.5 15t-9.5 33q0 46 27 73t69 27q37 0 64 -28t27 -69q0 -50 -25 -87t-102 -107q-10 -9 -10 -13t42 -4h64q14 0 19 11q5 12 14 66h13l-8 -120h-198v15l91 114q44 56 44 125q0 34 -14.5 53.5
t-37.5 19.5q-25 0 -44 -20.5t-19 -43.5q0 -8 3 -14z" />
    <glyph glyph-name="threesuperior" unicode="&#xb3;" horiz-adv-x="287" 
d="M239 427q0 -45 -27.5 -71t-75.5 -26q-37 0 -63 22.5t-26 67.5q0 18 13.5 26t27 0t13.5 -26q0 -22 -16 -26q-7 -3 -13 -1q12 -44 55 -44q58 0 58 82q0 72 -47 72q-2 0 -14 -1.5t-16 -1.5q-8 0 -8 12q0 13 8 13q2 0 15 -2t15 -2q18 0 28.5 21.5t10.5 59.5q0 32 -13 50.5
t-34 18.5q-44 0 -54 -46h2q20 3 24 -19q5 -8 2 -19q-5 -17 -24 -17q-11 0 -19 8t-8 20q0 43 25.5 68t61.5 25q42 0 66.5 -23.5t24.5 -63.5q0 -33 -17.5 -58t-47.5 -33q35 -4 54 -27t19 -59z" />
    <glyph glyph-name="acute" unicode="&#xb4;" horiz-adv-x="328" 
d="M175 566l-27 -24l-15 10q2 5 7.5 18.5t9.5 21.5l27 66q27 55 58 55q13 0 23 -9.5t10 -20.5q0 -23 -32 -58q-19 -21 -28 -29q-12 -12 -33 -30z" />
    <glyph glyph-name="mu" unicode="&#xb5;" horiz-adv-x="542" 
d="M522 520q0 -93 -56 -152q-55 -58 -141 -58h-112v-78h144v-39h-144v-110q0 -33 8 -44t29 -11h38v-28h-259v28h39q21 0 29 11t8 44v110h-84v39h84v78h-84v40h84v288q0 33 -8 44.5t-29 11.5h-39v28h296q87 0 142 -55t55 -147zM305 694h-59q-18 0 -25.5 -12t-7.5 -44v-288h92
q48 0 78 49t30 121t-30 123t-78 51z" />
    <glyph glyph-name="paragraph" unicode="&#xb6;" horiz-adv-x="465" 
d="M455 722v-28h-51q-21 0 -29 -11.5t-8 -44.5v-638h-37v693h-94v-693h-38v340q-70 3 -114 51.5t-44 138.5q0 53 15.5 92t41.5 60t54.5 30.5t58.5 9.5h245z" />
    <glyph glyph-name="middot" unicode="&#xb7;" horiz-adv-x="197" 
d="M98 331q21 0 36 -17t15 -41t-15 -40.5t-36 -16.5q-20 0 -35 16.5t-15 40.5t15 41t35 17z" />
    <glyph glyph-name="cedilla" unicode="&#xb8;" horiz-adv-x="291" 
d="M95 -155v20q22 -5 32 -5q22 0 31 12.5t9 25.5q0 33 -53 33l16 69h30l-10 -47q26 -1 45 -16.5t19 -40.5q0 -27 -18 -45.5t-47 -18.5q-24 0 -54 13z" />
    <glyph glyph-name="onesuperior" unicode="&#xb9;" horiz-adv-x="280" 
d="M153 690h16v-292q0 -22 4.5 -29.5t17.5 -7.5h37v-22h-172v22h36q13 0 18 7t5 30v178q0 36 -13 36q-3 0 -11 -2l-35 -9v22q56 17 73 29q16 12 24 38z" />
    <glyph glyph-name="ordmasculine" unicode="&#xba;" horiz-adv-x="365" 
d="M255 508q0 160 -72 160q-73 0 -73 -160t73 -160q34 0 53 41.5t19 118.5zM183 691q65 0 103.5 -51t38.5 -132t-38.5 -131.5t-103.5 -50.5t-104 50.5t-39 131.5q0 79 38 131q39 52 105 52z" />
    <glyph glyph-name="guillemotright" unicode="&#xbb;" horiz-adv-x="426" 
d="M30 473h31l161 -223l-161 -223h-31l110 223zM198 473h31l161 -223l-161 -223h-31l110 223z" />
    <glyph glyph-name="onequarter" unicode="&#xbc;" horiz-adv-x="595" 
d="M153 690h16v-292q0 -22 4.5 -29.5t17.5 -7.5h37v-22h-172v22h36q13 0 18 7t5 30v178q0 36 -13 36q-3 0 -11 -2l-35 -9v22q56 17 73 29q16 12 24 38zM519 677l-398 -677h-45l398 677h45zM471 350h19v-234h50v-27h-50v-43q0 -15 4 -20.5t14 -5.5h29v-20h-149v20h31
q17 0 17 26v43h-119v27zM436 116v166l-98 -166h98z" />
    <glyph glyph-name="onehalf" unicode="&#xbd;" horiz-adv-x="596" 
d="M377 261q8 5 16 2q17 -8 17 -28q0 -13 -8.5 -22.5t-19.5 -9.5q-14 0 -23 14.5t-9 33.5q0 43 29.5 71.5t67.5 28.5q37 0 64 -28t27 -69q0 -51 -23 -86q-22 -33 -104 -111q-11 -8 -11 -11t43 -3h64q13 0 18 11q5 12 14 66h13l-7 -120h-198v15l91 114q44 59 44 125
q0 34 -14.5 53.5t-37.5 19.5q-45 0 -58 -55q2 -8 5 -11zM519 677l-398 -677h-45l398 677h45zM153 690h16v-292q0 -22 4.5 -29.5t17.5 -7.5h37v-22h-172v22h36q13 0 18 7t5 30v178q0 36 -13 36q-3 0 -11 -2l-35 -9v22q56 17 73 29q16 12 24 38z" />
    <glyph glyph-name="threequarters" unicode="&#xbe;" horiz-adv-x="601" 
d="M469 350h19v-234h50v-27h-50v-43q0 -26 18 -26h28v-20h-148v20h31q18 0 18 26v43h-120v27zM435 116v166l-99 -166h99zM239 427q0 -45 -27.5 -71t-75.5 -26q-37 0 -63 22.5t-26 67.5q0 18 13.5 26t27 0t13.5 -26q0 -22 -16 -26q-7 -3 -13 -1q12 -44 55 -44q58 0 58 82
q0 72 -47 72q-2 0 -14 -1.5t-16 -1.5q-8 0 -8 12q0 13 8 13q2 0 15 -2t15 -2q18 0 28.5 21.5t10.5 59.5q0 32 -13 50.5t-34 18.5q-44 0 -54 -46h2q20 3 24 -19q5 -8 2 -19q-5 -17 -24 -17q-11 0 -19 8t-8 20q0 43 25.5 68t61.5 25q42 0 66.5 -23.5t24.5 -63.5
q0 -33 -17.5 -58t-47.5 -33q35 -4 54 -27t19 -59zM527 677l-398 -677h-45l398 677h45z" />
    <glyph glyph-name="questiondown" unicode="&#xbf;" horiz-adv-x="413" 
d="M32 160q0 95 55 145q4 4 23 20.5t26 23.5t22.5 25t23 33.5t15.5 39t11 50.5h28q0 -92 -38 -157q-3 -5 -22 -36t-25 -44.5t-14 -42t-8 -57.5q0 -63 29 -102.5t74 -39.5q38 0 70 28.5t39 70.5q-8 -4 -22 -4q-20 0 -31 13.5t-11 34.5q0 23 13.5 38.5t33.5 15.5q21 0 35 -17
t14 -44q0 -66 -43 -115q-42 -49 -127 -49q-78 0 -125 51q-46 50 -46 119zM257 719q15 -16 15 -40t-15 -41t-36 -17t-36 17q-14 17 -14 41t14 40q15 17 36 17t36 -17z" />
    <glyph glyph-name="Agrave" unicode="&#xc0;" horiz-adv-x="599" 
d="M595 28v-28h-241v28h43q29 0 29 22q0 11 -8 33l-42 149h-218l-39 -133q-8 -27 -8 -38q0 -33 36 -33h33v-28h-176v28h10q51 0 72 71l193 637h48l199 -653q16 -55 57 -55h12zM364 266l-99 344l-98 -344h197zM367 816l-16 -10q-118 97 -119 137q0 11 8.5 20t20.5 11
q29 2 41 -18q6 -9 65 -140z" />
    <glyph glyph-name="Aacute" unicode="&#xc1;" horiz-adv-x="599" 
d="M595 28v-28h-241v28h43q29 0 29 22q0 11 -8 33l-42 149h-218l-39 -133q-8 -27 -8 -38q0 -33 36 -33h33v-28h-176v28h10q51 0 72 71l193 637h48l199 -653q16 -55 57 -55h12zM364 266l-99 344l-98 -344h197zM274 830l-27 -24l-15 10q2 5 7.5 18.5t9.5 21.5l27 66
q28 55 58 55q13 0 23 -9.5t10 -20.5q0 -23 -32 -58q-19 -21 -28 -29q-12 -12 -33 -30z" />
    <glyph glyph-name="Acircumflex" unicode="&#xc2;" horiz-adv-x="599" 
d="M595 28v-28h-241v28h43q29 0 29 22q0 11 -8 33l-42 149h-218l-39 -133q-8 -27 -8 -38q0 -33 36 -33h33v-28h-176v28h10q51 0 72 71l193 637h48l199 -653q16 -55 57 -55h12zM364 266l-99 344l-98 -344h197zM342 975l93 -153h-25l-101 105l-101 -105h-25l93 153h66z" />
    <glyph glyph-name="Atilde" unicode="&#xc3;" horiz-adv-x="599" 
d="M595 28v-28h-241v28h43q29 0 29 22q0 11 -8 33l-42 149h-218l-39 -133q-8 -27 -8 -38q0 -33 36 -33h33v-28h-176v28h10q51 0 72 71l193 637h48l199 -653q16 -55 57 -55h12zM364 266l-99 344l-98 -344h197zM250 892q-32 0 -59 -50l-27 19q19 48 38.5 68.5t48.5 20.5
q27 0 55 -25t42 -25q32 0 59 50l28 -19q-19 -48 -38.5 -69t-48.5 -21q-28 0 -57 25q-29 26 -41 26z" />
    <glyph glyph-name="Adieresis" unicode="&#xc4;" horiz-adv-x="599" 
d="M595 28v-28h-241v28h43q29 0 29 22q0 11 -8 33l-42 149h-218l-39 -133q-8 -27 -8 -38q0 -33 36 -33h33v-28h-176v28h10q51 0 72 71l193 637h48l199 -653q16 -55 57 -55h12zM364 266l-99 344l-98 -344h197zM337 869q0 20 12 34.5t29 14.5q18 0 30.5 -14.5t12.5 -34.5
t-12.5 -34t-30.5 -14q-17 0 -29 14.5t-12 33.5zM190 835q-12 14 -12 34t12 34q13 15 30 15t29 -15q13 -14 13 -34t-13 -34q-12 -14 -29 -14t-30 14z" />
    <glyph glyph-name="Aring" unicode="&#xc5;" horiz-adv-x="599" 
d="M595 28v-28h-241v28h43q29 0 29 22q0 11 -8 33l-42 149h-218l-39 -133q-8 -27 -8 -38q0 -33 36 -33h33v-28h-176v28h10q51 0 72 71l193 637h48l199 -653q16 -55 57 -55h12zM364 266l-99 344l-98 -344h197zM272 887q0 -13 8 -23.5t19 -10.5q17 0 24 16.5t0 33.5t-24 17
q-11 0 -19 -9.5t-8 -23.5zM257 838q-16 20 -16 49t16 48q17 20 42 20t41 -20q17 -19 17 -48t-17 -49q-16 -19 -41 -19t-42 19z" />
    <glyph glyph-name="AE" unicode="&#xc6;" horiz-adv-x="834" 
d="M779 269h25l-15 -269h-469v28h36q39 0 39 55v184h-199l-81 -168q-17 -31 -17 -46q0 -25 36 -25h31v-28h-176v28h12q24 0 42.5 16t38.5 55l280 543q11 19 11 33q0 19 -21 19h-32v28h451l12 -238h-26q-18 150 -46 183q-14 18 -26 22.5t-38 4.5h-112q-19 0 -25.5 -10.5
t-6.5 -45.5v-249h74q38 0 53 28q15 27 17 120h25v-325h-25q-2 92 -17 119q-15 29 -53 29h-74v-277q0 -32 10 -43.5t32 -11.5h111q26 0 36.5 2.5t24.5 13.5q20 17 34.5 68t27.5 157zM395 300v343l-177 -343h177z" />
    <glyph glyph-name="Ccedilla" unicode="&#xc7;" horiz-adv-x="544" 
d="M226 -159v21q18 -6 32 -6q40 0 40 39q0 32 -53 32l14 62q-98 15 -163 114q-63 99 -63 249q0 164 71 274q72 110 192 110q41 0 80 -24.5t67 -67.5l19 91h23l13 -279h-26q-19 136 -67 194q-46 57 -100 57q-161 0 -161 -350q0 -155 45.5 -244t121.5 -89q67 0 114.5 60.5
t63.5 165.5h26q-15 -130 -80 -198q-65 -66 -142 -66h-4l-8 -36q27 -2 46 -17.5t19 -39.5q0 -27 -18 -45.5t-48 -18.5q-26 0 -54 12z" />
    <glyph glyph-name="Egrave" unicode="&#xc8;" horiz-adv-x="555" 
d="M491 269h25l-14 -269h-470v28h38q22 0 30 11t8 44v555q0 33 -8.5 44.5t-29.5 11.5h-38v28h451l12 -238h-26q-12 111 -34 163q-7 20 -22 32q-19 15 -53 15h-113q-19 0 -25.5 -10.5t-6.5 -45.5v-249h75q38 0 53 28q14 28 16 120h26v-325h-26q-1 91 -16 119q-15 29 -53 29
h-75v-277q0 -33 8 -44t29 -11h117q26 0 36.5 2.5t24.5 13.5q20 17 32 64t29 161zM345 816l-16 -10q-118 97 -119 137q0 11 8.5 20t20.5 11q29 2 41 -18q6 -9 65 -140z" />
    <glyph glyph-name="Eacute" unicode="&#xc9;" horiz-adv-x="555" 
d="M491 269h25l-14 -269h-470v28h38q22 0 30 11t8 44v555q0 33 -8.5 44.5t-29.5 11.5h-38v28h451l12 -238h-26q-12 111 -34 163q-7 20 -22 32q-19 15 -53 15h-113q-19 0 -25.5 -10.5t-6.5 -45.5v-249h75q38 0 53 28q14 28 16 120h26v-325h-26q-1 91 -16 119q-15 29 -53 29
h-75v-277q0 -33 8 -44t29 -11h117q26 0 36.5 2.5t24.5 13.5q20 17 32 64t29 161zM252 830l-27 -24l-15 10q2 5 7.5 18.5t9.5 21.5l27 66q28 55 58 55q13 0 23 -9.5t10 -20.5q0 -23 -32 -58q-19 -21 -28 -29q-12 -12 -33 -30z" />
    <glyph glyph-name="Ecircumflex" unicode="&#xca;" horiz-adv-x="555" 
d="M491 269h25l-14 -269h-470v28h38q22 0 30 11t8 44v555q0 33 -8.5 44.5t-29.5 11.5h-38v28h451l12 -238h-26q-12 111 -34 163q-7 20 -22 32q-19 15 -53 15h-113q-19 0 -25.5 -10.5t-6.5 -45.5v-249h75q38 0 53 28q14 28 16 120h26v-325h-26q-1 91 -16 119q-15 29 -53 29
h-75v-277q0 -33 8 -44t29 -11h117q26 0 36.5 2.5t24.5 13.5q20 17 32 64t29 161zM310 975l93 -153h-25l-101 105l-101 -105h-25l93 153h66z" />
    <glyph glyph-name="Edieresis" unicode="&#xcb;" horiz-adv-x="555" 
d="M491 269h25l-14 -269h-470v28h38q22 0 30 11t8 44v555q0 33 -8.5 44.5t-29.5 11.5h-38v28h451l12 -238h-26q-12 111 -34 163q-7 20 -22 32q-19 15 -53 15h-113q-19 0 -25.5 -10.5t-6.5 -45.5v-249h75q38 0 53 28q14 28 16 120h26v-325h-26q-1 91 -16 119q-15 29 -53 29
h-75v-277q0 -33 8 -44t29 -11h117q26 0 36.5 2.5t24.5 13.5q20 17 32 64t29 161zM315 869q0 20 12 34.5t29 14.5q18 0 30.5 -14.5t12.5 -34.5t-12.5 -34t-30.5 -14q-17 0 -29 14.5t-12 33.5zM168 835q-12 14 -12 34t12 34q13 15 30 15t29 -15q13 -14 13 -34t-13 -34
q-12 -14 -29 -14t-30 14z" />
    <glyph glyph-name="Igrave" unicode="&#xcc;" horiz-adv-x="323" 
d="M215 638v-555q0 -33 8 -44t29 -11h39v-28h-259v28h38q22 0 30 11t8 44v555q0 33 -8.5 44.5t-29.5 11.5h-38v28h259v-28h-39q-21 0 -29 -11.5t-8 -44.5zM229 816l-16 -10q-118 97 -119 137q0 11 8.5 20t20.5 11q29 2 41 -18q6 -9 65 -140z" />
    <glyph glyph-name="Iacute" unicode="&#xcd;" horiz-adv-x="323" 
d="M215 638v-555q0 -33 8 -44t29 -11h39v-28h-259v28h38q22 0 30 11t8 44v555q0 33 -8.5 44.5t-29.5 11.5h-38v28h259v-28h-39q-21 0 -29 -11.5t-8 -44.5zM136 830l-27 -24l-15 10q2 5 7.5 18.5t9.5 21.5l27 66q28 55 58 55q13 0 23 -9.5t10 -20.5q0 -23 -32 -58
q-19 -21 -28 -29q-12 -12 -33 -30z" />
    <glyph glyph-name="Icircumflex" unicode="&#xce;" horiz-adv-x="323" 
d="M215 638v-555q0 -33 8 -44t29 -11h39v-28h-259v28h38q22 0 30 11t8 44v555q0 33 -8.5 44.5t-29.5 11.5h-38v28h259v-28h-39q-21 0 -29 -11.5t-8 -44.5zM195 975l93 -153h-25l-101 105l-101 -105h-25l93 153h66z" />
    <glyph glyph-name="Idieresis" unicode="&#xcf;" horiz-adv-x="323" 
d="M215 638v-555q0 -33 8 -44t29 -11h39v-28h-259v28h38q22 0 30 11t8 44v555q0 33 -8.5 44.5t-29.5 11.5h-38v28h259v-28h-39q-21 0 -29 -11.5t-8 -44.5zM199 869q0 20 12 34.5t29 14.5q18 0 30.5 -14.5t12.5 -34.5t-12.5 -34t-30.5 -14q-17 0 -29 14.5t-12 33.5zM52 835
q-12 14 -12 34t12 34q13 15 30 15t29 -15q13 -14 13 -34t-13 -34q-12 -14 -29 -14t-30 14z" />
    <glyph glyph-name="Eth" unicode="&#xd0;" horiz-adv-x="624" 
d="M32 694v28h301q123 0 190 -105q68 -104 68 -256q0 -154 -69 -257q-69 -104 -191 -104h-299v28h38q22 0 30 11t8 44v274h-77v40h77v241q0 33 -8.5 44.5t-29.5 11.5h-38zM328 397v-40h-113v-274q0 -33 8 -44t29 -11h53q85 0 130 92q45 93 45 241q0 147 -44 240t-129 93h-60
q-19 0 -25.5 -10.5t-6.5 -45.5v-241h113z" />
    <glyph glyph-name="Ntilde" unicode="&#xd1;" horiz-adv-x="625" 
d="M532 628v-628h-30l-359 605h-4v-512q0 -65 41 -65h35v-28h-186v28h34q42 0 42 65v545q0 33 -8 44.5t-29 11.5h-39v28h160l306 -539h4v445q0 66 -42 66h-34v28h185v-28h-34q-42 0 -42 -66zM263 892q-32 0 -59 -50l-27 19q19 48 38.5 68.5t48.5 20.5q27 0 55 -25t42 -25
q32 0 59 50l28 -19q-19 -48 -38.5 -69t-48.5 -21q-28 0 -57 25q-29 26 -41 26z" />
    <glyph glyph-name="Ograve" unicode="&#xd2;" horiz-adv-x="604" 
d="M571 361q0 -164 -71 -270q-70 -105 -198 -105t-198 105q-71 106 -71 270q0 163 71 269q70 106 198 106t198 -106q71 -106 71 -269zM459 361q0 158 -40 251q-41 95 -117 95q-77 0 -118 -95q-40 -93 -40 -251q0 -160 40 -253q40 -94 118 -94q77 0 117 94q40 93 40 253z
M369 816l-16 -10q-118 97 -119 137q0 11 8.5 20t20.5 11q29 2 41 -18q6 -9 65 -140z" />
    <glyph glyph-name="Oacute" unicode="&#xd3;" horiz-adv-x="604" 
d="M571 361q0 -164 -71 -270q-70 -105 -198 -105t-198 105q-71 106 -71 270q0 163 71 269q70 106 198 106t198 -106q71 -106 71 -269zM459 361q0 158 -40 251q-41 95 -117 95q-77 0 -118 -95q-40 -93 -40 -251q0 -160 40 -253q40 -94 118 -94q77 0 117 94q40 93 40 253z
M276 830l-27 -24l-15 10q2 5 7.5 18.5t9.5 21.5l27 66q28 55 58 55q13 0 23 -9.5t10 -20.5q0 -23 -32 -58q-19 -21 -28 -29q-12 -12 -33 -30z" />
    <glyph glyph-name="Ocircumflex" unicode="&#xd4;" horiz-adv-x="604" 
d="M571 361q0 -164 -71 -270q-70 -105 -198 -105t-198 105q-71 106 -71 270q0 163 71 269q70 106 198 106t198 -106q71 -106 71 -269zM459 361q0 158 -40 251q-41 95 -117 95q-77 0 -118 -95q-40 -93 -40 -251q0 -160 40 -253q40 -94 118 -94q77 0 117 94q40 93 40 253z
M335 975l93 -153h-25l-101 105l-101 -105h-25l93 153h66z" />
    <glyph glyph-name="Otilde" unicode="&#xd5;" horiz-adv-x="604" 
d="M571 361q0 -164 -71 -270q-70 -105 -198 -105t-198 105q-71 106 -71 270q0 163 71 269q70 106 198 106t198 -106q71 -106 71 -269zM459 361q0 158 -40 251q-41 95 -117 95q-77 0 -118 -95q-40 -93 -40 -251q0 -160 40 -253q40 -94 118 -94q77 0 117 94q40 93 40 253z
M252 892q-32 0 -59 -50l-27 19q19 48 38.5 68.5t48.5 20.5q27 0 55 -25t42 -25q32 0 59 50l28 -19q-19 -48 -38.5 -69t-48.5 -21q-28 0 -57 25q-29 26 -41 26z" />
    <glyph glyph-name="Odieresis" unicode="&#xd6;" horiz-adv-x="604" 
d="M571 361q0 -164 -71 -270q-70 -105 -198 -105t-198 105q-71 106 -71 270q0 163 71 269q70 106 198 106t198 -106q71 -106 71 -269zM459 361q0 158 -40 251q-41 95 -117 95q-77 0 -118 -95q-40 -93 -40 -251q0 -160 40 -253q40 -94 118 -94q77 0 117 94q40 93 40 253z
M339 869q0 20 12 34.5t29 14.5q18 0 30.5 -14.5t12.5 -34.5t-12.5 -34t-30.5 -14q-17 0 -29 14.5t-12 33.5zM192 835q-12 14 -12 34t12 34q13 15 30 15t29 -15q13 -14 13 -34t-13 -34q-12 -14 -29 -14t-30 14z" />
    <glyph glyph-name="multiply" unicode="&#xd7;" horiz-adv-x="458" 
d="M61 152l138 178l-138 177l29 33l139 -177l133 172l30 -33l-134 -172l134 -173l-29 -32l-134 172l-139 -177z" />
    <glyph glyph-name="Oslash" unicode="&#xd8;" horiz-adv-x="604" 
d="M129 60l-39 -60h-45l59 91q-71 101 -71 270q0 163 71 269q70 106 198 106q104 0 173 -75l40 61h43l-59 -91q72 -103 72 -270q0 -164 -71 -270q-70 -105 -198 -105q-105 0 -173 74zM144 361q0 -106 17 -182l267 410q-40 118 -126 118q-77 0 -118 -95q-40 -93 -40 -251z
M459 361q0 103 -18 181l-266 -411q42 -117 127 -117q77 0 117 94q40 93 40 253z" />
    <glyph glyph-name="Ugrave" unicode="&#xd9;" horiz-adv-x="624" 
d="M609 722v-28h-35q-41 0 -41 -66v-412q0 -230 -221 -230t-221 230v422q0 33 -8 44.5t-29 11.5h-39v28h259v-28h-39q-21 0 -28.5 -11.5t-7.5 -44.5v-422q0 -191 149 -191q72 0 112 47t40 144v412q0 66 -42 66h-34v28h185zM379 816l-16 -10q-118 97 -119 137q0 11 8.5 20
t20.5 11q29 2 41 -18q6 -9 65 -140z" />
    <glyph glyph-name="Uacute" unicode="&#xda;" horiz-adv-x="624" 
d="M609 722v-28h-35q-41 0 -41 -66v-412q0 -230 -221 -230t-221 230v422q0 33 -8 44.5t-29 11.5h-39v28h259v-28h-39q-21 0 -28.5 -11.5t-7.5 -44.5v-422q0 -191 149 -191q72 0 112 47t40 144v412q0 66 -42 66h-34v28h185zM286 830l-27 -24l-15 10q2 5 7.5 18.5t9.5 21.5
l27 66q28 55 58 55q13 0 23 -9.5t10 -20.5q0 -23 -32 -58q-19 -21 -28 -29q-12 -12 -33 -30z" />
    <glyph glyph-name="Ucircumflex" unicode="&#xdb;" horiz-adv-x="624" 
d="M609 722v-28h-35q-41 0 -41 -66v-412q0 -230 -221 -230t-221 230v422q0 33 -8 44.5t-29 11.5h-39v28h259v-28h-39q-21 0 -28.5 -11.5t-7.5 -44.5v-422q0 -191 149 -191q72 0 112 47t40 144v412q0 66 -42 66h-34v28h185zM345 975l93 -153h-25l-101 105l-101 -105h-25
l93 153h66z" />
    <glyph glyph-name="Udieresis" unicode="&#xdc;" horiz-adv-x="624" 
d="M609 722v-28h-35q-41 0 -41 -66v-412q0 -230 -221 -230t-221 230v422q0 33 -8 44.5t-29 11.5h-39v28h259v-28h-39q-21 0 -28.5 -11.5t-7.5 -44.5v-422q0 -191 149 -191q72 0 112 47t40 144v412q0 66 -42 66h-34v28h185zM349 869q0 20 12 34.5t29 14.5q18 0 30.5 -14.5
t12.5 -34.5t-12.5 -34t-30.5 -14q-17 0 -29 14.5t-12 33.5zM202 835q-12 14 -12 34t12 34q13 15 30 15t29 -15q13 -14 13 -34t-13 -34q-12 -14 -29 -14t-30 14z" />
    <glyph glyph-name="Yacute" unicode="&#xdd;" horiz-adv-x="587" 
d="M583 722v-28h-21q-41 0 -70 -71l-142 -318v-222q0 -33 8 -44t29 -11h39v-28h-259v28h39q21 0 28.5 11t7.5 44v222l-156 333q-27 56 -62 56h-20v28h253v-28h-41q-27 0 -27 -20q0 -5 14 -36l136 -291l120 276q12 24 12 40q0 31 -24 31h-38v28h174zM268 830l-27 -24l-15 10
q2 5 7.5 18.5t9.5 21.5l27 66q27 55 58 55q13 0 23 -9.5t10 -20.5q0 -23 -32 -58q-19 -21 -28 -29q-12 -12 -33 -30z" />
    <glyph glyph-name="Thorn" unicode="&#xde;" horiz-adv-x="544" 
d="M224 201h83q48 0 78 52q31 52 31 125t-31 123q-30 51 -78 51h-57q-20 0 -27.5 -9.5t-7.5 -41.5v-264q0 -29 9 -36zM215 638v-58h112q87 0 142 -55t55 -147q0 -94 -55 -149q-56 -56 -142 -56h-112v-90q0 -33 8 -44t29 -11h39v-28h-259v28h38q22 0 30 15t8 64v531
q0 33 -8.5 44.5t-29.5 11.5h-38v28h259v-28h-39q-21 0 -29 -11.5t-8 -44.5z" />
    <glyph glyph-name="germandbls" unicode="&#xdf;" horiz-adv-x="525" 
d="M250 399v28q49 4 75.5 48t26.5 109q0 61 -23 96t-66 35q-39 0 -63 -41t-24 -127v-479q0 -22 6 -31t23 -9h18v-28h-201v28h34q29 0 29 39v419q0 131 44 194t134 63q89 0 135.5 -43.5t46.5 -115.5q0 -62 -33 -109t-91 -59q176 -29 176 -219q0 -99 -44 -155t-127 -56
q-46 0 -71.5 29.5t-25.5 79.5q0 21 13 36.5t31 15.5t29.5 -14t11.5 -34q0 -15 -9.5 -28t-24.5 -13q-5 0 -18 5q1 -21 16.5 -35t38.5 -14q40 0 64 47.5t24 135.5q0 103 -36.5 152.5t-118.5 49.5z" />
    <glyph glyph-name="agrave" unicode="&#xe0;" horiz-adv-x="444" 
d="M174 29q46 0 72 53t28 156q-85 -4 -120 -44q-33 -38 -33 -88q0 -34 14.5 -55.5t38.5 -21.5zM187 441q-38 0 -68 -17t-42 -44q14 2 16 2q22 0 32 -15t10 -33t-14 -35.5t-34 -17.5t-34.5 17.5t-14.5 39.5q0 64 51 98q53 35 110 35q82 0 125.5 -37t43.5 -109q0 -2 -2 -112
t-2 -119q0 -68 21 -68q6 0 11.5 6.5t10 24t4.5 43.5h22q-1 -112 -80 -112q-66 0 -70 118q-48 -118 -152 -118q-43 0 -71 29t-28 76q0 66 64 114q64 47 179 55v19.5t0.5 17.5t1 14t0.5 9v4q-1 57 -24.5 86t-65.5 29zM289 552l-16 -10q-118 97 -119 137q0 11 8.5 20t20.5 11
q29 2 41 -18q6 -9 65 -140z" />
    <glyph glyph-name="aacute" unicode="&#xe1;" horiz-adv-x="444" 
d="M174 29q46 0 72 53t28 156q-85 -4 -120 -44q-33 -38 -33 -88q0 -34 14.5 -55.5t38.5 -21.5zM187 441q-38 0 -68 -17t-42 -44q14 2 16 2q22 0 32 -15t10 -33t-14 -35.5t-34 -17.5t-34.5 17.5t-14.5 39.5q0 64 51 98q53 35 110 35q82 0 125.5 -37t43.5 -109q0 -2 -2 -112
t-2 -119q0 -68 21 -68q6 0 11.5 6.5t10 24t4.5 43.5h22q-1 -112 -80 -112q-66 0 -70 118q-48 -118 -152 -118q-43 0 -71 29t-28 76q0 66 64 114q64 47 179 55v19.5t0.5 17.5t1 14t0.5 9v4q-1 57 -24.5 86t-65.5 29zM196 566l-27 -24l-15 10q2 5 7.5 18.5t9.5 21.5l27 66
q28 55 58 55q13 0 23 -9.5t10 -20.5q0 -23 -32 -58q-19 -21 -28 -29q-12 -12 -33 -30z" />
    <glyph glyph-name="acircumflex" unicode="&#xe2;" horiz-adv-x="444" 
d="M174 29q46 0 72 53t28 156q-85 -4 -120 -44q-33 -38 -33 -88q0 -34 14.5 -55.5t38.5 -21.5zM187 441q-38 0 -68 -17t-42 -44q14 2 16 2q22 0 32 -15t10 -33t-14 -35.5t-34 -17.5t-34.5 17.5t-14.5 39.5q0 64 51 98q53 35 110 35q82 0 125.5 -37t43.5 -109q0 -2 -2 -112
t-2 -119q0 -68 21 -68q6 0 11.5 6.5t10 24t4.5 43.5h22q-1 -112 -80 -112q-66 0 -70 118q-48 -118 -152 -118q-43 0 -71 29t-28 76q0 66 64 114q64 47 179 55v19.5t0.5 17.5t1 14t0.5 9v4q-1 57 -24.5 86t-65.5 29zM255 711l93 -153h-25l-101 105l-101 -105h-25l93 153h66z
" />
    <glyph glyph-name="atilde" unicode="&#xe3;" horiz-adv-x="444" 
d="M174 29q46 0 72 53t28 156q-85 -4 -120 -44q-33 -38 -33 -88q0 -34 14.5 -55.5t38.5 -21.5zM187 441q-38 0 -68 -17t-42 -44q14 2 16 2q22 0 32 -15t10 -33t-14 -35.5t-34 -17.5t-34.5 17.5t-14.5 39.5q0 64 51 98q53 35 110 35q82 0 125.5 -37t43.5 -109q0 -2 -2 -112
t-2 -119q0 -68 21 -68q6 0 11.5 6.5t10 24t4.5 43.5h22q-1 -112 -80 -112q-66 0 -70 118q-48 -118 -152 -118q-43 0 -71 29t-28 76q0 66 64 114q64 47 179 55v19.5t0.5 17.5t1 14t0.5 9v4q-1 57 -24.5 86t-65.5 29zM172 628q-32 0 -59 -50l-27 19q19 48 38.5 68.5t48.5 20.5
q27 0 55 -25t42 -25q32 0 59 50l28 -19q-19 -48 -38.5 -69t-48.5 -21q-28 0 -57 25q-29 26 -41 26z" />
    <glyph glyph-name="adieresis" unicode="&#xe4;" horiz-adv-x="444" 
d="M174 29q46 0 72 53t28 156q-85 -4 -120 -44q-33 -38 -33 -88q0 -34 14.5 -55.5t38.5 -21.5zM187 441q-38 0 -68 -17t-42 -44q14 2 16 2q22 0 32 -15t10 -33t-14 -35.5t-34 -17.5t-34.5 17.5t-14.5 39.5q0 64 51 98q53 35 110 35q82 0 125.5 -37t43.5 -109q0 -2 -2 -112
t-2 -119q0 -68 21 -68q6 0 11.5 6.5t10 24t4.5 43.5h22q-1 -112 -80 -112q-66 0 -70 118q-48 -118 -152 -118q-43 0 -71 29t-28 76q0 66 64 114q64 47 179 55v19.5t0.5 17.5t1 14t0.5 9v4q-1 57 -24.5 86t-65.5 29zM259 605q0 20 12 34.5t29 14.5q18 0 30.5 -14.5
t12.5 -34.5t-12.5 -34t-30.5 -14q-17 0 -29 14.5t-12 33.5zM112 571q-12 14 -12 34t12 34q13 15 30 15t29 -15q13 -14 13 -34t-13 -34q-12 -14 -29 -14t-30 14z" />
    <glyph glyph-name="aring" unicode="&#xe5;" horiz-adv-x="444" 
d="M174 29q46 0 72 53t28 156q-85 -4 -120 -44q-33 -38 -33 -88q0 -34 14.5 -55.5t38.5 -21.5zM187 441q-38 0 -68 -17t-42 -44q14 2 16 2q22 0 32 -15t10 -33t-14 -35.5t-34 -17.5t-34.5 17.5t-14.5 39.5q0 64 51 98q53 35 110 35q82 0 125.5 -37t43.5 -109q0 -2 -2 -112
t-2 -119q0 -68 21 -68q6 0 11.5 6.5t10 24t4.5 43.5h22q-1 -112 -80 -112q-66 0 -70 118q-48 -118 -152 -118q-43 0 -71 29t-28 76q0 66 64 114q64 47 179 55v19.5t0.5 17.5t1 14t0.5 9v4q-1 57 -24.5 86t-65.5 29zM195 623q0 -13 8 -23.5t19 -10.5q17 0 24 16.5t0 33.5
t-24 17q-11 0 -19 -9.5t-8 -23.5zM180 574q-16 20 -16 49t16 48q17 20 42 20t41 -20q17 -19 17 -48t-17 -49q-16 -19 -41 -19t-42 19z" />
    <glyph glyph-name="ae" unicode="&#xe6;" horiz-adv-x="653" 
d="M460 443q-87 0 -93 -180h141q23 0 23 29q0 68 -19 109.5t-52 41.5zM174 29q46 0 72 53t28 156q-85 -4 -120 -44q-33 -38 -33 -88q0 -34 14.5 -55.5t38.5 -21.5zM199 471q105 0 128 -99q25 45 63.5 71.5t83.5 26.5q73 0 111 -63.5t38 -173.5h-256v-17q0 -92 28.5 -143.5
t77.5 -51.5q84 0 120 121l23 -10q-17 -66 -63 -106t-94 -40q-55 0 -96 35.5t-64 96.5q-23 -61 -68 -95.5t-100 -34.5q-43 0 -71 29t-28 76q0 66 64 114q64 47 179 55v19.5t0.5 17.5t1 14t0.5 9v4q-1 56 -26 86t-67 30q-37 0 -66 -17t-41 -45q14 2 16 2q22 0 32 -15t10 -33
t-14 -35.5t-34 -17.5t-34.5 17.5t-14.5 39.5q0 64 51 98q53 35 110 35z" />
    <glyph glyph-name="ccedilla" unicode="&#xe7;" horiz-adv-x="389" 
d="M148 -159v21q18 -6 32 -6q20 0 30 11.5t10 27.5q0 32 -54 32l15 63q-68 14 -110 77q-41 65 -41 156q0 101 54 175q56 74 142 74q60 0 97 -32.5t37 -92.5q0 -25 -13.5 -43t-34.5 -18q-25 0 -37.5 16t-12.5 38q0 25 14 34q7 7 14 12q-10 57 -59 57q-48 0 -78.5 -58.5
t-30.5 -156.5q0 -92 30 -147.5t78 -55.5q80 0 113 117l22 -11q-21 -68 -60.5 -106.5t-88.5 -38.5h-5l-8 -36q26 -2 45 -17.5t19 -39.5q0 -27 -18 -45.5t-47 -18.5q-26 0 -54 12z" />
    <glyph glyph-name="egrave" unicode="&#xe8;" horiz-adv-x="409" 
d="M378 233h-256v-17q0 -92 28.5 -143.5t77.5 -51.5q84 0 120 121l23 -10q-17 -66 -63 -106t-94 -40q-86 0 -135 70t-49 173q0 98 50 171q51 72 136 72q79 0 120.5 -64t41.5 -175zM215 443q-42 0 -66 -47.5t-27 -132.5h141q22 0 22 29q0 67 -19 109t-51 42zM272 552l-16 -10
q-118 97 -119 137q0 11 8.5 20t20.5 11q29 2 41 -18q6 -9 65 -140z" />
    <glyph glyph-name="eacute" unicode="&#xe9;" horiz-adv-x="409" 
d="M378 233h-256v-17q0 -92 28.5 -143.5t77.5 -51.5q84 0 120 121l23 -10q-17 -66 -63 -106t-94 -40q-86 0 -135 70t-49 173q0 98 50 171q51 72 136 72q79 0 120.5 -64t41.5 -175zM215 443q-42 0 -66 -47.5t-27 -132.5h141q22 0 22 29q0 67 -19 109t-51 42zM179 566l-27 -24
l-15 10q2 5 7.5 18.5t9.5 21.5l27 66q27 55 58 55q13 0 23 -9.5t10 -20.5q0 -23 -32 -58q-19 -21 -28 -29q-12 -12 -33 -30z" />
    <glyph glyph-name="ecircumflex" unicode="&#xea;" horiz-adv-x="409" 
d="M378 233h-256v-17q0 -92 28.5 -143.5t77.5 -51.5q84 0 120 121l23 -10q-17 -66 -63 -106t-94 -40q-86 0 -135 70t-49 173q0 98 50 171q51 72 136 72q79 0 120.5 -64t41.5 -175zM215 443q-42 0 -66 -47.5t-27 -132.5h141q22 0 22 29q0 67 -19 109t-51 42zM237 711l93 -153
h-25l-101 105l-101 -105h-25l93 153h66z" />
    <glyph glyph-name="edieresis" unicode="&#xeb;" horiz-adv-x="409" 
d="M378 233h-256v-17q0 -92 28.5 -143.5t77.5 -51.5q84 0 120 121l23 -10q-17 -66 -63 -106t-94 -40q-86 0 -135 70t-49 173q0 98 50 171q51 72 136 72q79 0 120.5 -64t41.5 -175zM215 443q-42 0 -66 -47.5t-27 -132.5h141q22 0 22 29q0 67 -19 109t-51 42zM252 605
q0 20 12 34.5t29 14.5q18 0 30.5 -14.5t12.5 -34.5t-12.5 -34t-30.5 -14q-17 0 -29 14.5t-12 33.5zM105 571q-12 14 -12 34t12 34q13 15 30 15t29 -15q13 -14 13 -34t-13 -34q-12 -14 -29 -14t-30 14z" />
    <glyph glyph-name="igrave" unicode="&#xec;" horiz-adv-x="255" 
d="M247 28v-28h-225v28h34q17 0 23 9t6 31v321q0 25 -6.5 33.5t-29.5 8.5h-27v28l154 10v-401q0 -22 6 -31t23 -9h42zM195 552l-16 -10q-118 97 -119 137q0 11 8.5 20t20.5 11q29 2 41 -18q6 -9 65 -140z" />
    <glyph glyph-name="iacute" unicode="&#xed;" horiz-adv-x="255" 
d="M247 28v-28h-225v28h34q17 0 23 9t6 31v321q0 25 -6.5 33.5t-29.5 8.5h-27v28l154 10v-401q0 -22 6 -31t23 -9h42zM102 566l-27 -24l-15 10q2 5 7.5 18.5t9.5 21.5l27 66q28 55 58 55q13 0 23 -9.5t10 -20.5q0 -23 -32 -58q-19 -21 -28 -29q-12 -12 -33 -30z" />
    <glyph glyph-name="icircumflex" unicode="&#xee;" horiz-adv-x="255" 
d="M247 28v-28h-225v28h34q17 0 23 9t6 31v321q0 25 -6.5 33.5t-29.5 8.5h-27v28l154 10v-401q0 -22 6 -31t23 -9h42zM161 711l93 -153h-25l-101 105l-101 -105h-25l93 153h66z" />
    <glyph glyph-name="idieresis" unicode="&#xef;" horiz-adv-x="255" 
d="M146 605q0 20 12 34.5t29 14.5t30 -14.5t13 -34.5q0 -19 -13 -33.5t-30 -14.5t-29 14.5t-12 33.5zM117 605q0 -19 -13 -33.5t-30 -14.5t-29.5 14t-12.5 34t12.5 34.5t29.5 14.5t30 -14.5t13 -34.5zM247 28v-28h-225v28h34q17 0 23 9t6 31v321q0 25 -6.5 33.5t-29.5 8.5
h-27v28l154 10v-401q0 -22 6 -31t23 -9h42z" />
    <glyph glyph-name="eth" unicode="&#xf0;" 
d="M286 779l28 -24l-30 -45q85 -28 130 -128q45 -99 45 -236q0 -77 -11.5 -140t-35 -113.5t-64.5 -78.5t-97 -28q-93 0 -149 68t-56 183q0 91 49 158t137 67q39 0 73.5 -27.5t53.5 -73.5q0 42 -4 74q-13 195 -96 239l-45 -67l-30 24l36 53h-2q-58 0 -98 -36l-15 21
q48 52 113 52q4 0 26 -2zM251 14q50 0 77 65q28 63 28 164q0 79 -31 131q-30 54 -79 54q-47 0 -74 -53t-27 -139q0 -110 29 -166t77 -56z" />
    <glyph glyph-name="ntilde" unicode="&#xf1;" horiz-adv-x="521" 
d="M509 28v-28h-211v28h28q17 0 23 8.5t6 31.5v216q0 76 -15 107t-53 31q-39 0 -75 -54t-36 -125v-175q0 -22 6 -31t23 -9h28v-28h-211v28h34q17 0 23 9t6 31v321q0 25 -6 33.5t-26 8.5h-31v28l145 10l6 -136q18 62 59.5 100.5t92.5 38.5q64 0 92.5 -44t28.5 -132v-228
q0 -22 6 -31t24 -9h33zM211 628q-32 0 -59 -50l-27 19q19 48 38.5 68.5t48.5 20.5q27 0 55 -25t42 -25q32 0 59 50l28 -19q-19 -48 -38.5 -69t-48.5 -21q-28 0 -57 25q-29 26 -41 26z" />
    <glyph glyph-name="ograve" unicode="&#xf2;" horiz-adv-x="439" 
d="M290 69q26 57 26 160q0 104 -26 159q-25 55 -71 55q-47 0 -72 -55q-25 -54 -25 -159q0 -106 25 -160q25 -55 72 -55q46 0 71 55zM219 -14q-85 0 -138 68q-51 69 -51 175q0 107 51 174q53 69 138 69q87 0 138 -68t51 -175t-51 -175t-138 -68zM287 552l-16 -10
q-118 97 -119 137q0 11 8.5 20t20.5 11q29 2 41 -18q6 -9 65 -140z" />
    <glyph glyph-name="oacute" unicode="&#xf3;" horiz-adv-x="439" 
d="M290 69q26 57 26 160q0 104 -26 159q-25 55 -71 55q-47 0 -72 -55q-25 -54 -25 -159q0 -106 25 -160q25 -55 72 -55q46 0 71 55zM219 -14q-85 0 -138 68q-51 69 -51 175q0 107 51 174q53 69 138 69q87 0 138 -68t51 -175t-51 -175t-138 -68zM194 566l-27 -24l-15 10
q2 5 7.5 18.5t9.5 21.5l27 66q28 55 58 55q13 0 23 -9.5t10 -20.5q0 -23 -32 -58q-19 -21 -28 -29q-12 -12 -33 -30z" />
    <glyph glyph-name="ocircumflex" unicode="&#xf4;" horiz-adv-x="439" 
d="M290 69q26 57 26 160q0 104 -26 159q-25 55 -71 55q-47 0 -72 -55q-25 -54 -25 -159q0 -106 25 -160q25 -55 72 -55q46 0 71 55zM219 -14q-85 0 -138 68q-51 69 -51 175q0 107 51 174q53 69 138 69q87 0 138 -68t51 -175t-51 -175t-138 -68zM252 711l93 -153h-25
l-101 105l-101 -105h-25l93 153h66z" />
    <glyph glyph-name="otilde" unicode="&#xf5;" horiz-adv-x="439" 
d="M290 69q26 57 26 160q0 104 -26 159q-25 55 -71 55q-47 0 -72 -55q-25 -54 -25 -159q0 -106 25 -160q25 -55 72 -55q46 0 71 55zM219 -14q-85 0 -138 68q-51 69 -51 175q0 107 51 174q53 69 138 69q87 0 138 -68t51 -175t-51 -175t-138 -68zM170 628q-32 0 -59 -50
l-27 19q19 48 38.5 68.5t48.5 20.5q27 0 55 -25t42 -25q32 0 59 50l28 -19q-19 -48 -38.5 -69t-48.5 -21q-28 0 -57 25q-29 26 -41 26z" />
    <glyph glyph-name="odieresis" unicode="&#xf6;" horiz-adv-x="439" 
d="M290 69q26 57 26 160q0 104 -26 159q-25 55 -71 55q-47 0 -72 -55q-25 -54 -25 -159q0 -106 25 -160q25 -55 72 -55q46 0 71 55zM219 -14q-85 0 -138 68q-51 69 -51 175q0 107 51 174q53 69 138 69q87 0 138 -68t51 -175t-51 -175t-138 -68zM257 605q0 20 12 34.5
t29 14.5q18 0 30.5 -14.5t12.5 -34.5t-12.5 -34t-30.5 -14q-17 0 -29 14.5t-12 33.5zM110 571q-12 14 -12 34t12 34q13 15 30 15t29 -15q13 -14 13 -34t-13 -34q-12 -14 -29 -14t-30 14z" />
    <glyph glyph-name="divide" unicode="&#xf7;" horiz-adv-x="462" 
d="M231 436q-15 0 -25.5 12.5t-10.5 31.5t10.5 31t25.5 12q23 2 32 -20.5t0 -45.5t-32 -21zM231 135q-15 0 -25.5 12t-10.5 31t10.5 31t25.5 12q23 2 32 -20.5t0 -45t-32 -20.5zM406 352v-45h-350v45h350z" />
    <glyph glyph-name="oslash" unicode="&#xf8;" horiz-adv-x="439" 
d="M104 29l-20 -29h-44l39 57q-49 65 -49 172t51 174q53 69 138 69q68 0 115 -44l21 30h44l-40 -58q49 -65 49 -171q0 -107 -51 -175t-138 -68q-68 0 -115 43zM122 229q0 -63 7 -99l168 243q-25 70 -78 70q-46 0 -71.5 -55.5t-25.5 -158.5zM316 229q0 51 -8 97l-167 -242
q25 -70 78 -70q46 0 71.5 55.5t25.5 159.5z" />
    <glyph glyph-name="ugrave" unicode="&#xf9;" horiz-adv-x="507" 
d="M496 28v-28h-145l-6 124q-18 -61 -59.5 -99.5t-92.5 -38.5q-64 0 -92.5 44t-28.5 132v227q0 25 -6.5 33.5t-27.5 8.5h-27v28l151 11v-297q0 -75 15.5 -106.5t53.5 -31.5q39 0 75 54t36 125v175q0 25 -6 33.5t-27 8.5h-27v28l151 11v-402q0 -23 6 -31.5t23 -8.5h34z
M321 552l-16 -10q-118 97 -119 137q0 11 8.5 20t20.5 11q29 2 41 -18q6 -9 65 -140z" />
    <glyph glyph-name="uacute" unicode="&#xfa;" horiz-adv-x="507" 
d="M496 28v-28h-145l-6 124q-18 -61 -59.5 -99.5t-92.5 -38.5q-64 0 -92.5 44t-28.5 132v227q0 25 -6.5 33.5t-27.5 8.5h-27v28l151 11v-297q0 -75 15.5 -106.5t53.5 -31.5q39 0 75 54t36 125v175q0 25 -6 33.5t-27 8.5h-27v28l151 11v-402q0 -23 6 -31.5t23 -8.5h34z
M228 566l-27 -24l-15 10q2 5 7.5 18.5t9.5 21.5l27 66q28 55 58 55q13 0 23 -9.5t10 -20.5q0 -23 -32 -58q-19 -21 -28 -29q-12 -12 -33 -30z" />
    <glyph glyph-name="ucircumflex" unicode="&#xfb;" horiz-adv-x="507" 
d="M496 28v-28h-145l-6 124q-18 -61 -59.5 -99.5t-92.5 -38.5q-64 0 -92.5 44t-28.5 132v227q0 25 -6.5 33.5t-27.5 8.5h-27v28l151 11v-297q0 -75 15.5 -106.5t53.5 -31.5q39 0 75 54t36 125v175q0 25 -6 33.5t-27 8.5h-27v28l151 11v-402q0 -23 6 -31.5t23 -8.5h34z
M286 711l93 -153h-25l-101 105l-101 -105h-25l93 153h66z" />
    <glyph glyph-name="udieresis" unicode="&#xfc;" horiz-adv-x="507" 
d="M496 28v-28h-145l-6 124q-18 -61 -59.5 -99.5t-92.5 -38.5q-64 0 -92.5 44t-28.5 132v227q0 25 -6.5 33.5t-27.5 8.5h-27v28l151 11v-297q0 -75 15.5 -106.5t53.5 -31.5q39 0 75 54t36 125v175q0 25 -6 33.5t-27 8.5h-27v28l151 11v-402q0 -23 6 -31.5t23 -8.5h34z
M291 605q0 20 12 34.5t29 14.5q18 0 30.5 -14.5t12.5 -34.5t-12.5 -34t-30.5 -14q-17 0 -29 14.5t-12 33.5zM144 571q-12 14 -12 34t12 34q13 15 30 15t29 -15q13 -14 13 -34t-13 -34q-12 -14 -29 -14t-30 14z" />
    <glyph glyph-name="yacute" unicode="&#xfd;" horiz-adv-x="460" 
d="M456 458v-28h-14q-21 0 -33.5 -14t-23.5 -48l-117 -368q-23 -71 -39 -107q-17 -41 -45 -67t-62 -26t-53 24.5t-19 65.5q0 19 13.5 33.5t32.5 14.5q17 0 27.5 -13.5t10.5 -31.5q0 -16 -10 -29.5t-27 -13.5q-11 0 -16 5q9 -32 41 -32q35 0 59.5 37t52.5 131l-160 379
q-16 38 -25.5 49t-26.5 11h-18v28h205v-28h-26q-18 0 -18 -12q0 -11 7 -29l106 -267l85 267l5 22q0 19 -20 19h-30v28h138zM204 566l-27 -24l-15 10q2 5 7.5 18.5t9.5 21.5l27 66q27 55 58 55q13 0 23 -9.5t10 -20.5q0 -23 -32 -58q-19 -21 -28 -29q-12 -12 -33 -30z" />
    <glyph glyph-name="thorn" unicode="&#xfe;" horiz-adv-x="478" 
d="M448 229q0 -102 -44 -173q-43 -70 -114 -70q-42 0 -76 34.5t-47 89.5v-230q0 -23 6 -31.5t23 -8.5h42v-28h-226v28h34q18 0 24 9t6 31v776q0 24 -6.5 33t-26.5 9h-31v28l155 10v-391q15 56 48.5 91.5t74.5 35.5q70 0 114 -71t44 -172zM167 229q0 -88 29 -148
q30 -59 65 -59q43 0 69 53.5t26 153.5q0 99 -26 152t-69 53q-35 0 -65 -59q-29 -60 -29 -146z" />
    <glyph glyph-name="ydieresis" unicode="&#xff;" horiz-adv-x="460" 
d="M456 458v-28h-14q-21 0 -33.5 -14t-23.5 -48l-117 -368q-23 -71 -39 -107q-17 -41 -45 -67t-62 -26t-53 24.5t-19 65.5q0 19 13.5 33.5t32.5 14.5q17 0 27.5 -13.5t10.5 -31.5q0 -16 -10 -29.5t-27 -13.5q-11 0 -16 5q9 -32 41 -32q35 0 59.5 37t52.5 131l-160 379
q-16 38 -25.5 49t-26.5 11h-18v28h205v-28h-26q-18 0 -18 -12q0 -11 7 -29l106 -267l85 267l5 22q0 19 -20 19h-30v28h138zM267 605q0 20 12 34.5t29 14.5q18 0 30.5 -14.5t12.5 -34.5t-12.5 -34t-30.5 -14q-17 0 -29 14.5t-12 33.5zM120 571q-12 14 -12 34t12 34
q13 15 30 15t29 -15q13 -14 13 -34t-13 -34q-12 -14 -29 -14t-30 14z" />
    <glyph glyph-name="Amacron" unicode="&#x100;" horiz-adv-x="599" 
d="M595 28v-28h-241v28h43q29 0 29 22q0 11 -8 33l-42 149h-218l-39 -133q-8 -27 -8 -38q0 -33 36 -33h33v-28h-176v28h10q51 0 72 71l193 637h48l199 -653q16 -55 57 -55h12zM364 266l-99 344l-98 -344h197zM420 909v-54h-242v54h242z" />
    <glyph glyph-name="amacron" unicode="&#x101;" horiz-adv-x="444" 
d="M174 29q46 0 72 53t28 156q-85 -4 -120 -44q-33 -38 -33 -88q0 -34 14.5 -55.5t38.5 -21.5zM187 441q-38 0 -68 -17t-42 -44q14 2 16 2q22 0 32 -15t10 -33t-14 -35.5t-34 -17.5t-34.5 17.5t-14.5 39.5q0 64 51 98q53 35 110 35q82 0 125.5 -37t43.5 -109q0 -2 -2 -112
t-2 -119q0 -68 21 -68q6 0 11.5 6.5t10 24t4.5 43.5h22q-1 -112 -80 -112q-66 0 -70 118q-48 -118 -152 -118q-43 0 -71 29t-28 76q0 66 64 114q64 47 179 55v19.5t0.5 17.5t1 14t0.5 9v4q-1 57 -24.5 86t-65.5 29zM343 645v-54h-242v54h242z" />
    <glyph glyph-name="Aogonek" unicode="&#x104;" horiz-adv-x="599" 
d="M560 0h-206v28h43q29 0 29 22q0 11 -8 33l-42 149h-218l-39 -133q-8 -27 -8 -38q0 -33 36 -33h33v-28h-176v28h10q51 0 72 71l193 637h48l199 -653q16 -55 57 -55h12v-28q-20 -18 -32.5 -42t-12.5 -41q0 -16 10 -27t29 -11q20 0 39 13l8 -14q-43 -43 -82 -43
q-28 0 -42 17t-14 43q0 57 62 105zM364 266l-99 344l-98 -344h197z" />
    <glyph glyph-name="aogonek" unicode="&#x105;" horiz-adv-x="444" 
d="M187 441q-38 0 -68 -17t-42 -44q14 2 16 2q22 0 32 -15t10 -33t-14 -35.5t-34 -17.5t-34.5 17.5t-14.5 39.5q0 64 51 98q53 35 110 35q82 0 125.5 -37t43.5 -109q0 -2 -2 -112t-2 -119q0 -68 21 -68q6 0 11.5 6.5t10 24t4.5 43.5h22q-2 -79 -40 -101q-19 -18 -31 -41.5
t-12 -40.5q0 -16 10 -27t29 -11q20 0 39 13l8 -14q-43 -43 -82 -43q-28 0 -42 17t-14 43q0 49 48 94q-58 5 -63 117q-48 -118 -152 -118q-43 0 -71 29t-28 76q0 66 64 114q64 47 179 55v19.5t0.5 17.5t1 14t0.5 9v4q-1 57 -24.5 86t-65.5 29zM174 29q46 0 72 53t28 156
q-85 -4 -120 -44q-33 -38 -33 -88q0 -34 14.5 -55.5t38.5 -21.5z" />
    <glyph glyph-name="Cacute" unicode="&#x106;" horiz-adv-x="544" 
d="M296 736q41 0 80 -24.5t67 -67.5l19 91h23l13 -279h-26q-19 136 -67 194q-46 57 -100 57q-161 0 -161 -350q0 -155 45.5 -244t121.5 -89q67 0 114.5 60.5t63.5 165.5h26q-15 -130 -80 -198q-65 -66 -142 -66q-112 0 -186 101q-74 103 -74 265q0 164 71 274
q72 110 192 110zM246 830l-27 -24l-15 10q2 5 7.5 18.5t9.5 21.5l27 66q27 55 58 55q13 0 23 -9.5t10 -20.5q0 -23 -32 -58q-19 -21 -28 -29q-12 -12 -33 -30z" />
    <glyph glyph-name="cacute" unicode="&#x107;" horiz-adv-x="389" 
d="M343 142l22 -11q-21 -68 -60.5 -106.5t-88.5 -38.5q-82 0 -134 66q-52 67 -52 171q0 101 54 175q56 74 142 74q60 0 97 -32.5t37 -92.5q0 -25 -13.5 -43t-34.5 -18q-25 0 -37.5 16t-12.5 38q0 24 12 37.5t31 13.5q10 0 23 -5q-24 61 -97 61q-48 0 -78.5 -60t-30.5 -159
q0 -92 30 -147.5t78 -55.5q80 0 113 117zM169 566l-27 -24l-15 10q2 5 7.5 18.5t9.5 21.5l27 66q27 55 58 55q13 0 23 -9.5t10 -20.5q0 -23 -32 -58q-19 -21 -28 -29q-12 -12 -33 -30z" />
    <glyph glyph-name="Ccaron" unicode="&#x10c;" horiz-adv-x="544" 
d="M296 736q41 0 80 -24.5t67 -67.5l19 91h23l13 -279h-26q-19 136 -67 194q-46 57 -100 57q-161 0 -161 -350q0 -155 45.5 -244t121.5 -89q67 0 114.5 60.5t63.5 165.5h26q-15 -130 -80 -198q-65 -66 -142 -66q-112 0 -186 101q-74 103 -74 265q0 164 71 274
q72 110 192 110zM239 822l-94 153h26l101 -105l100 105h26l-94 -153h-65z" />
    <glyph glyph-name="ccaron" unicode="&#x10d;" horiz-adv-x="389" 
d="M343 142l22 -11q-21 -68 -60.5 -106.5t-88.5 -38.5q-82 0 -134 66q-52 67 -52 171q0 101 54 175q56 74 142 74q60 0 97 -32.5t37 -92.5q0 -25 -13.5 -43t-34.5 -18q-25 0 -37.5 16t-12.5 38q0 24 12 37.5t31 13.5q10 0 23 -5q-24 61 -97 61q-48 0 -78.5 -60t-30.5 -159
q0 -92 30 -147.5t78 -55.5q80 0 113 117zM162 558l-94 153h26l101 -105l100 105h26l-94 -153h-65z" />
    <glyph glyph-name="Dcaron" unicode="&#x10e;" horiz-adv-x="624" 
d="M32 694v28h291q126 0 197 -105q71 -104 71 -256q3 -150 -71.5 -255.5t-198.5 -105.5h-289v28h38q22 0 30 11t8 44v555q0 33 -8.5 44.5t-29.5 11.5h-38zM297 694h-50q-19 0 -25.5 -10.5t-6.5 -45.5v-555q0 -33 8 -44t29 -11h43q89 0 137 93t48 240q0 146 -47 240
q-47 93 -136 93zM249 822l-94 153h26l101 -105l100 105h26l-94 -153h-65z" />
    <glyph glyph-name="dcaron" unicode="&#x10f;" horiz-adv-x="619" 
d="M457 28v-28h-133l-5 124q-13 -62 -49.5 -100t-85.5 -38q-71 0 -113 70q-41 71 -41 173t41 173q42 70 113 70q45 0 78.5 -31.5t48.5 -89.5v305q0 25 -6 33.5t-27 8.5h-30v28l154 10v-663q0 -28 6 -36.5t24 -8.5h25zM311 229q0 96 -28.5 151t-68.5 55q-44 0 -68 -52.5
t-24 -153.5q0 -102 24 -154t67 -52q38 0 68 54q30 55 30 152zM569 636q0 -49 -24.5 -90t-69.5 -65l-11 16q68 47 68 98q0 12 -3 24q-9 -3 -21 -3q-19 0 -32.5 15.5t-13.5 39.5t15 41t35 17q27 0 42 -27t15 -66z" />
    <glyph glyph-name="Dcroat" unicode="&#x110;" horiz-adv-x="624" 
d="M32 694v28h301q123 0 190 -105q68 -104 68 -256q0 -154 -69 -257q-69 -104 -191 -104h-299v28h38q22 0 30 11t8 44v274h-77v40h77v241q0 33 -8.5 44.5t-29.5 11.5h-38zM328 397v-40h-113v-274q0 -33 8 -44t29 -11h53q85 0 130 92q45 93 45 241q0 147 -44 240t-129 93h-60
q-19 0 -25.5 -10.5t-6.5 -45.5v-241h113z" />
    <glyph glyph-name="dslash" unicode="&#x111;" horiz-adv-x="459" 
d="M457 542h-55v-469q0 -28 6 -36.5t24 -8.5h25v-28h-133l-5 124q-13 -62 -49.5 -100t-85.5 -38q-71 0 -113 70q-41 71 -41 173t41 173q42 70 113 70q45 0 78.5 -31.5t48.5 -89.5v191h-179v34h179v80q0 25 -6 33.5t-27 8.5h-30v28l154 10v-160h55v-34zM311 229
q0 96 -28.5 151t-68.5 55q-44 0 -68 -52.5t-24 -153.5q0 -102 24 -154t67 -52q38 0 68 54q30 55 30 152z" />
    <glyph glyph-name="Emacron" unicode="&#x112;" horiz-adv-x="555" 
d="M491 269h25l-14 -269h-470v28h38q22 0 30 11t8 44v555q0 33 -8.5 44.5t-29.5 11.5h-38v28h451l12 -238h-26q-12 111 -34 163q-7 20 -22 32q-19 15 -53 15h-113q-19 0 -25.5 -10.5t-6.5 -45.5v-249h75q38 0 53 28q14 28 16 120h26v-325h-26q-1 91 -16 119q-15 29 -53 29
h-75v-277q0 -33 8 -44t29 -11h117q26 0 36.5 2.5t24.5 13.5q20 17 32 64t29 161zM398 909v-54h-242v54h242z" />
    <glyph glyph-name="emacron" unicode="&#x113;" horiz-adv-x="409" 
d="M378 233h-256v-17q0 -92 28.5 -143.5t77.5 -51.5q84 0 120 121l23 -10q-17 -66 -63 -106t-94 -40q-86 0 -135 70t-49 173q0 98 50 171q51 72 136 72q79 0 120.5 -64t41.5 -175zM215 443q-42 0 -66 -47.5t-27 -132.5h141q22 0 22 29q0 67 -19 109t-51 42zM325 645v-54
h-242v54h242z" />
    <glyph glyph-name="Edotaccent" unicode="&#x116;" horiz-adv-x="555" 
d="M491 269h25l-14 -269h-470v28h38q22 0 30 11t8 44v555q0 33 -8.5 44.5t-29.5 11.5h-38v28h451l12 -238h-26q-12 111 -34 163q-7 20 -22 32q-19 15 -53 15h-113q-19 0 -25.5 -10.5t-6.5 -45.5v-249h75q38 0 53 28q14 28 16 120h26v-325h-26q-1 91 -16 119q-15 29 -53 29
h-75v-277q0 -33 8 -44t29 -11h117q26 0 36.5 2.5t24.5 13.5q20 17 32 64t29 161zM222 878q0 25 16.5 42.5t38.5 17.5q23 0 39.5 -17.5t16.5 -42.5q0 -24 -16.5 -41.5t-39.5 -17.5q-22 0 -38.5 17.5t-16.5 41.5z" />
    <glyph glyph-name="edotaccent" unicode="&#x117;" horiz-adv-x="409" 
d="M378 233h-256v-17q0 -92 28.5 -143.5t77.5 -51.5q84 0 120 121l23 -10q-17 -66 -63 -106t-94 -40q-86 0 -135 70t-49 173q0 98 50 171q51 72 136 72q79 0 120.5 -64t41.5 -175zM215 443q-42 0 -66 -47.5t-27 -132.5h141q22 0 22 29q0 67 -19 109t-51 42zM149 614
q0 25 16.5 42.5t38.5 17.5q23 0 39.5 -17.5t16.5 -42.5q0 -24 -16.5 -41.5t-39.5 -17.5q-22 0 -38.5 17.5t-16.5 41.5z" />
    <glyph glyph-name="Eogonek" unicode="&#x118;" horiz-adv-x="556" 
d="M466 0h-434v28h38q22 0 30 11t8 44v555q0 33 -8.5 44.5t-29.5 11.5h-38v28h451l12 -238h-26q-12 111 -34 163q-7 20 -22 32q-19 15 -53 15h-113q-19 0 -25.5 -10.5t-6.5 -45.5v-249h75q38 0 53 28q14 28 16 120h26v-325h-26q-1 91 -16 119q-15 29 -53 29h-75v-277
q0 -33 8 -44t29 -11h117q26 0 36.5 2.5t24.5 13.5q20 17 32 64t29 161h25l-14 -269q-45 -42 -45 -82q0 -15 10.5 -27t28.5 -12q19 0 38 13l8 -14q-43 -43 -82 -43q-26 0 -41 19t-15 42q0 56 62 104z" />
    <glyph glyph-name="eogonek" unicode="&#x119;" horiz-adv-x="409" 
d="M378 233h-256v-17q0 -92 28.5 -143.5t77.5 -51.5q84 0 120 121l23 -10q-24 -95 -106 -134q-18 -17 -30 -41t-12 -40t10 -27t29 -11q20 0 39 13l8 -14q-43 -43 -82 -43q-28 0 -42 17t-14 43q0 48 46 91q-89 0 -138 70t-49 173q0 98 50 171q51 72 136 72q79 0 120.5 -64
t41.5 -175zM215 443q-42 0 -66 -47.5t-27 -132.5h141q22 0 22 29q0 67 -19 109t-51 42z" />
    <glyph glyph-name="Ecaron" unicode="&#x11a;" horiz-adv-x="555" 
d="M491 269h25l-14 -269h-470v28h38q22 0 30 11t8 44v555q0 33 -8.5 44.5t-29.5 11.5h-38v28h451l12 -238h-26q-12 111 -34 163q-7 20 -22 32q-19 15 -53 15h-113q-19 0 -25.5 -10.5t-6.5 -45.5v-249h75q38 0 53 28q14 28 16 120h26v-325h-26q-1 91 -16 119q-15 29 -53 29
h-75v-277q0 -33 8 -44t29 -11h117q26 0 36.5 2.5t24.5 13.5q20 17 32 64t29 161zM245 822l-94 153h26l101 -105l100 105h26l-94 -153h-65z" />
    <glyph glyph-name="ecaron" unicode="&#x11b;" horiz-adv-x="409" 
d="M378 233h-256v-17q0 -92 28.5 -143.5t77.5 -51.5q84 0 120 121l23 -10q-17 -66 -63 -106t-94 -40q-86 0 -135 70t-49 173q0 98 50 171q51 72 136 72q79 0 120.5 -64t41.5 -175zM215 443q-42 0 -66 -47.5t-27 -132.5h141q22 0 22 29q0 67 -19 109t-51 42zM172 558l-94 153
h26l101 -105l100 105h26l-94 -153h-65z" />
    <glyph glyph-name="Gcommaaccent" unicode="&#x122;" horiz-adv-x="597" 
d="M581 329v-28h-31q-19 0 -26 -11t-7 -45v-262h-25l-35 135q-26 -59 -71.5 -95.5t-92.5 -36.5q-112 0 -186 101q-74 103 -74 265q0 164 71 274q72 110 192 110q42 0 81 -24t66 -68l19 91h23l13 -279h-26q-19 136 -67 194q-46 57 -100 57q-161 0 -161 -350q0 -157 44.5 -245
t122.5 -88q47 0 72 48q26 49 26 110v63q0 35 -6.5 45.5t-25.5 10.5h-48v28h252zM352 -146q0 -49 -24.5 -90t-69.5 -65l-11 16q68 47 68 98q0 12 -3 24q-9 -3 -21 -3q-19 0 -32.5 15.5t-13.5 39.5t15 41t35 17q27 0 42 -27t15 -66z" />
    <glyph glyph-name="gcommaaccent" unicode="&#x123;" horiz-adv-x="445" 
d="M361 315q0 -71 -42 -114t-120 -43q-50 0 -81.5 -13.5t-31.5 -35.5q0 -34 83 -34q6 0 52 2t53 2q129 0 129 -115q0 -66 -55 -114q-53 -49 -152 -49q-83 0 -130.5 30t-47.5 83q0 30 21 53t58 35q-60 20 -60 77q0 34 20.5 59.5t58.5 34.5q-38 17 -58 54.5t-20 87.5
q0 70 42 113.5t119 43.5q85 0 129 -54q10 27 29.5 44.5t39.5 17.5q18 0 31 -11t13 -30q0 -18 -9.5 -29.5t-22.5 -11.5q-11 0 -20 8t-9 20q0 10 6.5 18.5t19.5 9.5q-4 4 -13 4q-15 0 -32 -23q-17 -24 -20 -37q20 -38 20 -83zM276 315q0 57 -19.5 92.5t-57.5 35.5
q-37 0 -56.5 -35t-19.5 -93t19.5 -93.5t56.5 -35.5q38 0 57.5 35t19.5 94zM347 -70q0 61 -105 61q-5 0 -21 -0.5t-20 -0.5q-130 0 -130 -74q0 -40 31 -63.5t95 -23.5q65 0 107.5 27t42.5 74zM139 608q0 49 24.5 90t69.5 65l11 -16q-68 -47 -68 -98q0 -12 3 -24q9 3 21 3
q19 0 32.5 -15.5t13.5 -39.5t-15 -41t-35 -17q-27 0 -42 27t-15 66z" />
    <glyph glyph-name="Imacron" unicode="&#x12a;" horiz-adv-x="323" 
d="M215 638v-555q0 -33 8 -44t29 -11h39v-28h-259v28h38q22 0 30 11t8 44v555q0 33 -8.5 44.5t-29.5 11.5h-38v28h259v-28h-39q-21 0 -29 -11.5t-8 -44.5zM283 909v-54h-242v54h242z" />
    <glyph glyph-name="imacron" unicode="&#x12b;" horiz-adv-x="255" 
d="M247 28v-28h-225v28h34q17 0 23 9t6 31v321q0 25 -6.5 33.5t-29.5 8.5h-27v28l154 10v-401q0 -22 6 -31t23 -9h42zM229 645v-54h-212v54h212z" />
    <glyph glyph-name="Iogonek" unicode="&#x12e;" horiz-adv-x="323" 
d="M256 0h-224v28h38q22 0 30 11t8 44v555q0 33 -8.5 44.5t-29.5 11.5h-38v28h259v-28h-39q-21 0 -29 -11.5t-8 -44.5v-555q0 -33 8 -44t29 -11h39v-28q-20 -18 -32.5 -42t-12.5 -41q0 -16 10 -27t29 -11q20 0 39 13l8 -14q-43 -43 -82 -43q-28 0 -42 17t-14 43q0 57 62 105
z" />
    <glyph glyph-name="iogonek" unicode="&#x12f;" horiz-adv-x="258" 
d="M212 0h-190v28h34q17 0 23 9t6 31v321q0 25 -6 33.5t-27 8.5h-30v28l154 10v-401q0 -22 6 -31t23 -9h42v-28q-20 -18 -32.5 -42t-12.5 -41q0 -16 10 -27t29 -11q20 0 39 13l8 -14q-43 -43 -82 -43q-28 0 -42 17t-14 43q0 57 62 105zM184 611q0 -23 -16 -40.5t-38 -17.5
t-38.5 17.5t-16.5 40.5q0 24 16 41t39 17q22 0 38 -17t16 -41z" />
    <glyph glyph-name="dotlessi" unicode="&#x131;" horiz-adv-x="255" 
d="M247 28v-28h-225v28h34q17 0 23 9t6 31v321q0 25 -6.5 33.5t-29.5 8.5h-27v28l154 10v-401q0 -22 6 -31t23 -9h42z" />
    <glyph glyph-name="Kcommaaccent" unicode="&#x136;" horiz-adv-x="636" 
d="M627 28v-28h-251v28h36q22 0 22 12q0 15 -16 43l-136 287l-67 -98v-189q0 -33 8 -44t29 -11h34v-28h-254v28h38q22 0 30 11t8 44v555q0 33 -8.5 44.5t-29.5 11.5h-38v28h259v-28h-39q-21 0 -29 -11.5t-8 -44.5v-325l230 314q20 26 20 44q0 23 -29 23h-35v28h208v-28h-24
q-43 0 -98 -67l-126 -176l183 -368q17 -32 31 -43.5t33 -11.5h19zM371 -146q0 -49 -24.5 -90t-69.5 -65l-11 16q68 47 68 98q0 12 -3 24q-9 -3 -21 -3q-19 0 -32.5 15.5t-13.5 39.5t15 41t35 17q27 0 42 -27t15 -66z" />
    <glyph glyph-name="kcommaaccent" unicode="&#x137;" horiz-adv-x="481" 
d="M475 28v-28h-200v28h28q16 0 16 10q0 6 -10 25l-99 176l-48 -51v-120q0 -22 6 -31t24 -9h28v-28h-212v28h34q16 0 22.5 8.5t6.5 31.5v588q0 30 -10 36t-53 6v28l154 10v-502l116 128q34 37 34 55q0 13 -20 13h-42v28h195v-28h-25q-18 0 -48 -21q-5 -3 -23 -21l-24 -27
l-58 -65l140 -238q17 -30 50 -30h18zM294 -146q0 -49 -24.5 -90t-69.5 -65l-11 16q68 47 68 98q0 12 -3 24q-9 -3 -21 -3q-19 0 -32.5 15.5t-13.5 39.5t15 41t35 17q27 0 42 -27t15 -66z" />
    <glyph glyph-name="Lacute" unicode="&#x139;" horiz-adv-x="524" 
d="M479 279h26l-16 -279h-462v28h38q21 0 29 11t8 44v555q0 33 -8 44.5t-29 11.5h-38v28h264v-28h-44q-21 0 -29 -11.5t-8 -44.5v-555q0 -33 8 -44t29 -11h109q33 0 55 19q43 37 68 232zM236 830l-27 -24l-15 10q2 5 7.5 18.5t9.5 21.5l27 66q27 55 58 55q13 0 23 -9.5
t10 -20.5q0 -23 -32 -58q-19 -21 -28 -29q-12 -12 -33 -30z" />
    <glyph glyph-name="lacute" unicode="&#x13a;" horiz-adv-x="246" 
d="M74 545l-3 -3l-15 10l18 42v62q0 25 -7 33.5t-28 8.5h-29v28l154 10v-24q11 -2 19 -10.5t8 -18.5q0 -21 -27 -53v-562q0 -22 6 -31t24 -9h42v-28h-226v28h34q18 0 24 9t6 31v477z" />
    <glyph glyph-name="Lcommaaccent" unicode="&#x13b;" horiz-adv-x="524" 
d="M479 279h26l-16 -279h-462v28h38q21 0 29 11t8 44v555q0 33 -8 44.5t-29 11.5h-38v28h264v-28h-44q-21 0 -29 -11.5t-8 -44.5v-555q0 -33 8 -44t29 -11h109q33 0 55 19q43 37 68 232zM315 -146q0 -49 -24.5 -90t-69.5 -65l-11 16q68 47 68 98q0 12 -3 24q-9 -3 -21 -3
q-19 0 -32.5 15.5t-13.5 39.5t15 41t35 17q27 0 42 -27t15 -66z" />
    <glyph glyph-name="lcommaaccent" unicode="&#x13c;" horiz-adv-x="246" 
d="M236 28v-28h-226v28h34q18 0 24 9t6 31v588q0 25 -7 33.5t-28 8.5h-29v28l154 10v-668q0 -22 6 -31t24 -9h42zM176 -146q0 -49 -24.5 -90t-69.5 -65l-11 16q68 47 68 98q0 12 -3 24q-9 -3 -21 -3q-19 0 -32.5 15.5t-13.5 39.5t15 41t35 17q27 0 42 -27t15 -66z" />
    <glyph glyph-name="Lcaron" unicode="&#x13d;" horiz-adv-x="524" 
d="M479 279h26l-16 -279h-462v28h38q21 0 29 11t8 44v555q0 33 -8 44.5t-29 11.5h-38v28h264v-28h-44q-21 0 -29 -11.5t-8 -44.5v-555q0 -33 8 -44t29 -11h109q33 0 55 19q43 37 68 232zM428 629q0 -49 -24.5 -90t-69.5 -65l-11 16q68 47 68 98q0 12 -3 24q-9 -3 -21 -3
q-19 0 -32.5 15.5t-13.5 39.5t15 41t35 17q27 0 42 -27t15 -66z" />
    <glyph glyph-name="lcaron" unicode="&#x13e;" horiz-adv-x="379" 
d="M236 28v-28h-226v28h34q18 0 24 9t6 31v588q0 25 -7 33.5t-28 8.5h-29v28l154 10v-668q0 -22 6 -31t24 -9h42zM329 629q0 -49 -24.5 -90t-69.5 -65l-11 16q68 47 68 98q0 12 -3 24q-9 -3 -21 -3q-19 0 -32.5 15.5t-13.5 39.5t15 41t35 17q27 0 42 -27t15 -66z" />
    <glyph glyph-name="Lslash" unicode="&#x141;" horiz-adv-x="524" 
d="M292 474l17 -46l-99 -53v-292q0 -33 8 -44t29 -11h109q33 0 55 19q43 37 68 232h26l-16 -279h-462v28h38q21 0 29 11t8 44v234l-60 -32l-16 46l76 41v266q0 33 -8 44.5t-29 11.5h-38v28h264v-28h-44q-21 0 -29 -11.5t-8 -44.5v-208z" />
    <glyph glyph-name="lslash" unicode="&#x142;" horiz-adv-x="246" 
d="M218 451l17 -47l-71 -36v-300q0 -22 6 -31t24 -9h42v-28h-226v28h34q18 0 24 9t6 31v254l-53 -26l-17 47l70 35v278q0 25 -7 33.5t-28 8.5h-29v28l154 10v-312z" />
    <glyph glyph-name="Nacute" unicode="&#x143;" horiz-adv-x="625" 
d="M532 628v-628h-30l-359 605h-4v-512q0 -65 41 -65h35v-28h-186v28h34q42 0 42 65v545q0 33 -8 44.5t-29 11.5h-39v28h160l306 -539h4v445q0 66 -42 66h-34v28h185v-28h-34q-42 0 -42 -66zM287 830l-27 -24l-15 10q2 5 7.5 18.5t9.5 21.5l27 66q27 55 58 55q13 0 23 -9.5
t10 -20.5q0 -23 -32 -58q-19 -21 -28 -29q-12 -12 -33 -30z" />
    <glyph glyph-name="nacute" unicode="&#x144;" horiz-adv-x="521" 
d="M509 28v-28h-211v28h28q17 0 23 8.5t6 31.5v216q0 76 -15 107t-53 31q-39 0 -75 -54t-36 -125v-175q0 -22 6 -31t23 -9h28v-28h-211v28h34q17 0 23 9t6 31v321q0 25 -6 33.5t-26 8.5h-31v28l145 10l6 -136q18 62 59.5 100.5t92.5 38.5q64 0 92.5 -44t28.5 -132v-228
q0 -22 6 -31t24 -9h33zM245 566l-27 -24l-15 10q2 5 7.5 18.5t9.5 21.5l27 66q27 55 58 55q13 0 23 -9.5t10 -20.5q0 -23 -32 -58q-19 -21 -28 -29q-12 -12 -33 -30z" />
    <glyph glyph-name="Ncommaaccent" unicode="&#x145;" horiz-adv-x="625" 
d="M532 628v-628h-30l-359 605h-4v-512q0 -65 41 -65h35v-28h-186v28h34q42 0 42 65v545q0 33 -8 44.5t-29 11.5h-39v28h160l306 -539h4v445q0 66 -42 66h-34v28h185v-28h-34q-42 0 -42 -66zM366 -146q0 -49 -24.5 -90t-69.5 -65l-11 16q68 47 68 98q0 12 -3 24
q-9 -3 -21 -3q-19 0 -32.5 15.5t-13.5 39.5t15 41t35 17q27 0 42 -27t15 -66z" />
    <glyph glyph-name="ncommaaccent" unicode="&#x146;" horiz-adv-x="521" 
d="M509 28v-28h-211v28h28q17 0 23 8.5t6 31.5v216q0 76 -15 107t-53 31q-39 0 -75 -54t-36 -125v-175q0 -22 6 -31t23 -9h28v-28h-211v28h34q17 0 23 9t6 31v321q0 25 -6 33.5t-26 8.5h-31v28l145 10l6 -136q18 62 59.5 100.5t92.5 38.5q64 0 92.5 -44t28.5 -132v-228
q0 -22 6 -31t24 -9h33zM314 -146q0 -49 -24.5 -90t-69.5 -65l-11 16q68 47 68 98q0 12 -3 24q-9 -3 -21 -3q-19 0 -32.5 15.5t-13.5 39.5t15 41t35 17q27 0 42 -27t15 -66z" />
    <glyph glyph-name="Ncaron" unicode="&#x147;" horiz-adv-x="625" 
d="M532 628v-628h-30l-359 605h-4v-512q0 -65 41 -65h35v-28h-186v28h34q42 0 42 65v545q0 33 -8 44.5t-29 11.5h-39v28h160l306 -539h4v445q0 66 -42 66h-34v28h185v-28h-34q-42 0 -42 -66zM300 822l-94 153h26l101 -105l100 105h26l-94 -153h-65z" />
    <glyph glyph-name="ncaron" unicode="&#x148;" horiz-adv-x="521" 
d="M509 28v-28h-211v28h28q17 0 23 8.5t6 31.5v216q0 76 -15 107t-53 31q-39 0 -75 -54t-36 -125v-175q0 -22 6 -31t23 -9h28v-28h-211v28h34q17 0 23 9t6 31v321q0 25 -6 33.5t-26 8.5h-31v28l145 10l6 -136q18 62 59.5 100.5t92.5 38.5q64 0 92.5 -44t28.5 -132v-228
q0 -22 6 -31t24 -9h33zM228 558l-94 153h26l101 -105l100 105h26l-94 -153h-65z" />
    <glyph glyph-name="Omacron" unicode="&#x14c;" horiz-adv-x="604" 
d="M571 361q0 -164 -71 -270q-70 -105 -198 -105t-198 105q-71 106 -71 270q0 163 71 269q70 106 198 106t198 -106q71 -106 71 -269zM459 361q0 158 -40 251q-41 95 -117 95q-77 0 -118 -95q-40 -93 -40 -251q0 -160 40 -253q40 -94 118 -94q77 0 117 94q40 93 40 253z
M423 909v-54h-242v54h242z" />
    <glyph glyph-name="omacron" unicode="&#x14d;" horiz-adv-x="439" 
d="M290 69q26 57 26 160q0 104 -26 159q-25 55 -71 55q-47 0 -72 -55q-25 -54 -25 -159q0 -106 25 -160q25 -55 72 -55q46 0 71 55zM219 -14q-85 0 -138 68q-51 69 -51 175q0 107 51 174q53 69 138 69q87 0 138 -68t51 -175t-51 -175t-138 -68zM340 645v-54h-242v54h242z
" />
    <glyph glyph-name="Ohungarumlaut" unicode="&#x150;" horiz-adv-x="604" 
d="M571 361q0 -164 -71 -270q-70 -105 -198 -105t-198 105q-71 106 -71 270q0 163 71 269q70 106 198 106t198 -106q71 -106 71 -269zM459 361q0 158 -40 251q-41 95 -117 95q-77 0 -118 -95q-40 -93 -40 -251q0 -160 40 -253q40 -94 118 -94q77 0 117 94q40 93 40 253z
M365 806l-16 10l17 41l28 65q16 30 28 42.5t30 12.5q13 0 22.5 -9t9.5 -22q0 -18 -38 -62q-34 -38 -81 -78zM215 806l-15 10q2 5 7.5 18.5t9.5 21.5l27 66q28 55 58 55q14 0 23.5 -9t9.5 -22q0 -20 -34 -58q-34 -37 -86 -82z" />
    <glyph glyph-name="ohungarumlaut" unicode="&#x151;" horiz-adv-x="439" 
d="M242 542l-16 10l17 41l28 65q16 30 28 42.5t30 12.5q13 0 22.5 -9t9.5 -22q0 -18 -38 -62q-35 -38 -81 -78zM92 542l-15 10q2 5 7.5 18.5t9.5 21.5l27 66q27 55 58 55q14 0 23.5 -9t9.5 -22q0 -20 -34 -58q-34 -37 -86 -82zM290 69q26 57 26 160q0 104 -26 159
q-25 55 -71 55q-47 0 -72 -55q-25 -54 -25 -159q0 -106 25 -160q25 -55 72 -55q46 0 71 55zM219 -14q-85 0 -138 68q-51 69 -51 175q0 107 51 174q53 69 138 69q87 0 138 -68t51 -175t-51 -175t-138 -68z" />
    <glyph glyph-name="OE" unicode="&#x152;" horiz-adv-x="846" 
d="M392 722h391l12 -238h-26q-12 111 -34 163q-7 20 -22 32q-19 15 -53 15h-113q-19 0 -25.5 -10.5t-6.5 -45.5v-249h75q38 0 53 28q14 28 16 120h26v-325h-26q-1 91 -16 119q-15 29 -53 29h-75v-277q0 -33 8 -44t29 -11h117q26 0 36.5 2.5t24.5 13.5q20 17 32 64t29 161h25
l-14 -269h-409q-36 -14 -91 -14q-128 0 -198 105q-71 106 -71 270q0 163 71 269q70 106 198 106q54 0 90 -14zM408 83v555q0 33 -31.5 51t-74.5 18q-77 0 -118 -95q-40 -93 -40 -251q0 -160 40 -253q40 -94 118 -94q43 0 74.5 18t31.5 51z" />
    <glyph glyph-name="oe" unicode="&#x153;" horiz-adv-x="695" 
d="M664 233h-256q0 -103 28 -157.5t79 -54.5q83 0 120 121l22 -10q-16 -65 -63 -106q-44 -40 -94 -40q-89 0 -138 112q-53 -110 -145 -110q-88 0 -137 67q-50 68 -50 174q0 107 51 174q53 69 138 69q48 0 86.5 -31.5t56.5 -83.5q52 115 140 115q80 0 121 -63.5t41 -175.5z
M290 69q26 57 26 160q0 104 -26 159q-25 55 -71 55q-47 0 -72 -55q-25 -54 -25 -159q0 -106 25 -160q25 -55 72 -55q46 0 71 55zM501 443q-41 0 -65 -47.5t-27 -132.5h140q23 0 23 29q0 68 -19 109.5t-52 41.5z" />
    <glyph glyph-name="Racute" unicode="&#x154;" horiz-adv-x="608" 
d="M558 132h26q-4 -77 -27 -109.5t-68 -32.5q-47 0 -70 37.5t-33 118.5q-11 86 -34 140q-24 62 -79 62h-58v-265q0 -33 8 -44t29 -11h39v-28h-259v28h38q22 0 30 11t8 44v555q0 33 -8.5 44.5t-29.5 11.5h-38v28h295q92 0 146 -48.5t54 -136.5q0 -75 -47.5 -124t-129.5 -56
q103 -24 128 -159q8 -42 14 -92q12 -66 28 -66q32 0 38 92zM311 694h-59q-21 0 -29 -11.5t-8 -44.5v-261h81q58 0 90 42t32 118q0 74 -29 115.5t-78 41.5zM278 830l-27 -24l-15 10q2 5 7.5 18.5t9.5 21.5l27 66q27 55 58 55q13 0 23 -9.5t10 -20.5q0 -23 -32 -58
q-19 -21 -28 -29q-12 -12 -33 -30z" />
    <glyph glyph-name="racute" unicode="&#x155;" horiz-adv-x="376" 
d="M369 391q0 -23 -14 -39.5t-34 -16.5t-32 13.5t-12 36.5q0 17 13 30.5t35 13.5q-9 13 -30 13q-28 2 -56.5 -42t-46 -108t-16.5 -119v-88q0 -39 5.5 -48t31.5 -9h39v-28h-230v28h34q20 0 24.5 9.5t4.5 46.5v289q0 35 -4.5 44.5t-26.5 13.5h-32v28l144 11q1 -45 4 -187
q12 74 47 130t79 56q73 0 73 -78zM163 566l-27 -24l-15 10q2 5 7.5 18.5t9.5 21.5l27 66q27 55 58 55q13 0 23 -9.5t10 -20.5q0 -23 -32 -58q-19 -21 -28 -29q-12 -12 -33 -30z" />
    <glyph glyph-name="Rcommaaccent" unicode="&#x156;" horiz-adv-x="608" 
d="M558 132h26q-4 -77 -27 -109.5t-68 -32.5q-47 0 -70 37.5t-33 118.5q-11 86 -34 140q-24 62 -79 62h-58v-265q0 -33 8 -44t29 -11h39v-28h-259v28h38q22 0 30 11t8 44v555q0 33 -8.5 44.5t-29.5 11.5h-38v28h295q92 0 146 -48.5t54 -136.5q0 -75 -47.5 -124t-129.5 -56
q103 -24 128 -159q8 -42 14 -92q12 -66 28 -66q32 0 38 92zM311 694h-59q-21 0 -29 -11.5t-8 -44.5v-261h81q58 0 90 42t32 118q0 74 -29 115.5t-78 41.5zM357 -146q0 -49 -24.5 -90t-69.5 -65l-11 16q68 47 68 98q0 12 -3 24q-9 -3 -21 -3q-19 0 -32.5 15.5t-13.5 39.5
t15 41t35 17q27 0 42 -27t15 -66z" />
    <glyph glyph-name="rcommaaccent" unicode="&#x157;" horiz-adv-x="376" 
d="M369 391q0 -23 -14 -39.5t-34 -16.5t-32 13.5t-12 36.5q0 17 13 30.5t35 13.5q-9 13 -30 13q-28 2 -56.5 -42t-46 -108t-16.5 -119v-88q0 -39 5.5 -48t31.5 -9h39v-28h-230v28h34q20 0 24.5 9.5t4.5 46.5v289q0 35 -4.5 44.5t-26.5 13.5h-32v28l144 11q1 -45 4 -187
q12 74 47 130t79 56q73 0 73 -78zM241 -146q0 -49 -24.5 -90t-69.5 -65l-11 16q68 47 68 98q0 12 -3 24q-9 -3 -21 -3q-19 0 -32.5 15.5t-13.5 39.5t15 41t35 17q27 0 42 -27t15 -66z" />
    <glyph glyph-name="Rcaron" unicode="&#x158;" horiz-adv-x="608" 
d="M558 132h26q-4 -77 -27 -109.5t-68 -32.5q-47 0 -70 37.5t-33 118.5q-11 86 -34 140q-24 62 -79 62h-58v-265q0 -33 8 -44t29 -11h39v-28h-259v28h38q22 0 30 11t8 44v555q0 33 -8.5 44.5t-29.5 11.5h-38v28h295q92 0 146 -48.5t54 -136.5q0 -75 -47.5 -124t-129.5 -56
q103 -24 128 -159q8 -42 14 -92q12 -66 28 -66q32 0 38 92zM311 694h-59q-21 0 -29 -11.5t-8 -44.5v-261h81q58 0 90 42t32 118q0 74 -29 115.5t-78 41.5zM271 822l-94 153h26l101 -105l100 105h26l-94 -153h-65z" />
    <glyph glyph-name="rcaron" unicode="&#x159;" horiz-adv-x="376" 
d="M369 391q0 -23 -14 -39.5t-34 -16.5t-32 13.5t-12 36.5q0 17 13 30.5t35 13.5q-9 13 -30 13q-28 2 -56.5 -42t-46 -108t-16.5 -119v-88q0 -39 5.5 -48t31.5 -9h39v-28h-230v28h34q20 0 24.5 9.5t4.5 46.5v289q0 35 -4.5 44.5t-26.5 13.5h-32v28l144 11q1 -45 4 -187
q12 74 47 130t79 56q73 0 73 -78zM155 558l-94 153h26l101 -105l100 105h26l-94 -153h-65z" />
    <glyph glyph-name="Sacute" unicode="&#x15a;" horiz-adv-x="499" 
d="M470 201q0 -105 -67 -160t-156 -55q-111 0 -175 102l-18 -101h-21l-15 283h26q18 -141 84 -202q58 -54 120 -54q59 0 96.5 36t37.5 102q0 55 -32 93q-14 17 -37 30q-29 17 -91 40q-75 27 -123 66q-56 48 -56 149q0 99 52 152.5t138 53.5q104 0 161 -89l18 88h21l10 -263
h-26q-18 136 -78 188q-51 47 -106 47q-47 0 -78 -34.5t-31 -96.5q0 -73 52 -109q27 -19 49 -28q28 -12 61 -23q76 -26 124 -66q60 -48 60 -149zM224 830l-27 -24l-15 10q2 5 7.5 18.5t9.5 21.5l27 66q27 55 58 55q13 0 23 -9.5t10 -20.5q0 -23 -32 -58q-19 -21 -28 -29
q-12 -12 -33 -30z" />
    <glyph glyph-name="sacute" unicode="&#x15b;" horiz-adv-x="370" 
d="M181 -14q-32 0 -62.5 16t-49.5 43l-14 -59h-21l-9 188h20q28 -160 137 -160q38 0 61.5 22.5t23.5 65.5q4 33 -26 58q-5 5 -39 18q-23 9 -47 12q-61 16 -89.5 48.5t-28.5 97.5q0 64 38.5 100t100.5 36q66 0 108 -55l12 54h21l9 -168h-19q-16 74 -51.5 109t-78.5 35
q-34 0 -57.5 -23.5t-23.5 -61.5t26.5 -56t89.5 -32q68 -15 100 -45.5t32 -93.5q0 -68 -43.5 -108.5t-119.5 -40.5zM160 566l-27 -24l-15 10q2 5 7.5 18.5t9.5 21.5l27 66q28 55 58 55q13 0 23 -9.5t10 -20.5q0 -23 -32 -58q-19 -21 -28 -29q-12 -12 -33 -30z" />
    <glyph glyph-name="Scaron" unicode="&#x160;" horiz-adv-x="499" 
d="M470 201q0 -105 -67 -160t-156 -55q-111 0 -175 102l-18 -101h-21l-15 283h26q18 -141 84 -202q58 -54 120 -54q59 0 96.5 36t37.5 102q0 55 -32 93q-14 17 -37 30q-29 17 -91 40q-75 27 -123 66q-56 48 -56 149q0 99 52 152.5t138 53.5q104 0 161 -89l18 88h21l10 -263
h-26q-18 136 -78 188q-51 47 -106 47q-47 0 -78 -34.5t-31 -96.5q0 -73 52 -109q27 -19 49 -28q28 -12 61 -23q76 -26 124 -66q60 -48 60 -149zM217 822l-94 153h26l101 -105l100 105h26l-94 -153h-65z" />
    <glyph glyph-name="scaron" unicode="&#x161;" horiz-adv-x="370" 
d="M181 -14q-32 0 -62.5 16t-49.5 43l-14 -59h-21l-9 188h20q28 -160 137 -160q38 0 61.5 22.5t23.5 65.5q4 33 -26 58q-5 5 -39 18q-23 9 -47 12q-61 16 -89.5 48.5t-28.5 97.5q0 64 38.5 100t100.5 36q66 0 108 -55l12 54h21l9 -168h-19q-16 74 -51.5 109t-78.5 35
q-34 0 -57.5 -23.5t-23.5 -61.5t26.5 -56t89.5 -32q68 -15 100 -45.5t32 -93.5q0 -68 -43.5 -108.5t-119.5 -40.5zM152 558l-94 153h26l101 -105l100 105h26l-94 -153h-65z" />
    <glyph glyph-name="Tcaron" unicode="&#x164;" horiz-adv-x="564" 
d="M528 722l16 -258h-25q-15 103 -28 151.5t-28 63t-43 15.5h-54q-19 0 -24.5 -10t-5.5 -46v-555q0 -33 8 -44t29 -11h39v-28h-260v28h39q21 0 29 11t8 44v555q0 36 -5.5 46t-24.5 10h-54q-26 0 -43 -15q-33 -31 -56 -215h-25l16 258h492zM249 822l-94 153h26l101 -105
l100 105h26l-94 -153h-65z" />
    <glyph glyph-name="tcaron" unicode="&#x165;" horiz-adv-x="442" 
d="M275 163h26q-11 -177 -119 -177q-63 0 -86 32t-23 105v301h-60v34h21q52 0 77 49q19 67 27 132h25v-181h117v-34h-117v-299q0 -100 52 -100q24 0 40 37t20 101zM402 546q0 -49 -24.5 -90t-69.5 -65l-11 16q68 47 68 98q0 12 -3 24q-9 -3 -21 -3q-19 0 -32.5 15.5
t-13.5 39.5t15 41t35 17q27 0 42 -27t15 -66z" />
    <glyph glyph-name="Umacron" unicode="&#x16a;" horiz-adv-x="624" 
d="M609 722v-28h-35q-41 0 -41 -66v-412q0 -230 -221 -230t-221 230v422q0 33 -8 44.5t-29 11.5h-39v28h259v-28h-39q-21 0 -28.5 -11.5t-7.5 -44.5v-422q0 -191 149 -191q72 0 112 47t40 144v412q0 66 -42 66h-34v28h185zM433 909v-54h-242v54h242z" />
    <glyph glyph-name="umacron" unicode="&#x16b;" horiz-adv-x="507" 
d="M496 28v-28h-145l-6 124q-18 -61 -59.5 -99.5t-92.5 -38.5q-64 0 -92.5 44t-28.5 132v227q0 25 -6.5 33.5t-27.5 8.5h-27v28l151 11v-297q0 -75 15.5 -106.5t53.5 -31.5q39 0 75 54t36 125v175q0 25 -6 33.5t-27 8.5h-27v28l151 11v-402q0 -23 6 -31.5t23 -8.5h34z
M374 645v-54h-242v54h242z" />
    <glyph glyph-name="Uring" unicode="&#x16e;" horiz-adv-x="624" 
d="M609 722v-28h-35q-41 0 -41 -66v-412q0 -230 -221 -230t-221 230v422q0 33 -8 44.5t-29 11.5h-39v28h259v-28h-39q-21 0 -28.5 -11.5t-7.5 -44.5v-422q0 -191 149 -191q72 0 112 47t40 144v412q0 66 -42 66h-34v28h185zM285 887q0 -13 8 -23.5t19 -10.5q17 0 24 16.5
t0 33.5t-24 17q-11 0 -19 -9.5t-8 -23.5zM270 838q-16 20 -16 49t16 48q17 20 42 20t41 -20q17 -19 17 -48t-17 -49q-16 -19 -41 -19t-42 19z" />
    <glyph glyph-name="uring" unicode="&#x16f;" horiz-adv-x="507" 
d="M496 28v-28h-145l-6 124q-18 -61 -59.5 -99.5t-92.5 -38.5q-64 0 -92.5 44t-28.5 132v227q0 25 -6.5 33.5t-27.5 8.5h-27v28l151 11v-297q0 -75 15.5 -106.5t53.5 -31.5q39 0 75 54t36 125v175q0 25 -6 33.5t-27 8.5h-27v28l151 11v-402q0 -23 6 -31.5t23 -8.5h34z
M226 623q0 -13 8 -23.5t19 -10.5q17 0 24 16.5t0 33.5t-24 17q-11 0 -19 -9.5t-8 -23.5zM211 574q-16 20 -16 49t16 48q17 20 42 20t41 -20q17 -19 17 -48t-17 -49q-16 -19 -41 -19t-42 19z" />
    <glyph glyph-name="Uhungarumlaut" unicode="&#x170;" horiz-adv-x="624" 
d="M609 722v-28h-35q-41 0 -41 -66v-412q0 -230 -221 -230t-221 230v422q0 33 -8 44.5t-29 11.5h-39v28h259v-28h-39q-21 0 -28.5 -11.5t-7.5 -44.5v-422q0 -191 149 -191q72 0 112 47t40 144v412q0 66 -42 66h-34v28h185zM335 806l-16 10l17 41l28 65q16 30 28 42.5
t30 12.5q13 0 22.5 -9t9.5 -22q0 -18 -38 -62q-34 -38 -81 -78zM185 806l-15 10q2 5 7.5 18.5t9.5 21.5l27 66q28 55 58 55q14 0 23.5 -9t9.5 -22q0 -20 -34 -58q-34 -37 -86 -82z" />
    <glyph glyph-name="uhungarumlaut" unicode="&#x171;" horiz-adv-x="507" 
d="M496 28v-28h-145l-6 124q-18 -61 -59.5 -99.5t-92.5 -38.5q-64 0 -92.5 44t-28.5 132v227q0 25 -6.5 33.5t-27.5 8.5h-27v28l151 11v-297q0 -75 15.5 -106.5t53.5 -31.5q39 0 75 54t36 125v175q0 25 -6 33.5t-27 8.5h-27v28l151 11v-402q0 -23 6 -31.5t23 -8.5h34z
M276 542l-16 10l17 41l28 65q16 30 28 42.5t30 12.5q13 0 22.5 -9t9.5 -22q0 -18 -38 -62q-35 -38 -81 -78zM126 542l-15 10q2 5 7.5 18.5t9.5 21.5l27 66q27 55 58 55q14 0 23.5 -9t9.5 -22q0 -20 -34 -58q-34 -37 -86 -82z" />
    <glyph glyph-name="Uogonek" unicode="&#x172;" horiz-adv-x="624" 
d="M609 722v-28h-35q-41 0 -41 -66v-412q0 -174 -129 -216q-19 -18 -31.5 -42t-12.5 -41q0 -16 10 -27t29 -11q20 0 39 13l8 -14q-43 -43 -82 -43q-28 0 -42 17t-14 43q0 49 49 94q-21 -3 -45 -3q-221 0 -221 230v422q0 33 -8 44.5t-29 11.5h-39v28h259v-28h-39
q-21 0 -28.5 -11.5t-7.5 -44.5v-422q0 -191 149 -191q72 0 112 47t40 144v412q0 66 -42 66h-34v28h185z" />
    <glyph glyph-name="uogonek" unicode="&#x173;" horiz-adv-x="507" 
d="M461 0h-110l-6 124q-18 -61 -59.5 -99.5t-92.5 -38.5q-64 0 -92.5 44t-28.5 132v227q0 25 -6.5 33.5t-27.5 8.5h-27v28l151 11v-297q0 -75 15.5 -106.5t53.5 -31.5q39 0 75 54t36 125v175q0 25 -6 33.5t-27 8.5h-27v28l151 11v-402q0 -23 6 -31.5t23 -8.5h34v-28
q-20 -18 -32.5 -42t-12.5 -41q0 -16 10 -27t29 -11q20 0 39 13l8 -14q-43 -43 -82 -43q-28 0 -42 17t-14 43q0 57 62 105z" />
    <glyph glyph-name="Ydieresis" unicode="&#x178;" horiz-adv-x="587" 
d="M583 722v-28h-21q-41 0 -70 -71l-142 -318v-222q0 -33 8 -44t29 -11h39v-28h-259v28h39q21 0 28.5 11t7.5 44v222l-156 333q-27 56 -62 56h-20v28h253v-28h-41q-27 0 -27 -20q0 -5 14 -36l136 -291l120 276q12 24 12 40q0 31 -24 31h-38v28h174zM331 869q0 20 12 34.5
t29 14.5q18 0 30.5 -14.5t12.5 -34.5t-12.5 -34t-30.5 -14q-17 0 -29 14.5t-12 33.5zM184 835q-12 14 -12 34t12 34q13 15 30 15t29 -15q13 -14 13 -34t-13 -34q-12 -14 -29 -14t-30 14z" />
    <glyph glyph-name="Zacute" unicode="&#x179;" horiz-adv-x="517" 
d="M467 273h26l-16 -273h-453v28l338 666h-196q-56 0 -78 -63q-17 -47 -30 -162h-26l17 253h440v-28l-338 -666h202q50 0 73 47q23 49 41 198zM233 830l-27 -24l-15 10q2 5 7.5 18.5t9.5 21.5l27 66q27 55 58 55q13 0 23 -9.5t10 -20.5q0 -23 -32 -58q-19 -21 -28 -29
q-12 -12 -33 -30z" />
    <glyph glyph-name="zacute" unicode="&#x17a;" horiz-adv-x="398" 
d="M351 190h26l-10 -190h-329v28l229 402h-122q-21 0 -29 -2t-17.5 -16.5t-15 -40.5t-14.5 -80h-25l9 167h315v-28l-224 -402h125q25 0 37.5 9.5t23 43.5t21.5 109zM174 566l-27 -24l-15 10q2 5 7.5 18.5t9.5 21.5l27 66q28 55 58 55q13 0 23 -9.5t10 -20.5q0 -23 -32 -58
q-19 -21 -28 -29q-12 -12 -33 -30z" />
    <glyph glyph-name="Zdotaccent" unicode="&#x17b;" horiz-adv-x="517" 
d="M467 273h26l-16 -273h-453v28l338 666h-196q-56 0 -78 -63q-17 -47 -30 -162h-26l17 253h440v-28l-338 -666h202q50 0 73 47q23 49 41 198zM203 878q0 25 16.5 42.5t38.5 17.5q23 0 39.5 -17.5t16.5 -42.5q0 -24 -16.5 -41.5t-39.5 -17.5q-22 0 -38.5 17.5t-16.5 41.5z
" />
    <glyph glyph-name="zdotaccent" unicode="&#x17c;" horiz-adv-x="398" 
d="M351 190h26l-10 -190h-329v28l229 402h-122q-21 0 -29 -2t-17.5 -16.5t-15 -40.5t-14.5 -80h-25l9 167h315v-28l-224 -402h125q25 0 37.5 9.5t23 43.5t21.5 109zM143 614q0 25 16.5 42.5t38.5 17.5q23 0 39.5 -17.5t16.5 -42.5q0 -24 -16.5 -41.5t-39.5 -17.5
q-22 0 -38.5 17.5t-16.5 41.5z" />
    <glyph glyph-name="Zcaron" unicode="&#x17d;" horiz-adv-x="517" 
d="M467 273h26l-16 -273h-453v28l338 666h-196q-56 0 -78 -63q-17 -47 -30 -162h-26l17 253h440v-28l-338 -666h202q50 0 73 47q23 49 41 198zM226 822l-94 153h26l101 -105l100 105h26l-94 -153h-65z" />
    <glyph glyph-name="zcaron" unicode="&#x17e;" horiz-adv-x="398" 
d="M351 190h26l-10 -190h-329v28l229 402h-122q-21 0 -29 -2t-17.5 -16.5t-15 -40.5t-14.5 -80h-25l9 167h315v-28l-224 -402h125q25 0 37.5 9.5t23 43.5t21.5 109zM166 558l-94 153h26l101 -105l100 105h26l-94 -153h-65z" />
    <glyph glyph-name="florin" unicode="&#x192;" horiz-adv-x="335" 
d="M336 583q-40 0 -40 51q0 10 12.5 22.5t26.5 12.5q-17 17 -44 17q-45 0 -59 -96l-20 -132h102l-14 -57h-96l-38 -306q-17 -138 -63.5 -210t-116.5 -72q-38 0 -64 24.5t-26 67.5q0 21 13 35.5t30 14.5q18 0 30.5 -13t12.5 -33q0 -15 -10 -26.5t-24 -11.5q-9 0 -16 4
q3 -17 17 -25.5t31 -8.5q30 0 46 37q17 38 32 150l48 373h-75l10 57h46q27 0 31 37q13 116 52.5 169.5t122.5 53.5q38 0 62 -21t24 -63q0 -21 -12.5 -36t-30.5 -15z" />
    <glyph glyph-name="circumflex" unicode="&#x2c6;" horiz-adv-x="337" 
d="M199 711l93 -153h-25l-101 105l-101 -105h-25l93 153h66z" />
    <glyph glyph-name="caron" unicode="&#x2c7;" horiz-adv-x="341" 
d="M138 558l-94 153h26l101 -105l100 105h26l-94 -153h-65z" />
    <glyph glyph-name="breve" unicode="&#x2d8;" horiz-adv-x="335" 
d="M44 699h25q21 -85 98 -85q79 0 98 85h25q-3 -63 -33.5 -101.5t-89.5 -38.5t-89.5 38.5t-33.5 101.5z" />
    <glyph glyph-name="dotaccent" unicode="&#x2d9;" horiz-adv-x="200" 
d="M44 614q0 25 16.5 42.5t38.5 17.5q23 0 39.5 -17.5t16.5 -42.5q0 -24 -16.5 -41.5t-39.5 -17.5q-22 0 -38.5 17.5t-16.5 41.5z" />
    <glyph glyph-name="ring" unicode="&#x2da;" horiz-adv-x="198" 
d="M68 623q0 -13 8 -23.5t19 -10.5q17 0 24 16.5t0 33.5t-24 17q-11 0 -19 -9.5t-8 -23.5zM53 574q-16 20 -16 49t16 48q17 20 42 20t41 -20q17 -19 17 -48t-17 -49q-16 -19 -41 -19t-42 19z" />
    <glyph glyph-name="ogonek" unicode="&#x2db;" horiz-adv-x="287" 
d="M152 0h35q-20 -18 -32.5 -42t-12.5 -41q0 -16 10 -27t29 -11q20 0 39 13l8 -14q-43 -43 -82 -43q-28 0 -42 17t-14 43q0 57 62 105z" />
    <glyph glyph-name="tilde" unicode="&#x2dc;" horiz-adv-x="353" 
d="M127 628q-32 0 -59 -50l-27 19q19 48 38.5 68.5t48.5 20.5q27 0 55 -25t42 -25q32 0 59 50l28 -19q-19 -48 -38.5 -69t-48.5 -21q-28 0 -57 25q-29 26 -41 26z" />
    <glyph glyph-name="hungarumlaut" unicode="&#x2dd;" horiz-adv-x="393" 
d="M219 542l-16 10l17 41l28 65q16 30 28 42.5t30 12.5q13 0 22.5 -9t9.5 -22q0 -18 -38 -62q-34 -38 -81 -78zM69 542l-15 10q2 5 7.5 18.5t9.5 21.5l27 66q28 55 58 55q14 0 23.5 -9t9.5 -22q0 -20 -34 -58q-34 -37 -86 -82z" />
    <glyph glyph-name="pi" unicode="&#x3c0;" horiz-adv-x="532" 
d="M55 423l9 35h506l-9 -35h-80l-65 -283q-12 -50 -12 -80q0 -28 17 -28q15 0 37 37q24 37 43 89l21 -13q-64 -159 -139 -159q-67 0 -67 69q0 41 18 120l55 248h-159l-93 -423h-93l94 423h-83z" />
    <glyph glyph-name="afii10023" unicode="&#x401;" horiz-adv-x="555" 
d="M360 694h-113q-19 0 -25.5 -10.5t-6.5 -45.5v-249h72q37 0 54 29q16 28 18 119h26v-325h-26q-2 91 -18 119q-17 29 -54 29h-72v-277q0 -33 8 -44t29 -11h117q26 0 36.5 2.5t24.5 13.5q20 17 32 64t29 161h25l-14 -269h-470v28h40q20 0 28 11.5t8 43.5v555q0 33 -8.5 44.5
t-29.5 11.5h-38v28h451l14 -238h-25q-23 152 -49 183q-14 18 -26 22.5t-37 4.5zM319 833q0 21 12.5 35.5t29.5 14.5q18 0 30.5 -14.5t12.5 -35.5q0 -20 -12.5 -33.5t-30.5 -13.5q-17 0 -29.5 14t-12.5 33zM158 833q0 21 12.5 35.5t29.5 14.5q18 0 30.5 -14.5t12.5 -35.5
q0 -20 -12.5 -33.5t-30.5 -13.5q-17 0 -29.5 14t-12.5 33z" />
    <glyph glyph-name="afii10051" unicode="&#x402;" horiz-adv-x="679" 
d="M655 187q0 -95 -38.5 -149t-104.5 -54q-97 0 -97 130h30q1 -45 16 -67.5t38 -22.5q30 0 50 43t20 128q0 73 -30.5 119t-77.5 46q-39 0 -83 -53q-42 -52 -42 -122v-102q0 -33 8 -44t29 -11h29v-28h-250v28h39q21 0 29 11t8 44v555q0 36 -5.5 46t-24.5 10h-54
q-26 0 -43 -15q-33 -31 -56 -215h-25l16 258h492l16 -258h-25q-15 103 -28 151.5t-28 63t-43 15.5h-54q-19 0 -24.5 -10t-5.5 -46v-354q16 51 64 91q46 40 99 40q71 0 113 -63q43 -62 43 -165z" />
    <glyph glyph-name="afii10052" unicode="&#x403;" horiz-adv-x="506" 
d="M355 694h-108q-19 0 -25.5 -10.5t-6.5 -45.5v-555q0 -33 8 -44t29 -11h39v-28h-259v28h38q22 0 30 11t8 44v555q0 33 -8.5 44.5t-29.5 11.5h-38v28h447l10 -258h-26q-10 96 -28 153q-16 51 -34 64q-16 13 -46 13zM267 830l-27 -24l-15 10q2 5 7.5 18.5t9.5 21.5l27 66
q27 55 58 55q13 0 23 -9.5t10 -20.5q0 -23 -32 -58q-19 -21 -28 -29q-12 -12 -33 -30z" />
    <glyph glyph-name="afii10053" unicode="&#x404;" horiz-adv-x="544" 
d="M296 736q41 0 80 -24.5t67 -67.5l19 91h23l13 -279h-26q-19 136 -67 194q-46 57 -100 57q-75 0 -116.5 -82t-44.5 -243q151 3 226 6v-42q-75 3 -226 6q1 -154 46 -241t121 -87q67 0 114.5 60.5t63.5 165.5h26q-15 -130 -80 -198q-65 -66 -142 -66q-112 0 -186 101
q-74 103 -74 265q0 164 71 274q72 110 192 110z" />
    <glyph glyph-name="afii10054" unicode="&#x405;" horiz-adv-x="499" 
d="M470 201q0 -105 -67 -160t-156 -55q-111 0 -175 102l-18 -101h-21l-15 283h26q18 -141 84 -202q58 -54 120 -54q59 0 96.5 36t37.5 102q0 55 -32 93q-14 17 -37 30q-29 17 -91 40q-75 27 -123 66q-56 48 -56 149q0 99 52 152.5t138 53.5q104 0 161 -89l18 88h21l10 -263
h-26q-18 136 -78 188q-51 47 -106 47q-47 0 -78 -34.5t-31 -96.5q0 -73 52 -109q27 -19 49 -28q28 -12 61 -23q76 -26 124 -66q60 -48 60 -149z" />
    <glyph glyph-name="afii10055" unicode="&#x406;" horiz-adv-x="323" 
d="M291 28v-28h-259v28h38q22 0 30 11t8 44v555q0 33 -8.5 44.5t-29.5 11.5h-38v28h259v-28h-39q-21 0 -29 -11.5t-8 -44.5v-555q0 -33 8 -44t29 -11h39z" />
    <glyph glyph-name="afii10056" unicode="&#x407;" horiz-adv-x="318" 
d="M178 851q0 21 12.5 35.5t29.5 14.5q18 0 31 -14.5t13 -35.5q0 -20 -13 -34t-31 -14q-17 0 -29.5 14.5t-12.5 33.5zM53 851q0 21 12.5 35.5t29.5 14.5q18 0 30.5 -14.5t12.5 -35.5q0 -20 -12.5 -34t-30.5 -14q-17 0 -29.5 14t-12.5 34zM213 638v-555q0 -33 8 -44t29 -11
h39v-28h-259v28h38q22 0 30 11t8 44v555q0 33 -8.5 44.5t-29.5 11.5h-38v28h259v-28h-39q-21 0 -29 -11.5t-8 -44.5z" />
    <glyph glyph-name="afii10057" unicode="&#x408;" horiz-adv-x="432" 
d="M337 638v-455q0 -101 -50.5 -149t-138.5 -48q-72 0 -107 47q-34 46 -34 112q0 46 18.5 78.5t49.5 32.5q22 0 37.5 -18t15.5 -43q0 -26 -14.5 -44t-35.5 -18q-22 0 -34 25q-4 -11 -4 -28q0 -47 26.5 -79t67.5 -32q42 0 68.5 41t26.5 123v455q0 33 -8 44.5t-29 11.5h-49v28
h270v-28h-39q-21 0 -29 -11.5t-8 -44.5z" />
    <glyph glyph-name="afii10058" unicode="&#x409;" horiz-adv-x="831" 
d="M615 0h-277v28h38q21 0 29 11t8 44v568q0 26 -5.5 34.5t-21.5 8.5h-114q-18 0 -25.5 -13t-7.5 -43q0 -334 -33 -497q-17 -81 -46.5 -117.5t-76.5 -36.5q-34 0 -54.5 28t-20.5 68q0 26 16 45t38 19t36 -15.5t14 -39.5q0 -23 -15.5 -38.5t-44.5 -15.5q14 -21 39 -21
q113 0 113 621q0 32 -9.5 44t-31.5 12h-39v28h473v-28h-39q-21 0 -29 -11.5t-8 -44.5v-238h84q95 0 150.5 -53.5t55.5 -147.5q0 -92 -55 -146q-55 -53 -141 -53zM703 199q0 77 -30.5 124.5t-83.5 47.5h-68v-288q0 -31 9.5 -43t37.5 -12h33q46 0 74 49t28 122z" />
    <glyph glyph-name="afii10059" unicode="&#x40a;" horiz-adv-x="889" 
d="M574 638v-238h89q95 0 150.5 -53.5t55.5 -147.5q0 -91 -55 -145q-56 -54 -142 -54h-281v28h39q21 0 29 10.5t8 39.5v285h-252v-280q0 -33 8 -44t29 -11h39v-28h-259v28h38q22 0 30 11t8 44v555q0 33 -8.5 44.5t-29.5 11.5h-38v28h259v-28h-39q-21 0 -29 -11.5t-8 -44.5
v-237h252v237q0 33 -8 44.5t-29 11.5h-39v28h259v-28h-39q-21 0 -29 -11.5t-8 -44.5zM647 362h-72v-284q0 -30 7.5 -40t28.5 -10h48q46 0 74 49t28 122q0 76 -30 119.5t-84 43.5z" />
    <glyph glyph-name="afii10060" unicode="&#x40b;" horiz-adv-x="686" 
d="M674 28v-28h-219v28h32q17 0 22.5 8.5t5.5 36.5v155q0 76 -15 107t-53 31t-75 -52q-36 -51 -36 -119v-112q0 -33 8 -44t29 -11h33v-28h-254v28h39q21 0 29 11t8 44v555q0 36 -5.5 46t-24.5 10h-54q-26 0 -43 -15q-33 -31 -56 -215h-25l16 258h492l16 -258h-25
q-15 103 -28 151.5t-28 63t-43 15.5h-54q-19 0 -24.5 -10t-5.5 -46v-338q17 52 57.5 84t91.5 32q64 0 93 -44.5t29 -131.5v-167q0 -27 5.5 -36t22.5 -9h39z" />
    <glyph glyph-name="afii10061" unicode="&#x40c;" horiz-adv-x="636" 
d="M592 167h25q-3 -92 -28 -134.5t-81 -42.5q-49 0 -72.5 35t-41.5 120l-7 33q-6 31 -7 35q-6 34 -16 63q-12 35 -24 50q-26 33 -61 33h-64v-276q0 -33 8 -44t29 -11h39v-28h-259v28h38q22 0 30 11t8 44v555q0 33 -8.5 44.5t-29.5 11.5h-38v28h259v-28h-39q-21 0 -29 -11.5
t-8 -44.5v-250h84l141 239q17 31 17 44q0 23 -27 23h-36v28h208v-28h-24q-30 0 -51.5 -15t-43.5 -52l-146 -240q52 -9 89.5 -47.5t52.5 -90.5q10 -33 22.5 -93t22.5 -88t25 -28q39 0 43 127zM322 830l-27 -24l-15 10q2 5 7.5 18.5t9.5 21.5l27 66q28 55 58 55q13 0 23 -9.5
t10 -20.5q0 -23 -32 -58q-19 -21 -28 -29q-12 -12 -33 -30z" />
    <glyph glyph-name="afii10062" unicode="&#x40e;" horiz-adv-x="590" 
d="M453 859q-9 -6 -22 -6q-16 0 -27 11t-11 28q0 20 13 34.5t31 14.5q20 0 33 -14t13 -36q0 -63 -39 -95.5t-109 -32.5t-109 32.5t-39 95.5q0 22 13 36t33 14q18 0 31 -14.5t13 -34.5q0 -17 -11 -28t-27 -11q-13 0 -22 6q17 -68 118 -68t118 68zM588 722v-28h-22
q-36 0 -57 -56l-183 -506q-52 -147 -138 -147q-46 0 -73.5 30t-27.5 85q0 29 17 47.5t41 18.5q23 0 38.5 -15.5t15.5 -44.5q0 -24 -14 -40.5t-32 -16.5q-22 0 -34 14q15 -49 70 -49q65 0 106 128l-193 470q-18 45 -34 65q-14 17 -41 17h-23v28h263v-28h-36q-33 0 -33 -26
t13 -56l136 -331l128 366q4 9 4 24q0 23 -22 23h-41v28h172z" />
    <glyph glyph-name="afii10145" unicode="&#x40f;" horiz-adv-x="682" 
d="M650 28v-28h-294q1 -19 10 -84q8 -58 8 -66q0 -20 -16.5 -28.5t-33 0t-16.5 28.5q0 8 8 66q9 65 10 84h-294v28h38q22 0 30 11t8 44v555q0 33 -8.5 44.5t-29.5 11.5h-38v28h259v-28h-39q-21 0 -29 -11.5t-8 -44.5v-567q0 -27 5.5 -35t22.5 -8h196q17 0 22.5 8t5.5 35v567
q0 33 -8 44.5t-29 11.5h-39v28h259v-28h-39q-21 0 -29 -11.5t-8 -44.5v-555q0 -33 8 -44t29 -11h39z" />
    <glyph glyph-name="afii10017" unicode="&#x410;" horiz-adv-x="599" 
d="M595 28v-28h-241v28h43q29 0 29 22q0 11 -8 33l-42 149h-218l-39 -133q-8 -27 -8 -38q0 -33 36 -33h33v-28h-176v28h10q51 0 72 71l193 637h48l199 -653q16 -55 57 -55h12zM364 266l-99 344l-98 -344h197z" />
    <glyph glyph-name="afii10018" unicode="&#x411;" horiz-adv-x="552" 
d="M315 371h-100v-288q0 -55 25 -55h75q47 0 75.5 48.5t28.5 122.5q0 79 -26.5 125.5t-77.5 46.5zM528 199q0 -92 -54 -145.5t-144 -53.5h-298v28h38q22 0 30 11t8 44v555q0 33 -8.5 44.5t-29.5 11.5h-38v28h442l8 -225h-26q-16 142 -44 171q-15 18 -28.5 22t-48.5 4h-83
q-21 0 -29 -11.5t-8 -44.5v-238h115q91 0 144.5 -54t53.5 -147z" />
    <glyph glyph-name="afii10019" unicode="&#x412;" horiz-adv-x="561" 
d="M535 195q0 -90 -54.5 -142.5t-143.5 -52.5h-305v28h38q22 0 30 11t8 44v555q0 33 -8.5 44.5t-29.5 11.5h-38v28h271q202 0 202 -177q0 -63 -40 -109t-106 -58q84 -10 130 -57.5t46 -125.5zM301 360h-86v-277q0 -33 8 -44t29 -11h70q47 0 75.5 47t28.5 120q0 74 -33 119.5
t-92 45.5zM396 542q0 152 -113 152h-36q-18 0 -25 -10t-7 -40v-256h86q46 0 70 45q25 46 25 109z" />
    <glyph glyph-name="afii10020" unicode="&#x413;" horiz-adv-x="506" 
d="M355 694h-108q-19 0 -25.5 -10.5t-6.5 -45.5v-555q0 -33 8 -44t29 -11h39v-28h-259v28h38q22 0 30 11t8 44v555q0 33 -8.5 44.5t-29.5 11.5h-38v28h447l10 -258h-26q-10 96 -28 153q-16 51 -34 64q-16 13 -46 13z" />
    <glyph glyph-name="afii10021" unicode="&#x414;" horiz-adv-x="643" 
d="M415 71v580q0 43 -27 43h-126q-35 0 -35 -56q0 -286 -42 -482q-21 -93 -57 -128h260q27 0 27 43zM603 28l10 -213h-26q-11 83 -26 121q-14 39 -31 51.5t-48 12.5h-331q-32 0 -49 -11.5t-31.5 -51t-27.5 -122.5h-26l11 213h54q51 24 81 184q31 158 31 426q0 32 -10 44
t-32 12h-38v28h484v-28h-39q-21 0 -28.5 -11.5t-7.5 -44.5v-559q0 -30 7.5 -40.5t28.5 -10.5h44z" />
    <glyph glyph-name="afii10022" unicode="&#x415;" horiz-adv-x="553" 
d="M357 694h-112q-19 0 -25.5 -10.5t-6.5 -45.5v-249h74q38 0 53 28q15 27 17 120h25v-325h-25q-2 92 -17 119q-15 29 -53 29h-74v-277q0 -33 8 -44t29 -11h116q26 0 36.5 2.5t24.5 13.5q20 17 32 64t29 161h26l-15 -269h-470v28h39q21 0 29 11t8 44v555q0 33 -8 44.5
t-29 11.5h-39v28h451l12 -238h-25q-18 150 -46 183q-14 18 -26 22.5t-38 4.5z" />
    <glyph glyph-name="afii10024" unicode="&#x416;" horiz-adv-x="863" 
d="M180 627l144 -239h53v250q0 33 -7.5 44.5t-28.5 11.5h-44v28h269v-28h-43q-21 0 -29.5 -11.5t-8.5 -44.5v-250h54l144 239q20 35 20 50q0 17 -23 17h-36v28h194v-28h-21q-52 0 -86 -57l-153 -250q72 -10 110 -60q18 -23 28 -57q15 -44 27 -137q11 -92 36 -92q31 0 40 126
h25q-3 -92 -26 -134.5t-76 -42.5q-59 0 -82 86q-10 40 -16 77q-5 29 -14 78q-8 58 -32.5 94.5t-69.5 33.5h-43v-276q0 -33 8 -44t30 -11h43v-28h-269v28h44q21 0 28.5 11t7.5 44v276h-42q-40 0 -61.5 -24t-33.5 -71q-8 -31 -12 -58q-12 -86 -25 -130q-23 -86 -83 -86
q-53 0 -75.5 42t-24.5 135h24q8 -126 39 -126q26 0 37 92q10 87 26 136q17 52 49 79.5t90 38.5l-153 250q-34 57 -86 57h-21v28h194v-28h-36q-23 0 -23 -17q0 -15 20 -50z" />
    <glyph glyph-name="afii10025" unicode="&#x417;" horiz-adv-x="488" 
d="M461 198q0 -97 -73 -155q-72 -57 -163 -57q-36 0 -69.5 11t-63.5 34.5t-48 66.5t-18 100q0 22 14.5 39t34.5 17t34.5 -17t14.5 -39q0 -23 -11.5 -37.5t-27.5 -14.5q-19 0 -29 8q10 -62 57 -100q48 -36 108 -36q54 0 93 51t39 132q0 73 -31.5 115t-80.5 42q-22 0 -67 -6
v42q45 -6 67 -6q39 0 66.5 45t27.5 119q0 72 -29 113.5t-74 41.5q-123 0 -153 -236h-26l11 264h24l14 -80q54 81 152 81q89 0 138 -48t49 -137q0 -64 -36.5 -111t-100.5 -64q75 -11 116 -57.5t41 -120.5z" />
    <glyph glyph-name="afii10026" unicode="&#x418;" horiz-adv-x="697" 
d="M665 28v-28h-259v28h39q21 0 28.5 11t7.5 44v476l-266 -444v-32q0 -33 8 -44t29 -11h39v-28h-259v28h38q22 0 30 11t8 44v555q0 33 -8.5 44.5t-29.5 11.5h-38v28h259v-28h-39q-21 0 -29 -11.5t-8 -44.5v-465l266 444v21q0 33 -7.5 44.5t-28.5 11.5h-39v28h259v-28h-39
q-21 0 -29 -11.5t-8 -44.5v-555q0 -33 8 -44t29 -11h39z" />
    <glyph glyph-name="afii10027" unicode="&#x419;" horiz-adv-x="697" 
d="M665 28v-28h-259v28h39q21 0 28.5 11t7.5 44v476l-266 -444v-32q0 -33 8 -44t29 -11h39v-28h-259v28h38q22 0 30 11t8 44v555q0 33 -8.5 44.5t-29.5 11.5h-38v28h259v-28h-39q-21 0 -29 -11.5t-8 -44.5v-465l266 444v21q0 33 -7.5 44.5t-28.5 11.5h-39v28h259v-28h-39
q-21 0 -29 -11.5t-8 -44.5v-555q0 -33 8 -44t29 -11h39zM463 859q-9 -6 -22 -6q-16 0 -27 11t-11 28q0 20 13 34.5t31 14.5q20 0 33 -14t13 -36q0 -63 -39 -95.5t-109 -32.5t-109 32.5t-39 95.5q0 22 13 36t33 14q18 0 31 -14.5t13 -34.5q0 -17 -11 -28t-27 -11q-13 0 -22 6
q17 -68 118 -68t118 68z" />
    <glyph glyph-name="afii10028" unicode="&#x41a;" horiz-adv-x="636" 
d="M592 167h25q-3 -92 -28 -134.5t-81 -42.5q-49 0 -72.5 35t-41.5 120l-7 33q-6 31 -7 35q-6 34 -16 63q-12 35 -24 50q-26 33 -61 33h-64v-276q0 -33 8 -44t29 -11h39v-28h-259v28h38q22 0 30 11t8 44v555q0 33 -8.5 44.5t-29.5 11.5h-38v28h259v-28h-39q-21 0 -29 -11.5
t-8 -44.5v-250h84l141 239q17 31 17 44q0 23 -27 23h-36v28h208v-28h-24q-30 0 -51.5 -15t-43.5 -52l-146 -240q52 -9 89.5 -47.5t52.5 -90.5q10 -33 22.5 -93t22.5 -88t25 -28q39 0 43 127z" />
    <glyph glyph-name="afii10029" unicode="&#x41b;" horiz-adv-x="635" 
d="M603 28v-28h-259v28h38q21 0 29 11t8 44v568q0 26 -5.5 34.5t-21.5 8.5h-120q-18 0 -25.5 -13t-7.5 -43q0 -334 -33 -497q-17 -81 -46.5 -117.5t-76.5 -36.5q-34 0 -54.5 28t-20.5 68q0 26 16 45t38 19t36 -15.5t14 -39.5q0 -23 -15.5 -38.5t-44.5 -15.5q14 -21 39 -21
q113 0 113 621q0 32 -9.5 44t-31.5 12h-39v28h479v-28h-39q-21 0 -29 -11.5t-8 -44.5v-555q0 -33 8 -44t29 -11h39z" />
    <glyph glyph-name="afii10030" unicode="&#x41c;" horiz-adv-x="805" 
d="M773 28v-28h-259v28h39q21 0 29 11t8 44v611h-5l-210 -694h-24l-208 694h-4v-601q0 -65 41 -65h34v-28h-185v28h34q42 0 42 65v545q0 33 -8 44.5t-29 11.5h-39v28h218l155 -539l157 539h214v-28h-39q-20 0 -28.5 -12.5t-8.5 -44.5v-554q0 -33 8 -44t29 -11h39z" />
    <glyph glyph-name="afii10031" unicode="&#x41d;" horiz-adv-x="682" 
d="M650 28v-28h-259v28h39q21 0 29 11t8 44v274h-252v-274q0 -33 8 -44t29 -11h39v-28h-259v28h38q22 0 30 11t8 44v555q0 33 -8.5 44.5t-29.5 11.5h-38v28h259v-28h-39q-21 0 -29 -11.5t-8 -44.5v-241h252v241q0 33 -8 44.5t-29 11.5h-39v28h259v-28h-39q-21 0 -29 -11.5
t-8 -44.5v-555q0 -33 8 -44t29 -11h39z" />
    <glyph glyph-name="afii10032" unicode="&#x41e;" horiz-adv-x="604" 
d="M571 361q0 -164 -71 -270q-70 -105 -198 -105t-198 105q-71 106 -71 270q0 163 71 269q70 106 198 106t198 -106q71 -106 71 -269zM459 361q0 158 -40 251q-41 95 -117 95q-77 0 -118 -95q-40 -93 -40 -251q0 -160 40 -253q40 -94 118 -94q77 0 117 94q40 93 40 253z" />
    <glyph glyph-name="afii10033" unicode="&#x41f;" horiz-adv-x="682" 
d="M650 28v-28h-259v28h39q21 0 29 11t8 44v568q0 27 -5.5 35t-22.5 8h-196q-17 0 -22.5 -8t-5.5 -35v-568q0 -33 8 -44t29 -11h39v-28h-259v28h38q22 0 30 11t8 44v555q0 33 -8.5 44.5t-29.5 11.5h-38v28h618v-28h-39q-21 0 -29 -11.5t-8 -44.5v-555q0 -33 8 -44t29 -11h39
z" />
    <glyph glyph-name="afii10034" unicode="&#x420;" horiz-adv-x="544" 
d="M416 520q0 34 -11 73q-11 37 -42 69q-32 32 -78 32h-35q-19 0 -27 -12t-8 -44v-295h71q55 0 93 53q37 52 37 124zM524 520q0 -96 -58.5 -150.5t-163.5 -54.5h-87v-232q0 -33 8 -44t29 -11h39v-28h-259v28h38q22 0 30 15t8 64v531q0 33 -8.5 44.5t-29.5 11.5h-38v28h270
q101 0 161.5 -54.5t60.5 -147.5z" />
    <glyph glyph-name="afii10035" unicode="&#x421;" horiz-adv-x="544" 
d="M489 250h26q-15 -130 -80 -198q-65 -66 -142 -66q-112 0 -186 101q-74 103 -74 265q0 164 71 274q72 110 192 110q41 0 80 -24.5t67 -67.5l19 91h23l13 -279h-26q-19 136 -67 194q-46 57 -100 57q-161 0 -161 -350q0 -155 45.5 -244t121.5 -89q67 0 114.5 60.5
t63.5 165.5z" />
    <glyph glyph-name="afii10036" unicode="&#x422;" horiz-adv-x="564" 
d="M528 722l16 -258h-25q-15 103 -28 151.5t-28 63t-43 15.5h-54q-19 0 -24.5 -10t-5.5 -46v-555q0 -33 8 -44t29 -11h39v-28h-260v28h39q21 0 29 11t8 44v555q0 36 -5.5 46t-24.5 10h-54q-26 0 -43 -15q-33 -31 -56 -215h-25l16 258h492z" />
    <glyph glyph-name="afii10037" unicode="&#x423;" horiz-adv-x="590" 
d="M588 722v-28h-22q-36 0 -57 -56l-183 -506q-52 -147 -138 -147q-46 0 -73.5 30t-27.5 85q0 29 17 47.5t41 18.5q23 0 38.5 -15.5t15.5 -44.5q0 -24 -14 -40.5t-32 -16.5q-22 0 -34 14q15 -49 70 -49q65 0 106 128l-193 470q-18 45 -34 65q-14 17 -41 17h-23v28h263v-28
h-36q-33 0 -33 -26t13 -56l136 -331l128 366q4 9 4 24q0 23 -22 23h-41v28h172z" />
    <glyph glyph-name="afii10038" unicode="&#x424;" horiz-adv-x="699" 
d="M133 387q0 -229 163 -229v456q-163 0 -163 -227zM403 130v-47q0 -33 8 -44t29 -11h39v-28h-259v28h38q22 0 30 11t8 44v47q-124 0 -195.5 68.5t-71.5 188.5t71.5 188.5t195.5 68.5v28q0 33 -8 44t-30 11h-38v28h259v-28h-39q-21 0 -29 -11t-8 -44v-28q124 0 195.5 -68.5
t71.5 -188.5t-71.5 -188.5t-195.5 -68.5zM566 387q0 227 -163 227v-456q163 0 163 229z" />
    <glyph glyph-name="afii10039" unicode="&#x425;" horiz-adv-x="623" 
d="M611 28v-28h-268l-1 28h46q23 0 23 15q0 12 -16 40l-118 245l-127 -251q-11 -24 -11 -35q0 -14 21 -14h41v-28h-189v28h23q27 0 44.5 11.5t34.5 43.5l144 277l-141 278q-29 56 -67 56h-23v28h263v-28h-39q-25 0 -25 -14q0 -11 16 -42l101 -209l111 218q13 21 11.5 34
t-23.5 13h-36v28h185v-28h-23q-28 0 -45.5 -12t-34.5 -44l-127 -241l159 -314q28 -55 68 -55h23z" />
    <glyph glyph-name="afii10040" unicode="&#x426;" horiz-adv-x="695" 
d="M529 0h-497v28h38q22 0 30 11t8 44v555q0 33 -8.5 44.5t-29.5 11.5h-38v28h259v-28h-39q-21 0 -29 -11.5t-8 -44.5v-567q0 -27 5.5 -35t22.5 -8h196q17 0 22.5 8t5.5 35v567q0 33 -8 44.5t-29 11.5h-39v28h259v-28h-39q-21 0 -29 -11.5t-8 -44.5v-555q0 -33 8 -44t29 -11
h44l10 -213h-25q-16 125 -44 158q-14 17 -28 22t-39 5z" />
    <glyph glyph-name="afii10041" unicode="&#x427;" horiz-adv-x="630" 
d="M602 28v-28h-268v28h48q21 0 29 11t8 44v261q-90 -48 -165 -48q-85 0 -127 43.5t-42 143.5v155q0 33 -8 44.5t-29 11.5h-31v28h242v-28h-29q-21 0 -29 -11.5t-8 -44.5v-155q0 -81 25.5 -114t83.5 -33q39 0 117 36v266q0 33 -8 44.5t-29 11.5h-29v28h249v-28h-38
q-21 0 -29.5 -11.5t-8.5 -44.5v-555q0 -33 8 -44t30 -11h38z" />
    <glyph glyph-name="afii10042" unicode="&#x428;" horiz-adv-x="966" 
d="M934 28v-28h-902v28h38q22 0 30 11t8 44v555q0 33 -8.5 44.5t-29.5 11.5h-38v28h254v-28h-34q-21 0 -29 -11.5t-8 -44.5v-567q0 -27 5.5 -35t22.5 -8h159q16 0 21.5 8.5t5.5 34.5v567q0 33 -8 44.5t-29 11.5h-34v28h250v-28h-34q-21 0 -29 -11.5t-8 -44.5v-567
q0 -27 5.5 -35t22.5 -8h159q16 0 21.5 8.5t5.5 34.5v567q0 33 -8 44.5t-29 11.5h-34v28h254v-28h-39q-21 0 -28.5 -11.5t-7.5 -44.5v-555q0 -33 7.5 -44t28.5 -11h39z" />
    <glyph glyph-name="afii10043" unicode="&#x429;" horiz-adv-x="980" 
d="M939 28l10 -213h-26q-17 126 -43 158q-14 17 -28 22t-39 5h-781v28h38q22 0 30 11t8 44v555q0 33 -8.5 44.5t-29.5 11.5h-38v28h254v-28h-34q-21 0 -29 -11.5t-8 -44.5v-567q0 -27 5.5 -35t22.5 -8h159q16 0 21.5 8.5t5.5 34.5v567q0 33 -8 44.5t-29 11.5h-34v28h250v-28
h-34q-21 0 -29 -11.5t-8 -44.5v-567q0 -27 5.5 -35t22.5 -8h159q16 0 21.5 8.5t5.5 34.5v567q0 33 -8 44.5t-29 11.5h-34v28h254v-28h-39q-21 0 -28.5 -11.5t-7.5 -44.5v-555q0 -33 7.5 -44t28.5 -11h44z" />
    <glyph glyph-name="afii10044" unicode="&#x42a;" horiz-adv-x="633" 
d="M504 199q0 77 -30 124.5t-83 47.5h-83v-288q0 -55 36 -55h57q47 0 75 49t28 122zM613 199q0 -91 -55 -145q-56 -54 -142 -54h-292v28h38q22 0 30 11t8 44v555q0 36 -6 46t-24 10h-42q-38 0 -60.5 -53.5t-34.5 -176.5h-25l16 258h369v-28h-49q-21 0 -28.5 -11.5
t-7.5 -44.5v-238h98q95 0 151 -53.5t56 -147.5z" />
    <glyph glyph-name="afii10045" unicode="&#x42b;" horiz-adv-x="823" 
d="M521 199q0 -91 -55 -145q-56 -54 -142 -54h-292v28h38q22 0 30 11t8 44v555q0 33 -8.5 44.5t-29.5 11.5h-38v28h268v-28h-48q-21 0 -29 -11.5t-8 -44.5v-238h99q95 0 151 -53.5t56 -147.5zM791 28v-28h-259v28h39q21 0 29 11t8 44v555q0 33 -8 44.5t-29 11.5h-39v28h259
v-28h-38q-21 0 -29 -11.5t-8 -44.5v-555q0 -33 8 -44t29 -11h38zM413 199q0 76 -32.5 124t-86.5 48h-79v-288q0 -55 37 -55h56q48 0 76 49q29 50 29 122z" />
    <glyph glyph-name="afii10046" unicode="&#x42c;" horiz-adv-x="541" 
d="M521 199q0 -91 -55 -145q-56 -54 -142 -54h-292v28h38q22 0 30 11t8 44v555q0 33 -8.5 44.5t-29.5 11.5h-38v28h268v-28h-48q-21 0 -29 -11.5t-8 -44.5v-238h104q94 0 148 -53t54 -148zM413 199q0 77 -30.5 124.5t-84.5 47.5h-83v-288q0 -55 37 -55h56q48 0 76 49
q29 50 29 122z" />
    <glyph glyph-name="afii10047" unicode="&#x42d;" horiz-adv-x="528" 
d="M495 352q0 -161 -77 -264q-77 -102 -190 -102q-91 0 -145 56.5t-54 157.5q0 37 30.5 51.5t52.5 -12.5q22 -25 10.5 -59.5t-42.5 -34.5q-11 0 -19 4q14 -61 57.5 -96t98.5 -35q75 0 120 89q45 87 47 244q-66 0 -212 -6v43q77 -3 212 -6q-6 325 -154 325q-54 0 -101 -57
q-46 -57 -66 -194h-13v279h23l19 -91q27 42 66.5 67t80.5 25q120 0 187 -109q69 -109 69 -275z" />
    <glyph glyph-name="afii10048" unicode="&#x42e;" horiz-adv-x="882" 
d="M577 -14q-114 0 -186 102q-71 103 -76 262h-100v-267q0 -33 8 -44t29 -11h39v-28h-259v28h38q22 0 30 11t8 44v555q0 33 -8.5 44.5t-29.5 11.5h-38v28h259v-28h-39q-21 0 -29 -11.5t-8 -44.5v-248h100q7 149 79 248q72 98 183 98q119 0 195 -108q77 -107 77 -267
q0 -159 -77 -268q-77 -107 -195 -107zM426 361q0 -162 39 -253.5t112 -91.5t112 93q39 95 39 252q0 158 -39 251q-37 93 -112 93q-74 0 -113 -93q-38 -94 -38 -251z" />
    <glyph glyph-name="afii10049" unicode="&#x42f;" horiz-adv-x="612" 
d="M310 372h87v266q0 25 -6 38t-12.5 15.5t-16.5 2.5h-64q-48 0 -76 -42t-28 -116q0 -79 29.5 -121.5t86.5 -42.5zM580 28v-28h-259v28h39q21 0 29 11t8 44v260h-69q-63 0 -92 -125q-9 -42 -14.5 -63.5t-19 -58.5t-27.5 -56t-38 -34.5t-54 -15.5q-40 0 -55.5 31t-19.5 111
h26q3 -101 35 -101q19 0 40 101q40 193 147 220q-82 8 -126.5 57.5t-44.5 126.5q0 186 226 186h269v-28h-38q-22 0 -30 -11t-8 -45v-555q0 -33 8 -44t30 -11h38z" />
    <glyph glyph-name="afii10065" unicode="&#x430;" horiz-adv-x="444" 
d="M174 29q46 0 72 53t28 156q-85 -4 -120 -44q-33 -38 -33 -88q0 -34 14.5 -55.5t38.5 -21.5zM187 441q-38 0 -68 -17t-42 -44q14 2 16 2q22 0 32 -15t10 -33t-14 -35.5t-34 -17.5t-34.5 17.5t-14.5 39.5q0 64 51 98q53 35 110 35q82 0 125.5 -37t43.5 -109q0 -2 -2 -112
t-2 -119q0 -68 21 -68q6 0 11.5 6.5t10 24t4.5 43.5h22q-1 -112 -80 -112q-66 0 -70 118q-48 -118 -152 -118q-43 0 -71 29t-28 76q0 66 64 114q64 47 179 55v19.5t0.5 17.5t1 14t0.5 9v4q-1 57 -24.5 86t-65.5 29z" />
    <glyph glyph-name="afii10066" unicode="&#x431;" horiz-adv-x="438" 
d="M408 229q0 -107 -54 -175q-53 -68 -135 -68q-85 0 -138 68q-51 69 -51 174q0 55 2 117q8 124 35 177q52 109 203 138q53 11 71 23t23 39h20q-8 -80 -34 -111q-27 -30 -117 -45q-90 -16 -130 -66q-18 -21 -29 -58q-17 -63 -17 -154q18 79 64.5 125t111.5 46q79 0 127 -65
q48 -64 48 -165zM316 223q0 98 -26 152t-71 54t-71 -54t-26 -152q0 -99 26 -154t71 -55t71 55t26 154z" />
    <glyph glyph-name="afii10067" unicode="&#x432;" horiz-adv-x="442" 
d="M323 126q0 44 -23 72t-57 28h-67v-139q0 -40 5 -52q6 -9 32 -9h34q34 0 55 26.5t21 73.5zM304 342q0 36 -15.5 62.5t-41.5 26.5h-34q-25 0 -31 -10t-6 -48v-120h65q30 0 46.5 25.5t16.5 63.5zM414 125q0 -125 -167 -125h-225v28h34q17 0 23 9t6 31v321q0 24 -6 32.5
t-23 8.5h-34v28h243q62 0 95 -28t33 -80q0 -41 -25.5 -70.5t-72.5 -38.5q58 -7 88.5 -38t30.5 -78z" />
    <glyph glyph-name="afii10068" unicode="&#x433;" horiz-adv-x="377" 
d="M22 458h334l9 -178h-25q-13 91 -31 122q-16 28 -50 28h-54q-17 0 -23 -8.5t-6 -32.5v-321q0 -22 6 -31t23 -9h42v-28h-225v28h34q17 0 23 9t6 31v321q0 24 -6 32.5t-23 8.5h-34v28z" />
    <glyph glyph-name="afii10069" unicode="&#x434;" horiz-adv-x="464" 
d="M440 28l8 -174h-26q-13 105 -31 127q-11 12 -20.5 15.5t-31.5 3.5h-234q-22 -1 -31 -7.5t-17.5 -36.5t-19.5 -102h-26l8 174h31q35 19 56.5 113t21.5 248q0 24 -6 32.5t-24 8.5h-34v28h375v-28h-34q-19 0 -24.5 -13t-5.5 -49v-300q0 -22 6 -31t24 -9h35zM284 64v340
q0 15 -5 20.5t-18 5.5h-74q-19 0 -25 -15.5t-6 -48.5q0 -271 -67 -338h169q15 0 20.5 7.5t5.5 28.5z" />
    <glyph glyph-name="afii10070" unicode="&#x435;" horiz-adv-x="409" 
d="M378 233h-256v-17q0 -92 28.5 -143.5t77.5 -51.5q84 0 120 121l23 -10q-17 -66 -63 -106t-94 -40q-86 0 -135 70t-49 173q0 98 50 171q51 72 136 72q79 0 120.5 -64t41.5 -175zM215 443q-42 0 -66 -47.5t-27 -132.5h141q22 0 22 29q0 67 -19 109t-51 42z" />
    <glyph glyph-name="afii10072" unicode="&#x436;" horiz-adv-x="672" 
d="M204 245l-89 140q-29 45 -84 45v28h157v-28h-26q-23 0 -23 -14q0 -10 12 -31l85 -135h55v124q0 34 -5.5 45t-24.5 11h-26v28h202v-28h-26q-18 0 -24 -12t-6 -46v-122h55l85 135q12 21 12 31q0 14 -23 14h-26v28h157v-28q-55 0 -84 -45l-90 -140q41 -8 66 -44
q24 -34 32 -75q22 -101 40 -101q19 0 21 74h23q0 -109 -64 -109q-36 0 -60 23t-34 59q-3 12 -9 40t-10 42.5t-12 32.5t-19 26.5t-26 8.5h-34v-137q0 -35 5.5 -46t24.5 -11h26v-28h-202v28h26q18 0 24 11t6 44v139h-34q-30 0 -47 -36.5t-24 -80t-31.5 -80t-67.5 -36.5
q-27 0 -42 18q-14 17 -17.5 35.5t-4.5 56.5h22q2 -74 22 -74t38 101q7 39 33 75q25 36 66 44z" />
    <glyph glyph-name="afii10073" unicode="&#x437;" horiz-adv-x="374" 
d="M165 13q44 0 68 29.5t24 79.5q0 49 -20 76t-53 27q-26 0 -52 -3v34q36 -2 52 -2q30 0 48.5 28t18.5 70q0 44 -19 67t-52 23q-90 0 -122 -159h-19l9 188h21l11 -54q40 55 112 55q144 0 144 -117q0 -43 -28.5 -73.5t-77.5 -40.5q57 -7 88 -39t31 -82q0 -65 -47.5 -99.5
t-134.5 -34.5q-57 0 -98 34q-42 35 -42 89q0 22 12 36.5t29 14.5q18 0 30 -12.5t12 -30.5q0 -20 -9 -32.5t-23 -12.5q-12 0 -20 5q9 -27 39 -45.5t68 -18.5z" />
    <glyph glyph-name="afii10074" unicode="&#x438;" horiz-adv-x="537" 
d="M515 28v-28h-212v28h27q18 0 24 8.5t6 31.5v279l-184 -284q0 -21 6 -28t23 -7h28v-28h-211v28h34q17 0 23 9t6 31v321q0 24 -6 32.5t-23 8.5h-34v28h211v-28h-28q-17 0 -23 -8.5t-6 -32.5v-279l184 284q0 22 -5.5 29t-24.5 7h-27v28h212v-28h-34q-18 0 -24 -8.5t-6 -32.5
v-321q0 -23 6 -31.5t24 -8.5h34z" />
    <glyph glyph-name="afii10075" unicode="&#x439;" horiz-adv-x="537" 
d="M372 598q-8 -6 -21 -6q-15 0 -24 12t-9 30t11.5 30t28.5 12q18 0 30 -16t12 -37q0 -53 -35.5 -80t-96.5 -27t-96.5 27t-35.5 80q0 21 12 37t30 16q17 0 28.5 -12t11.5 -30t-9 -30t-24 -12q-13 0 -21 6q5 -34 54.5 -48t99 0t54.5 48zM515 28v-28h-212v28h27q18 0 24 8.5
t6 31.5v279l-184 -284q0 -21 6 -28t23 -7h28v-28h-211v28h34q17 0 23 9t6 31v321q0 24 -6 32.5t-23 8.5h-34v28h211v-28h-28q-17 0 -23 -8.5t-6 -32.5v-279l184 284q0 22 -5.5 29t-24.5 7h-27v28h212v-28h-34q-18 0 -24 -8.5t-6 -32.5v-321q0 -23 6 -31.5t24 -8.5h34z" />
    <glyph glyph-name="afii10076" unicode="&#x43a;" horiz-adv-x="473" 
d="M383 -14q-42 0 -64 37q-21 35 -29 81q-6 45 -25 81q-18 37 -52 37h-37v-154q0 -22 6 -31t23 -9h34v-28h-217v28h34q17 0 23 9t6 31v321q0 24 -6 32.5t-23 8.5h-34v28h217v-28h-34q-17 0 -23 -8.5t-6 -32.5v-139h57l85 135q14 20 14 31q0 14 -21 14h-33v28h169v-28h-17
q-26 0 -43 -10t-33 -35l-90 -137q42 -8 69.5 -43t34.5 -78q22 -102 38 -102q24 0 26 74h23q0 -113 -72 -113z" />
    <glyph glyph-name="afii10077" unicode="&#x43b;" horiz-adv-x="479" 
d="M457 28v-28h-217v28h33q19 0 24.5 13t5.5 49v314q0 15 -5 20.5t-18 5.5h-73q-17 0 -23 -9.5t-6 -31.5q0 -44 -2 -102q-2 -117 -16 -177q-25 -123 -87 -123q-26 0 -43 18.5t-17 52.5q0 22 12.5 37t30.5 15q38 0 38 -46q0 -16 -9 -27t-24 -11l-19 4q8 -17 32 -17
q77 0 77 376q0 23 -6.5 32t-23.5 9h-34v28h370v-28h-34q-19 0 -24 -12t-5 -50v-300q0 -23 6 -31.5t23 -8.5h34z" />
    <glyph glyph-name="afii10078" unicode="&#x43c;" horiz-adv-x="590" 
d="M568 28v-28h-221v28h37q19 0 24.5 6.5t5.5 32.5v361h-4l-140 -435h-25l-129 435h-5v-360q0 -23 6 -31.5t24 -8.5h37v-28h-156v28h32q19 0 25 7t6 33v321q0 24 -6 32.5t-23 8.5h-34v28h180l92 -330l99 330h175v-28h-34q-18 0 -24 -8t-6 -34v-320q0 -22 6 -31t24 -9h34z
" />
    <glyph glyph-name="afii10079" unicode="&#x43d;" horiz-adv-x="530" 
d="M508 28v-28h-216v28h32q18 0 24 9t6 31v156h-178v-156q0 -22 6 -31t23 -9h33v-28h-216v28h34q17 0 23 9t6 31v321q0 24 -6 32.5t-23 8.5h-34v28h216v-28h-33q-17 0 -23 -8.5t-6 -32.5v-130h178v130q0 24 -6 32.5t-24 8.5h-32v28h216v-28h-34q-18 0 -24 -8.5t-6 -32.5
v-321q0 -22 6 -31t24 -9h34z" />
    <glyph glyph-name="afii10080" unicode="&#x43e;" horiz-adv-x="438" 
d="M290 69q26 57 26 160q0 104 -26 159q-25 55 -71 55q-47 0 -72 -55q-25 -54 -25 -159q0 -106 25 -160q25 -55 72 -55q46 0 71 55zM219 -14q-85 0 -138 68q-51 69 -51 175q0 107 51 174q53 69 138 69q87 0 138 -68t51 -175t-51 -175t-138 -68z" />
    <glyph glyph-name="afii10081" unicode="&#x43f;" horiz-adv-x="525" 
d="M503 28v-28h-211v28h27q18 0 24 9t6 31v336q0 15 -5 20.5t-18 5.5h-127q-13 0 -18 -5.5t-5 -20.5v-336q0 -22 6 -31t23 -9h28v-28h-211v28h34q17 0 23 9t6 31v321q0 24 -6 32.5t-23 8.5h-34v28h481v-28h-34q-17 0 -23 -8.5t-6 -32.5v-321q0 -23 6 -31.5t23 -8.5h34z" />
    <glyph glyph-name="afii10082" unicode="&#x440;" horiz-adv-x="478" 
d="M448 229q0 -102 -44 -173q-43 -70 -114 -70q-42 0 -76 34.5t-47 89.5v-230q0 -23 6 -31.5t23 -8.5h42v-28h-226v28h34q18 0 24 9t6 31v509q0 25 -6.5 33.5t-27.5 8.5h-30v28l145 10l7 -131q12 58 47 96t79 38q70 0 114 -71t44 -172zM356 229q0 99 -26 152t-69 53
q-35 0 -65 -59q-29 -60 -29 -146q0 -88 29 -148q30 -59 65 -59q43 0 69 53.5t26 153.5z" />
    <glyph glyph-name="afii10083" unicode="&#x441;" horiz-adv-x="389" 
d="M343 142l22 -11q-21 -68 -60.5 -106.5t-88.5 -38.5q-82 0 -134 66q-52 67 -52 171q0 101 54 175q56 74 142 74q60 0 97 -32.5t37 -92.5q0 -25 -13.5 -43t-34.5 -18q-25 0 -37.5 16t-12.5 38q0 24 12 37.5t31 13.5q10 0 23 -5q-24 61 -97 61q-48 0 -78.5 -60t-30.5 -159
q0 -92 30 -147.5t78 -55.5q80 0 113 117z" />
    <glyph glyph-name="afii10084" unicode="&#x442;" horiz-adv-x="419" 
d="M27 458h365l10 -173h-26q-14 93 -27.5 119t-40.5 26h-37q-9 0 -12.5 -6t-3.5 -26v-330q0 -23 6 -31.5t23 -8.5h34v-28h-218v28h34q18 0 24 9t6 31v330q0 20 -3.5 26t-12.5 6h-38q-26 0 -40 -26q-13 -25 -27 -119h-26z" />
    <glyph glyph-name="afii10085" unicode="&#x443;" horiz-adv-x="460" 
d="M456 458v-28h-14q-21 0 -33.5 -14t-23.5 -48l-117 -368q-23 -71 -39 -107q-17 -41 -45 -67t-62 -26t-53 24.5t-19 65.5q0 19 13.5 33.5t32.5 14.5q17 0 27.5 -13.5t10.5 -31.5q0 -16 -10 -29.5t-27 -13.5q-11 0 -16 5q9 -32 41 -32q35 0 59.5 37t52.5 131l-160 379
q-16 38 -25.5 49t-26.5 11h-18v28h205v-28h-26q-18 0 -18 -12q0 -11 7 -29l106 -267l85 267l5 22q0 19 -20 19h-30v28h138z" />
    <glyph glyph-name="afii10086" unicode="&#x444;" horiz-adv-x="622" 
d="M207 643l149 11v-276q28 93 97 93q68 0 104 -70q37 -68 37 -173q0 -104 -37 -174q-36 -69 -104 -69t-97 90v-195q0 -22 6 -31t24 -9h34v-28h-218v28h34q18 0 24 9t6 31v195q-28 -90 -97 -90q-67 0 -105 69q-36 70 -36 174t36 173q37 70 105 70q69 0 97 -93v195
q0 25 -6.5 33.5t-27.5 8.5h-25v28zM354 228q1 -97 23.5 -151.5t54.5 -54.5q77 0 77 206t-77 206q-32 0 -54.5 -55.5t-23.5 -150.5zM268 228q-1 95 -23.5 150.5t-54.5 55.5q-77 0 -77 -206t77 -206q32 0 54.5 54.5t23.5 151.5z" />
    <glyph glyph-name="afii10087" unicode="&#x445;" horiz-adv-x="441" 
d="M428 28v-28h-196v28h27q19 0 19 10q0 4 -15 30l-67 133l-72 -133q-13 -25 -13 -29q0 -11 16 -11h25v-28h-140v28h20q30 0 56 41l92 158l-88 162q-23 41 -51 41h-19v28h193v-28h-27q-17 0 -17 -11q0 -3 13 -30l56 -115l63 115q12 21 12 30q0 11 -16 11h-26v28h145v-28h-18
q-33 0 -63 -42l-80 -139l98 -181q22 -40 56 -40h17z" />
    <glyph glyph-name="afii10088" unicode="&#x446;" horiz-adv-x="530" 
d="M418 0h-396v28h34q17 0 23 8.5t6 32.5v321q0 22 -6 31t-23 9h-34v28h211v-28h-28q-17 0 -23 -9t-6 -31v-336q0 -15 5 -20.5t18 -5.5h127q13 0 18 5.5t5 20.5v336q0 22 -6 31t-24 9h-27v28h211v-28h-34q-17 0 -23 -8.5t-6 -31.5v-330q0 -18 6.5 -25t22.5 -7h36l8 -174h-26
q-11 72 -20 101.5t-18 36.5t-31 8z" />
    <glyph glyph-name="afii10089" unicode="&#x447;" horiz-adv-x="502" 
d="M477 28v-28h-226v28h42q18 0 24 9t6 31v141q-60 -28 -130 -28q-123 0 -123 118v90q0 24 -6 32.5t-23 8.5h-30v28h205v-28h-26q-17 0 -23 -8.5t-6 -32.5v-90q0 -87 68 -87q49 0 94 22v155q0 24 -6 32.5t-24 8.5h-25v28h209v-28h-34q-18 0 -24 -8.5t-6 -32.5v-321
q0 -22 6 -31t24 -9h34z" />
    <glyph glyph-name="afii10090" unicode="&#x448;" horiz-adv-x="748" 
d="M449 28h93q18 0 24 9t6 31v321q0 24 -6 32.5t-23 8.5h-26v28h209v-28h-34q-17 0 -23 -8.5t-6 -32.5v-321q0 -23 6 -31.5t23 -8.5h34v-28h-704v28h34q17 0 23 9t6 31v321q0 24 -6 32.5t-23 8.5h-34v28h210v-28h-27q-17 0 -23 -8.5t-6 -32.5v-321q0 -22 6 -31t23 -9h95
q17 0 23 9t6 31v321q0 24 -6 32.5t-24 8.5h-23v28h199v-28h-26q-17 0 -23 -8.5t-6 -32.5v-321q0 -22 6 -31t23 -9z" />
    <glyph glyph-name="afii10091" unicode="&#x449;" horiz-adv-x="748" 
d="M641 0h-619v28h34q17 0 23 9t6 31v321q0 24 -6 32.5t-23 8.5h-34v28h210v-28h-27q-17 0 -23 -8.5t-6 -32.5v-321q0 -22 6 -31t23 -9h95q17 0 23 9t6 31v321q0 24 -6 32.5t-24 8.5h-23v28h199v-28h-26q-17 0 -23 -8.5t-6 -32.5v-321q0 -22 6 -31t23 -9h93q18 0 24 9t6 31
v321q0 24 -6 32.5t-23 8.5h-26v28h209v-28h-34q-17 0 -23 -8.5t-6 -32.5v-329q0 -32 29 -32h36l8 -174h-25q-12 72 -21 101.5t-18 36.5t-31 8z" />
    <glyph glyph-name="afii10092" unicode="&#x44a;" horiz-adv-x="496" 
d="M309 234h-58v-166q0 -22 6 -31t21 -9h35q34 0 55 28t21 76t-21.5 75t-58.5 27zM480 131q0 -62 -37.5 -96.5t-103.5 -34.5h-242v28h34q18 0 24 9t6 31v326q0 21 -4.5 28.5t-16.5 7.5h-34q-25 0 -39 -26q-13 -27 -26 -119h-25l10 173h289v-28h-34q-17 0 -23.5 -9.5
t-6.5 -31.5v-128h88q66 0 103.5 -34t37.5 -96z" />
    <glyph glyph-name="afii10093" unicode="&#x44b;" horiz-adv-x="647" 
d="M313 132q0 48 -21.5 75t-57.5 27h-58v-166q0 -23 5.5 -31.5t21.5 -8.5h36q34 0 54 27t20 77zM400 131q0 -62 -37.5 -96.5t-103.5 -34.5h-237v28h34q17 0 23 9t6 31v321q0 24 -6 32.5t-23 8.5h-34v28h222v-28h-33q-35 0 -35 -41v-128h83q66 0 103.5 -34t37.5 -96zM625 28
v-28h-216v28h33q17 0 23 8.5t6 31.5v321q0 24 -6 32.5t-23 8.5h-33v28h216v-28h-34q-17 0 -23 -8.5t-6 -32.5v-321q0 -22 6 -31t23 -9h34z" />
    <glyph glyph-name="afii10094" unicode="&#x44c;" horiz-adv-x="421" 
d="M313 132q0 48 -21.5 75t-57.5 27h-58v-166q0 -23 5.5 -31.5t21.5 -8.5h36q34 0 54 27t20 77zM405 131q0 -62 -37.5 -96.5t-104.5 -34.5h-241v28h34q17 0 23 9t6 31v321q0 24 -6 32.5t-23 8.5h-34v28h217v-28h-34q-17 0 -23 -9.5t-6 -31.5v-128h87q66 0 104 -34t38 -96z
" />
    <glyph glyph-name="afii10095" unicode="&#x44d;" horiz-adv-x="393" 
d="M363 234q0 -107 -53 -178q-52 -70 -147 -70q-65 0 -101.5 33.5t-36.5 91.5q0 21 12 36t29 15q18 0 30 -13.5t12 -31.5q0 -30 -21 -39.5t-37 10.5q18 -73 111 -73q107 0 109 207q-27 0 -144 -4v36q89 -4 144 -4q-1 93 -29 141.5t-73 48.5q-81 0 -117 -162h-20l9 193h21
l12 -55q41 56 106 56q85 0 134 -67q50 -67 50 -171z" />
    <glyph glyph-name="afii10096" unicode="&#x44e;" horiz-adv-x="648" 
d="M435 -14q-79 0 -129 65q-48 65 -53 171h-77v-154q0 -22 6 -31t23 -9h33v-28h-216v28h34q17 0 23 9t6 31v321q0 24 -6 32.5t-23 8.5h-34v28h216v-28h-33q-17 0 -23 -8.5t-6 -32.5v-133h78q7 94 56 155t125 61q83 0 133 -69q50 -68 50 -174q0 -105 -50 -175
q-50 -68 -133 -68zM435 443q-44 0 -69 -56t-25 -158t25 -158.5t69 -56.5q45 0 70 56t25 159q0 102 -25 158t-70 56z" />
    <glyph glyph-name="afii10097" unicode="&#x44f;" horiz-adv-x="471" 
d="M230 236h64v153q0 23 -5.5 32t-21.5 9h-40q-34 0 -55 -27t-21 -72q0 -44 21.5 -69.5t57.5 -25.5zM449 28v-28h-216v28h34q16 0 21.5 8.5t5.5 31.5v140h-48q-30 0 -47 -35t-24 -75q-6 -42 -27 -76t-57 -34q-42 0 -59.5 24.5t-18.5 87.5h22q0 -74 25 -74q21 0 35 87
q6 37 30 67.5t61 38.5q-126 6 -126 116q0 60 37 91.5t104 31.5h248v-28h-34q-18 0 -24 -8.5t-6 -32.5v-321q0 -22 6 -31t24 -9h34z" />
    <glyph glyph-name="afii10071" unicode="&#x451;" horiz-adv-x="408" 
d="M378 233h-256v-17q0 -92 28.5 -143.5t77.5 -51.5q84 0 120 121l23 -10q-17 -66 -63 -106t-94 -40q-86 0 -135 70t-49 173q0 98 50 171q51 72 136 72q79 0 120.5 -64t41.5 -175zM215 443q-42 0 -66 -47.5t-27 -132.5h141q22 0 22 29q0 67 -19 109t-51 42zM124 654
q18 0 30.5 -14.5t12.5 -34.5t-12.5 -34t-30.5 -14q-17 0 -29 14t-12 34t12 34.5t29 14.5zM283 654q18 0 30 -14.5t12 -34.5t-12 -34t-30 -14q-17 0 -29.5 14t-12.5 34t12.5 34.5t29.5 14.5z" />
    <glyph glyph-name="afii10099" unicode="&#x452;" horiz-adv-x="478" 
d="M437 296v-273q0 -106 -47 -165q-46 -60 -95 -60q-38 0 -63 18.5t-25 59.5q0 21 13 36t31 15q19 0 31 -11.5t12 -31.5q0 -14 -15 -26.5t-33 -12.5q4 -8 19 -13.5t30 -5.5q51 0 51 155v303q0 76 -15 107t-53 31q-39 0 -75 -53t-36 -122v-179q0 -23 6 -31.5t23 -8.5h28v-28
h-212v28h34q18 0 24 9t6 31v474h-62v34h62v80q0 24 -6.5 33t-26.5 9h-31v28l155 10v-160h179v-34h-179v-206q16 61 56.5 98.5t91.5 37.5q65 0 93.5 -44t28.5 -132z" />
    <glyph glyph-name="afii10100" unicode="&#x453;" horiz-adv-x="377" 
d="M22 458h334l9 -178h-25q-13 91 -31 122q-16 28 -50 28h-54q-17 0 -23 -8.5t-6 -32.5v-321q0 -22 6 -31t23 -9h42v-28h-225v28h34q17 0 23 9t6 31v321q0 24 -6 32.5t-23 8.5h-34v28zM203 566l-27 -24l-15 10q2 5 7.5 18.5t9.5 21.5l27 66q27 55 58 55q13 0 23 -9.5
t10 -20.5q0 -23 -32 -58q-19 -21 -28 -29q-12 -12 -33 -30z" />
    <glyph glyph-name="afii10101" unicode="&#x454;" horiz-adv-x="389" 
d="M343 142l22 -11q-21 -68 -60.5 -106.5t-88.5 -38.5q-82 0 -134 66q-52 67 -52 171q0 101 54 175q56 74 142 74q60 0 97 -32.5t37 -92.5q0 -25 -13.5 -43t-34.5 -18q-25 0 -37.5 16t-12.5 38q0 24 12 37.5t31 13.5q10 0 23 -5q-24 61 -97 61q-45 0 -75 -53.5t-34 -143.5
q61 0 129 4v-36q-103 4 -129 4q1 -89 30.5 -143t77.5 -54q80 0 113 117z" />
    <glyph glyph-name="afii10102" unicode="&#x455;" horiz-adv-x="370" 
d="M181 -14q-32 0 -62.5 16t-49.5 43l-14 -59h-21l-9 188h20q28 -160 137 -160q38 0 61.5 22.5t23.5 65.5q4 33 -26 58q-5 5 -39 18q-23 9 -47 12q-61 16 -89.5 48.5t-28.5 97.5q0 64 38.5 100t100.5 36q66 0 108 -55l12 54h21l9 -168h-19q-16 74 -51.5 109t-78.5 35
q-34 0 -57.5 -23.5t-23.5 -61.5t26.5 -56t89.5 -32q68 -15 100 -45.5t32 -93.5q0 -68 -43.5 -108.5t-119.5 -40.5z" />
    <glyph glyph-name="afii10103" unicode="&#x456;" horiz-adv-x="255" 
d="M184 611q0 -23 -16 -40.5t-38 -17.5t-38.5 17.5t-16.5 40.5q0 24 16 41t39 17q22 0 38 -17t16 -41zM247 28v-28h-225v28h34q17 0 23 9t6 31v321q0 25 -6 33.5t-27 8.5h-30v28l154 10v-401q0 -22 6 -31t23 -9h42z" />
    <glyph glyph-name="afii10104" unicode="&#x457;" horiz-adv-x="255" 
d="M247 28v-28h-225v28h34q17 0 23 9t6 31v321q0 25 -6 33.5t-27 8.5h-30v28l154 10v-401q0 -22 6 -31t23 -9h42zM146 605q0 20 12 34.5t29 14.5t30 -14.5t13 -34.5q0 -19 -13 -33.5t-30 -14.5t-29 14.5t-12 33.5zM117 605q0 -19 -13 -33.5t-30 -14.5t-29.5 14t-12.5 34
t12.5 34.5t29.5 14.5t30 -14.5t13 -34.5z" />
    <glyph glyph-name="afii10105" unicode="&#x458;" horiz-adv-x="231" 
d="M29 459l154 11v-470q0 -107 -43 -154q-44 -48 -100 -48q-86 0 -86 78q0 21 12.5 36t30.5 15q19 0 31 -11.5t12 -32.5q0 -15 -10 -26.5t-27 -11.5q-13 0 -19 2q16 -21 52 -21q17 0 28.5 12.5t19.5 52.5t8 109v389q0 25 -6.5 33.5t-27.5 8.5h-29v28zM191 611
q0 -23 -16 -40.5t-38 -17.5t-38.5 17.5t-16.5 40.5q0 24 16 41t39 17q22 0 38 -17t16 -41z" />
    <glyph glyph-name="afii10106" unicode="&#x459;" horiz-adv-x="632" 
d="M395 402v-141h81q64 0 100.5 -34t36.5 -96q0 -131 -156 -131h-217v28h33q19 0 24.5 13t5.5 49v314q0 15 -5 20.5t-18 5.5h-73q-17 0 -23 -9.5t-6 -31.5q0 -44 -2 -102q-2 -117 -16 -177q-25 -123 -87 -123q-26 0 -43 18.5t-17 52.5q0 22 12.5 37t30.5 15q38 0 38 -46
q0 -16 -9 -27t-24 -11l-19 4q8 -17 32 -17q77 0 77 376q0 23 -6.5 32t-23.5 9h-34v28h370v-28h-34q-18 0 -23 -5.5t-5 -22.5zM447 234h-52v-148q0 -40 6 -49t32 -9h19q34 0 54 28t20 76t-21.5 75t-57.5 27z" />
    <glyph glyph-name="afii10107" unicode="&#x45a;" horiz-adv-x="679" 
d="M663 131q0 -62 -37.5 -96.5t-104.5 -34.5h-233v28h33q17 0 23 8.5t6 31.5v163h-174v-163q0 -22 6 -31t23 -9h33v-28h-216v28h34q17 0 23 9t6 31v321q0 24 -6 32.5t-23 8.5h-34v28h216v-28h-33q-17 0 -23 -8.5t-6 -32.5v-130h174v130q0 24 -6 32.5t-23 8.5h-33v28h217v-28
h-34q-18 0 -24 -8.5t-6 -32.5v-128h80q66 0 104 -34t38 -96zM492 233h-51v-165q0 -24 5 -32t22 -8h30q33 0 53.5 28t20.5 76t-21.5 74.5t-58.5 26.5z" />
    <glyph glyph-name="afii10108" unicode="&#x45b;" horiz-adv-x="512" 
d="M167 243v-175q0 -23 6 -31.5t23 -8.5h28v-28h-212v28h34q18 0 24 9t6 31v474h-62v34h62v80q0 25 -6.5 33.5t-27.5 8.5h-30v28l155 10v-160h179v-34h-179v-208q16 61 56.5 99.5t91.5 38.5q65 0 93.5 -44t28.5 -132v-228q0 -23 6 -31.5t24 -8.5h33v-28h-211v28h27
q18 0 24 8.5t6 31.5v216q0 76 -15 107t-53 31q-39 0 -75 -54t-36 -125z" />
    <glyph glyph-name="afii10109" unicode="&#x45c;" horiz-adv-x="473" 
d="M383 -14q-42 0 -64 37q-21 35 -29 81q-6 45 -25 81q-18 37 -52 37h-37v-154q0 -22 6 -31t23 -9h34v-28h-217v28h34q17 0 23 9t6 31v321q0 24 -6 32.5t-23 8.5h-34v28h217v-28h-34q-17 0 -23 -8.5t-6 -32.5v-139h57l85 135q14 20 14 31q0 14 -21 14h-33v28h169v-28h-17
q-26 0 -43 -10t-33 -35l-90 -137q42 -8 69.5 -43t34.5 -78q22 -102 38 -102q24 0 26 74h23q0 -113 -72 -113zM241 566l-27 -24l-15 10q2 5 7.5 18.5t9.5 21.5l27 66q27 55 58 55q13 0 23 -9.5t10 -20.5q0 -23 -32 -58q-19 -21 -28 -29q-12 -12 -33 -30z" />
    <glyph glyph-name="afii10110" unicode="&#x45e;" horiz-adv-x="460" 
d="M362 598q-8 -6 -21 -6q-15 0 -24 12t-9 30t11.5 30t28.5 12q18 0 30 -16t12 -37q0 -53 -35.5 -80t-96.5 -27t-96.5 27t-35.5 80q0 21 12 37t30 16q17 0 28.5 -12t11.5 -30t-9 -30t-24 -12q-13 0 -21 6q5 -34 54.5 -48t99 0t54.5 48zM456 458v-28h-14q-21 0 -33.5 -14
t-23.5 -48l-117 -368q-23 -71 -39 -107q-17 -41 -45 -67t-62 -26t-53 24.5t-19 65.5q0 19 13.5 33.5t32.5 14.5q17 0 27.5 -13.5t10.5 -31.5q0 -16 -10 -29.5t-27 -13.5q-11 0 -16 5q9 -32 41 -32q35 0 59.5 37t52.5 131l-160 379q-16 38 -25.5 49t-26.5 11h-18v28h205v-28
h-26q-18 0 -18 -12q0 -11 7 -29l106 -267l85 267l5 22q0 19 -20 19h-30v28h138z" />
    <glyph glyph-name="afii10193" unicode="&#x45f;" horiz-adv-x="525" 
d="M292 430v28h211v-28h-34q-17 0 -23 -8.5t-6 -31.5v-321q0 -24 6 -32.5t23 -8.5h34v-28h-226q1 -36 9 -72q8 -38 8 -44q0 -20 -16 -28.5t-32 0t-16 28.5q0 10 7 44q8 38 11 72h-226v28h34q17 0 23 8.5t6 32.5v321q0 22 -6 31t-23 9h-34v28h211v-28h-28q-17 0 -23 -9
t-6 -31v-336q0 -15 5 -20.5t18 -5.5h127q13 0 18 5.5t5 20.5v336q0 22 -6 31t-24 9h-27z" />
    <glyph glyph-name="afii10050" unicode="&#x490;" horiz-adv-x="496" 
d="M32 694v28h333q28 0 42 8q34 19 54 171h26l-8 -207h-232q-19 0 -25.5 -10.5t-6.5 -45.5v-555q0 -33 8 -44t29 -11h39v-28h-259v28h38q22 0 30 11t8 44v555q0 33 -8.5 44.5t-29.5 11.5h-38z" />
    <glyph glyph-name="afii10098" unicode="&#x491;" horiz-adv-x="372" 
d="M339 585h25l-8 -155h-151q-17 0 -23 -8.5t-6 -32.5v-321q0 -22 6 -31t23 -9h42v-28h-225v28h34q17 0 23 9t6 31v321q0 24 -6 32.5t-23 8.5h-34v28h242q23 0 35 5q24 13 40 122z" />
    <glyph glyph-name="endash" unicode="&#x2013;" horiz-adv-x="512" 
d="M467 290v-50h-423v50h423z" />
    <glyph glyph-name="emdash" unicode="&#x2014;" horiz-adv-x="695" 
d="M695 290v-50h-695v50h695z" />
    <glyph glyph-name="quoteleft" unicode="&#x2018;" horiz-adv-x="195" 
d="M36 574q0 49 24.5 90t69.5 65l11 -16q-68 -47 -68 -98q0 -12 3 -24q9 3 21 3q19 0 32.5 -15.5t13.5 -39.5t-15 -41t-35 -17q-27 0 -42 27t-15 66z" />
    <glyph glyph-name="quoteright" unicode="&#x2019;" horiz-adv-x="195" 
d="M143 636q0 -49 -24.5 -90t-69.5 -65l-11 16q68 47 68 98q0 12 -3 24q-9 -3 -21 -3q-19 0 -32.5 15.5t-13.5 39.5t15 41t35 17q27 0 42 -27t15 -66z" />
    <glyph glyph-name="quotesinglbase" unicode="&#x201a;" horiz-adv-x="203" 
d="M155 13q0 -49 -24.5 -90t-69.5 -65l-11 16q68 47 68 98q0 12 -3 24q-9 -3 -21 -3q-19 0 -32.5 15.5t-13.5 39.5t15 41t35 17q27 0 42 -27t15 -66z" />
    <glyph glyph-name="quotedblleft" unicode="&#x201c;" horiz-adv-x="350" 
d="M36 574q0 49 24.5 90t69.5 65l11 -16q-68 -47 -68 -98q0 -12 3 -24q9 3 21 3q19 0 32.5 -15.5t13.5 -39.5t-15 -41t-35 -17q-27 0 -42 27t-15 66zM181 574q0 49 24.5 90t69.5 65l11 -16q-68 -47 -68 -98q0 -12 3 -24q9 3 21 3q19 0 32.5 -15.5t13.5 -39.5t-15 -41
t-35 -17q-27 0 -42 27t-15 66z" />
    <glyph glyph-name="quotedblright" unicode="&#x201d;" horiz-adv-x="350" 
d="M288 636q0 -49 -24.5 -90t-69.5 -65l-11 16q68 47 68 98q0 12 -3 24q-9 -3 -21 -3q-19 0 -32.5 15.5t-13.5 39.5t15 41t35 17q27 0 42 -27t15 -66zM143 636q0 -49 -24.5 -90t-69.5 -65l-11 16q68 47 68 98q0 12 -3 24q-9 -3 -21 -3q-19 0 -32.5 15.5t-13.5 39.5t15 41
t35 17q27 0 42 -27t15 -66z" />
    <glyph glyph-name="quotedblbase" unicode="&#x201e;" horiz-adv-x="348" 
d="M300 13q0 -49 -24.5 -90t-69.5 -65l-11 16q68 47 68 98q0 12 -3 24q-9 -3 -21 -3q-19 0 -32.5 15.5t-13.5 39.5t15 41t35 17q27 0 42 -27t15 -66zM155 13q0 -49 -24.5 -90t-69.5 -65l-11 16q68 47 68 98q0 12 -3 24q-9 -3 -21 -3q-19 0 -32.5 15.5t-13.5 39.5t15 41
t35 17q27 0 42 -27t15 -66z" />
    <glyph glyph-name="dagger" unicode="&#x2020;" horiz-adv-x="451" 
d="M238 -188h-25q0 328 -39 470q17 17 29 63q13 45 13 93q-24 -4 -72 -16q-51 -13 -68 -13q-36 0 -36 40t36 40q8 1 33.5 -4.5t58 -13.5t48.5 -10q-2 34 -15 122q-12 90 -12 105q0 40 36 40q37 0 37 -40q0 -19 -13 -104q-13 -88 -15 -123q23 3 50 10q70 18 91 18
q36 0 36 -40t-36 -40q-18 0 -69 13q-48 12 -72 16q0 -49 13 -94q14 -46 30 -62q-39 -142 -39 -470z" />
    <glyph glyph-name="daggerdbl" unicode="&#x2021;" horiz-adv-x="451" 
d="M277 318q-43 -40 -43 -136q24 4 72 16q51 13 69 13q36 0 36 -40t-36 -40q-9 0 -36 5q-92 21 -106 23q2 -87 43 -128q-17 -17 -27 -85q-11 -74 -11 -134h-25q-2 68 -13 135q-10 69 -27 84q43 40 43 128q-16 -2 -48.5 -10t-58 -13.5t-33.5 -4.5q-36 0 -36 40t36 40
q17 0 68 -13q48 -12 72 -16q0 94 -42 136q42 42 42 120q-24 -4 -72 -16q-51 -13 -68 -13q-36 0 -36 40t36 40q8 1 33.5 -4.5t58 -13.5t48.5 -10q-2 34 -15 122q-12 90 -12 105q0 40 36 40q37 0 37 -40q0 -19 -13 -104q-13 -88 -15 -123q23 3 50 10q70 18 91 18q36 0 36 -40
t-36 -40q-18 0 -69 13q-48 12 -72 16q0 -80 43 -120z" />
    <glyph glyph-name="bullet" unicode="&#x2022;" horiz-adv-x="264" 
d="M48 317q0 41 23.5 68t60.5 27q36 0 60 -27t24 -68q0 -42 -24 -70t-60 -28q-37 0 -60.5 27.5t-23.5 70.5z" />
    <glyph glyph-name="ellipsis" unicode="&#x2026;" horiz-adv-x="583" 
d="M98 106q21 0 36 -17t15 -41t-15 -40.5t-36 -16.5q-20 0 -35 16.5t-15 40.5t15 41t35 17zM291 106q22 0 36.5 -17t14.5 -41t-14.5 -40.5t-36.5 -16.5q-20 0 -35 16.5t-15 40.5t15 41t35 17zM449 7q-14 17 -14 41t14 41q15 17 36 17t35 -17q15 -17 15 -41t-15 -41
q-14 -16 -35 -16t-36 16z" />
    <glyph glyph-name="perthousand" unicode="&#x2030;" horiz-adv-x="888" 
d="M734 7q54 0 54 159t-54 159q-55 0 -55 -159t55 -159zM43 510q0 78 28 128q28 52 83 52q54 0 82 -52q29 -52 29 -128q0 -80 -29 -130.5t-82 -50.5t-82 50.5t-29 130.5zM456 325q-54 0 -54 -159t54 -159t54 159t-54 159zM345 166q0 80 29 130.5t82 50.5q54 0 82 -52
q29 -53 29 -129t-29 -129q-28 -51 -82 -51t-83 51q-28 52 -28 129zM527 677l-398 -677h-45l398 677h45zM623 166q0 80 29 130.5t82 50.5t81 -52q29 -53 29 -129t-29 -129q-29 -51 -81 -51q-54 0 -83 51q-28 52 -28 129zM154 351q54 0 54 159t-54 159q-55 0 -55 -159t55 -159
z" />
    <glyph glyph-name="guilsinglleft" unicode="&#x2039;" horiz-adv-x="258" 
d="M197 27l-162 223l162 223h30l-109 -223l109 -223h-30z" />
    <glyph glyph-name="guilsinglright" unicode="&#x203a;" horiz-adv-x="258" 
d="M30 473h31l161 -223l-161 -223h-31l110 223z" />
    <glyph glyph-name="fraction" unicode="&#x2044;" horiz-adv-x="610" 
d="M527 677l-398 -677h-45l398 677h45z" />
    <glyph glyph-name="Euro" unicode="&#x20ac;" 
d="M454 250h26q-14 -129 -67.5 -196.5t-130.5 -67.5q-90 0 -151.5 77t-76.5 213h-50v40h46q-1 8 -1 40q0 1 2 39h-47v41h52q17 138 76 218q60 82 152 82q79 0 127 -88l18 87h23l13 -279h-25q-38 251 -147 251q-117 0 -130 -271h221l-16 -41h-206q-1 -4 -1 -37q0 -4 0.5 -22
t0.5 -20h183l-16 -40h-165q9 -122 44.5 -187t91.5 -65q123 0 154 226z" />
    <glyph glyph-name="afii61352" unicode="&#x2116;" horiz-adv-x="892" 
d="M852 65v-37h-210v37h210zM213 603h-4v-450q2 -71 -24.5 -118t-85.5 -49q-31 0 -52.5 26t-21.5 67q0 24 15 42t37 18t37.5 -16t15.5 -40q0 -17 -14 -31t-33 -14q-8 0 -16 2q9 -22 32 -22q30 0 48 23q31 40 31 112v485q0 33 -8 44.5t-29 11.5h-48v28h168l283 -537h4v384
q-2 71 24.5 118t85.5 49q31 0 52.5 -26t21.5 -67q0 -24 -15 -42t-37 -18t-37.5 16t-15.5 40q0 17 14 31t33 14q8 0 16 -2q-9 22 -32 22q-30 0 -49 -24q-29 -39 -29 -111v-569h-31zM643 302q0 78 27 126t76 48q50 0 77 -48t27 -126q0 -79 -27 -127t-77 -48q-49 0 -76 48.5
t-27 126.5zM746 143q54 0 54 159t-54 159q-53 0 -53 -159t53 -159z" />
    <glyph glyph-name="trademark" unicode="&#x2122;" horiz-adv-x="931" 
d="M43 722h328l9 -141h-23q-13 73 -26 95q-12 21 -36 21h-33q-10 0 -12.5 -6t-2.5 -28v-278q0 -21 5.5 -29.5t21.5 -8.5h29v-24h-192v24h29q18 0 22.5 6.5t4.5 29.5v281q0 22 -2.5 27.5t-11.5 5.5h-34q-24 0 -36 -21q-13 -22 -26 -95h-23zM891 347v-24h-194v24h34
q17 0 22.5 8t5.5 30v310l-126 -379h-22l-114 379h-5v-310q0 -21 6 -29.5t21 -8.5h35v-24h-137v24h25q16 0 22 8.5t6 29.5v275q0 20 -6 28.5t-22 8.5h-25v25h156l80 -274l88 274h150v-25h-25q-19 -3 -23 -15t-4 -46v-251q0 -21 5.5 -29.5t21.5 -8.5h25z" />
    <glyph glyph-name="Omega" unicode="&#x2126;" horiz-adv-x="635" 
d="M283 124v-124h-227l-18 189h26q18 -96 35 -116q11 -12 21.5 -14.5t40.5 -2.5h53q12 0 17 6t5 24v29q-89 25 -138 102t-49 201q0 154 73 236t195 82q125 0 197.5 -83t72.5 -235q0 -123 -49.5 -200.5t-138.5 -101.5v-30q0 -18 5 -24t17 -6h53q30 0 40.5 2.5t21.5 14.5
q17 20 35 116h26l-18 -189h-227v124q123 51 123 294q0 142 -42 215.5t-116 73.5t-115.5 -73.5t-41.5 -215.5q0 -244 123 -294z" />
    <glyph glyph-name="partialdiff" unicode="&#x2202;" horiz-adv-x="441" 
d="M148 604q0 -14 -9 -24.5t-23 -10.5t-23.5 11t-9.5 28q0 36 29.5 60.5t83.5 24.5q94 0 155 -90q62 -91 62 -265q0 -47 -7 -94t-24.5 -94.5t-42.5 -83t-65 -58t-89 -22.5q-72 0 -114.5 52.5t-42.5 137.5q0 128 51 210q51 83 141 83q86 0 107 -88q-2 134 -38.5 208
t-104.5 74q-45 0 -63 -27q12 -2 19.5 -12t7.5 -20zM190 14q37 0 69 47q60 94 60 228q0 144 -76 144q-60 0 -93 -87q-33 -86 -33 -194q0 -138 73 -138z" />
    <glyph glyph-name="increment" unicode="&#x2206;" horiz-adv-x="561" 
d="M526 0h-491v30l225 706h41l225 -706v-30zM455 62l-174 573l-174 -573h348z" />
    <glyph glyph-name="product" unicode="&#x220f;" horiz-adv-x="682" 
d="M650 28v-28h-259v28h39q21 0 29 11t8 44v568q0 27 -5.5 35t-22.5 8h-196q-17 0 -22.5 -8t-5.5 -35v-568q0 -33 8 -44t29 -11h39v-28h-259v28h38q22 0 30 11t8 44v555q0 33 -8.5 44.5t-29.5 11.5h-38v28h618v-28h-39q-21 0 -29 -11.5t-8 -44.5v-555q0 -33 8 -44t29 -11h39
z" />
    <glyph glyph-name="summation" unicode="&#x2211;" horiz-adv-x="546" 
d="M32 28l200 344l-200 322v28h451l12 -238h-26q-12 111 -34 163q-7 20 -22 32q-19 15 -53 15h-164q-40 0 -40 -13q0 -9 24 -43l164 -266l-164 -289q-15 -23 -15 -33q0 -22 36 -22h168q26 0 36.5 2.5t24.5 13.5q20 17 32 64t29 161h25l-14 -269h-470v28z" />
    <glyph glyph-name="minus" unicode="&#x2212;" horiz-adv-x="462" 
d="M406 352v-45h-350v45h350z" />
    <glyph glyph-name="radical" unicode="&#x221a;" horiz-adv-x="520" 
d="M271 94l99 672h121v-56h-80l-116 -727h-36l-164 431l-44 -26l-17 45l91 52z" />
    <glyph glyph-name="infinity" unicode="&#x221e;" horiz-adv-x="550" 
d="M130 220q22 0 52 27t55 66q-25 39 -55 66t-52 27q-47 1 -66.5 -46t0 -94t66.5 -46zM265 274q-20 -30 -37 -50q-17 -21 -44.5 -37.5t-53.5 -16.5q-55 0 -87.5 40.5t-32.5 102.5t32.5 102.5t87.5 40.5q28 0 55 -18q26 -16 41 -33t39 -52q19 29 36 49q18 21 45.5 37.5
t53.5 16.5q54 0 87 -41t33 -102q0 -59 -33 -101q-31 -42 -87 -42q-28 0 -56 18q-25 17 -40 34t-39 52zM400 406q-22 0 -52.5 -27t-55.5 -66q27 -40 56.5 -66.5t51.5 -26.5q34 0 54.5 27.5t20.5 65.5t-20.5 65.5t-54.5 27.5z" />
    <glyph glyph-name="integral" unicode="&#x222b;" horiz-adv-x="362" 
d="M87 -103q41 0 49 71q6 43 3 107l-9 173q-6 108 -8 209q0 80 12 149q26 158 116 175q40 5 63 -3q38 -14 42 -53q4 -21 -5 -41q-10 -25 -33 -25q-43 0 -43 51q0 23 14 40q-17 1 -25.5 -8t-9.5 -28q-29 -16 -28 -115q2 -97 8 -203q7 -142 9 -207q0 -83 -13 -147
q-28 -153 -122 -170q-19 -2 -40 5t-33 22q-14 13 -18 33q-4 21 6 39q10 25 32 25q19 0 31 -15t12 -36q0 -29 -21 -46q10 -2 11 -2z" />
    <glyph glyph-name="approxequal" unicode="&#x2248;" horiz-adv-x="458" 
d="M311 382q43 0 76 63l31 -23q-29 -48 -55 -66.5t-63 -18.5q-25 -1 -55 18t-56 37.5t-41 17.5q-45 0 -78 -63l-30 23q29 48 55 66.5t63 18.5q36 0 82 -37q48 -36 71 -36zM311 215q43 0 76 63l31 -23q-29 -48 -55 -66.5t-63 -18.5q-25 -1 -55 18t-56 37.5t-41 17.5
q-45 0 -78 -63l-30 23q29 48 55 66.5t63 18.5q36 0 82 -37q48 -36 71 -36z" />
    <glyph glyph-name="notequal" unicode="&#x2260;" horiz-adv-x="462" 
d="M152 112l-36 25l38 85h-98v46h123l60 122h-183v46h208l54 111l36 -25l-40 -86h92v-46h-117l-59 -122h176v-46h-202z" />
    <glyph glyph-name="lessequal" unicode="&#x2264;" horiz-adv-x="462" 
d="M406 96v-46h-350v46h350zM406 215v-50l-350 185v20l350 185v-49l-261 -146z" />
    <glyph glyph-name="greaterequal" unicode="&#x2265;" horiz-adv-x="462" 
d="M406 96v-46h-350v46h350zM406 370v-20l-350 -185v50l261 145l-261 146v49z" />
    <glyph glyph-name="lozenge" unicode="&#x25ca;" horiz-adv-x="465" 
d="M215 722h34l161 -361l-161 -361h-34l-161 361zM107 361l124 -292l126 292l-126 291z" />
    <glyph glyph-name="NULL" horiz-adv-x="0" 
 />
    <glyph glyph-name="CR" horiz-adv-x="333" 
 />
    <glyph glyph-name="afii10072.alt" horiz-adv-x="672" 
d="M197 248q-22 103 -44.5 149.5t-59.5 46.5q-9 0 -17 -5q39 -9 39 -41q0 -16 -11 -28.5t-29 -12.5t-29.5 14.5t-11.5 35.5q0 31 17 46.5t43 15.5q47 0 80.5 -58t51.5 -161h65v139q0 24 -6 32.5t-24 8.5h-26v28h202v-28h-26q-17 0 -23.5 -9t-6.5 -32v-139h64
q18 103 51.5 161t80.5 58q26 0 43 -15.5t17 -46.5q0 -21 -11.5 -35.5t-29.5 -14.5t-29 12.5t-11 28.5q0 32 39 41q-8 5 -17 5q-37 0 -59.5 -46.5t-44.5 -149.5q40 -6 64.5 -42.5t30.5 -76t14.5 -72t20.5 -32.5q21 0 23 74h22q0 -60 -18 -85.5t-67 -25.5q-29 0 -46 24
t-23 58.5l-12 69t-21 58.5t-42 24h-39v-154q0 -22 6 -31t24 -9h26v-28h-202v28h26q18 0 24 8.5t6 31.5v154h-40q-33 0 -49 -37q-14 -34 -19 -80q-3 -43 -21 -81q-18 -36 -55 -36q-49 0 -67 25.5t-18 85.5h23q2 -74 23 -74q19 0 35 103q7 43 32 78.5t62 41.5z" />
    <glyph glyph-name="afii10076.alt" horiz-adv-x="473" 
d="M281 248q43 -7 67 -45q23 -35 28 -76q14 -102 30 -102q24 0 26 74h23q0 -113 -72 -113q-34 0 -53 24.5t-25.5 59t-11.5 69t-20 59t-43 24.5h-54v-154q0 -22 6 -31t23 -9h34v-28h-217v28h34q17 0 23 9t6 31v321q0 24 -6 32.5t-23 8.5h-34v28h217v-28h-34q-17 0 -23 -8.5
t-6 -32.5v-139h76q18 103 51.5 161t80.5 58q26 0 43 -15.5t17 -46.5q0 -21 -11.5 -35.5t-29.5 -14.5t-29 12.5t-11 28.5q0 32 39 41q-8 5 -17 5q-37 0 -59.5 -46.5t-44.5 -149.5z" />
    <glyph glyph-name="afii10024.alt" horiz-adv-x="863" 
d="M311 388h66v250q0 33 -7.5 44.5t-28.5 11.5h-44v28h269v-28h-43q-21 0 -29.5 -11.5t-8.5 -44.5v-250h66q34 159 76 245q53 103 139 103q38 0 58 -24.5t20 -60.5q0 -26 -15.5 -46t-37.5 -20q-24 0 -38.5 16t-14.5 42q0 17 13.5 30t35.5 16q-12 12 -29 12q-53 0 -93 -74
t-79 -240q51 -4 84.5 -39.5t46.5 -89.5q8 -32 18.5 -95t20 -93t24.5 -30q18 0 29.5 34t12.5 93h25q-5 -174 -90 -174q-49 0 -77.5 35.5t-37.5 93.5q-2 16 -5 45.5t-5.5 48t-7 43.5t-11 40.5t-15.5 31t-23.5 22t-32.5 6.5h-57v-276q0 -33 8 -44t30 -11h43v-28h-269v28h44
q21 0 28.5 11t7.5 44v276h-57q-74 0 -88 -129q-3 -31 -4 -41t-4.5 -39.5t-7 -41.5t-10 -35t-15.5 -34t-21 -24t-28.5 -17.5t-36.5 -4.5q-85 0 -90 174h25q1 -59 12.5 -93t29.5 -34q26 0 42 118q6 43 14 76t24.5 70t45.5 59t68 24q-39 166 -79 240t-93 74q-17 0 -29 -12
q22 -3 35.5 -16t13.5 -30q0 -26 -14.5 -42t-38.5 -16q-22 0 -37.5 20t-15.5 46q0 36 20 60.5t58 24.5q88 0 138 -103q42 -81 77 -245z" />
    <glyph glyph-name="afii10028.alt" horiz-adv-x="636" 
d="M592 167h25q-3 -92 -28 -134.5t-81 -42.5q-80 0 -107 130q-3 14 -8.5 45t-9 48.5t-10 44t-14 41.5t-17.5 31t-23.5 22.5t-30.5 6.5h-73v-276q0 -33 8 -44t29 -11h39v-28h-259v28h38q22 0 30 11t8 44v555q0 33 -8.5 44.5t-29.5 11.5h-38v28h259v-28h-39q-21 0 -29 -11.5
t-8 -44.5v-250h86q34 159 76 245q53 103 139 103q38 0 58 -24.5t20 -60.5q0 -26 -15.5 -46t-37.5 -20q-24 0 -38.5 16t-14.5 42q0 17 13.5 30t35.5 16q-12 12 -29 12q-53 0 -93 -74t-79 -240q50 0 85.5 -34t51.5 -88q10 -34 23.5 -98t24.5 -95.5t28 -31.5q39 0 43 127z" />
    <glyph glyph-name="zero.alt" 
d="M252 472q106 0 162 -69q57 -67 57 -174q0 -106 -57 -175q-56 -68 -162 -68q-105 0 -162 68q-57 69 -57 175q0 107 57 174q57 69 162 69zM140 229q0 -99 30 -157t82 -58q53 0 83 57.5t30 157.5q0 99 -30 156.5t-83 57.5q-52 0 -82 -58t-30 -156z" />
    <glyph glyph-name="one.alt" horiz-adv-x="443" 
d="M256 472h22v-366q0 -49 10 -63.5t41 -14.5h55v-28h-311v28h53q34 0 43 13q10 13 10 65v198q0 52 -16 52q-9 0 -20 -3l-60 -14v28q67 17 106 35q35 16 46 30t21 40z" />
    <glyph glyph-name="two.alt" 
d="M435 180h21l-16 -180h-386v28q149 87 212 147q61 58 61 132q0 62 -25 97t-74 35q-55 0 -92.5 -34t-37.5 -86q17 14 35 14q19 0 31 -11.5t12 -31.5q0 -22 -13.5 -38t-32.5 -16q-26 0 -41.5 24t-15.5 59q0 76 56 114q55 39 127 39q74 0 128 -42t54 -117q0 -67 -37 -105
q-38 -38 -115 -78q-100 -52 -100 -57q0 -7 18 -7h160q30 0 41 17q10 16 30 97z" />
    <glyph glyph-name="three.alt" 
d="M445 -13q0 -84 -58 -136q-59 -53 -144 -53q-30 0 -58.5 8.5t-56.5 26t-45 52t-17 81.5q0 22 14.5 39t33.5 17t33.5 -16.5t14.5 -39.5q0 -21 -11.5 -34.5t-29.5 -13.5q-17 0 -27 8q7 -43 48 -70q40 -27 82 -27q53 0 87.5 42t34.5 117q0 71 -26.5 108t-74.5 37q-7 0 -30 -3
q-22 -3 -32 -3q-12 -2 -15 14q-4 21 8 28l7 1q10 0 30 -4q23 -3 32 -3q40 0 64.5 39.5t24.5 107.5q0 66 -28.5 98.5t-76.5 32.5q-38 0 -78 -31q-39 -32 -45 -72q7 7 22 7q19 0 31.5 -15t12.5 -36q0 -22 -14.5 -38.5t-33.5 -16.5t-33.5 16.5t-14.5 39.5q0 85 54 131
q53 46 125 46q83 0 129.5 -40.5t46.5 -119.5q0 -59 -34 -101t-98 -60q71 -10 108.5 -52.5t37.5 -111.5z" />
    <glyph glyph-name="four.alt" 
d="M370 0v-161l-86 -27h-12v188h-247v31l324 441h21v-421h103v-51h-103zM272 51v265l-191 -265h191z" />
    <glyph glyph-name="five.alt" 
d="M445 18q0 -100 -57 -160t-155 -60q-68 -3 -120 38t-53 127q0 24 14.5 42t34.5 18q18 0 29.5 -16t11.5 -36q0 -21 -10.5 -36.5t-25.5 -15.5q-13 0 -23 7q9 -46 47.5 -71.5t84.5 -25.5q59 0 91 50.5t32 137.5q0 88 -32 135t-83 47q-71 0 -108 -55q0 -24 -8 -39t-18 -15
q-21 0 -21 25q0 23 20 48l20 305q93 -25 201 -25q25 0 46.5 3.5t34.5 8t22 9t13.5 8t5.5 3.5q2 0 2 -2q0 -38 -47 -73q-46 -33 -111 -33q-67 0 -144 20l-13 -201q50 47 113 47q104 0 155 -61q51 -62 51 -154z" />
    <glyph glyph-name="six.alt" 
d="M459 210q0 -110 -59 -167q-58 -57 -146 -57q-104 0 -156 78.5t-52 222.5q0 165 67 262t180 97q61 0 100.5 -34.5t39.5 -89.5q0 -27 -15 -44t-37 -17q-21 0 -33 16.5t-12 38.5q0 16 12 31.5t30 15.5q11 0 20 -3q-14 31 -43.5 45.5t-61.5 14.5q-150 0 -150 -330
q31 114 138 114q85 0 131.5 -53.5t46.5 -140.5zM254 14q48 0 77 46t29 140q0 80 -27 124.5t-75 44.5q-49 0 -78.5 -50.5t-29.5 -130.5q0 -78 29 -126t75 -48z" />
    <glyph glyph-name="seven.alt" 
d="M463 458v-28q-119 -252 -145 -330q-28 -82 -37 -234q-4 -70 -53 -70q-56 0 -56 75q0 99 44 191q33 67 43 85q12 22 70 113q59 93 76 121h-264q-27 -3 -34 -12q-12 -14 -31 -122q-1 -8 -3 -19h-26l22 230h394z" />
    <glyph glyph-name="eight.alt" horiz-adv-x="490" 
d="M426 499q0 -52 -27.5 -84t-91.5 -61q71 -34 105.5 -75.5t34.5 -103.5q0 -91 -64 -140q-62 -49 -151 -49q-90 0 -140 43.5t-50 119.5q0 53 30 92.5t94 72.5q-54 31 -79 67t-25 93q0 81 57 126q56 46 142 46q76 0 120.5 -39t44.5 -108zM353 138q0 54 -35 83q-20 17 -35 25
q-12 9 -45 25l-46 25q-51 -36 -72 -66.5t-21 -78.5q0 -63 36.5 -100t97.5 -37q55 0 87.5 33t32.5 91zM148 500q0 -54 41 -84q17 -12 40 -25l51 -23q49 36 69 64t20 68q0 54 -30.5 86t-79.5 32q-47 0 -79 -31.5t-32 -86.5z" />
    <glyph glyph-name="nine.alt" 
d="M46 248q0 110 59 167t146 57q104 0 156 -78.5t52 -222.5q0 -166 -68 -270q-67 -103 -179 -103q-61 0 -100.5 34.5t-39.5 89.5q0 27 15 44t37 17q21 0 33 -16.5t12 -38.5q0 -16 -12 -31.5t-30 -15.5q-11 0 -20 3q14 -31 43.5 -45.5t61.5 -14.5q150 0 150 344
q-32 -114 -138 -114q-85 0 -131.5 53.5t-46.5 140.5zM251 444q-48 0 -77 -46t-29 -140q0 -80 27 -124.5t75 -44.5q49 0 78.5 50.5t29.5 130.5q0 78 -29 126t-75 48z" />
    <glyph glyph-name="commaaccent" horiz-adv-x="224" 
d="M165 -146q0 -49 -24.5 -90t-69.5 -65l-11 16q68 47 68 98q0 12 -3 24q-9 -3 -21 -3q-19 0 -32.5 15.5t-13.5 39.5t15 41t35 17q27 0 42 -27t15 -66z" />
    <glyph glyph-name="afii10017small" horiz-adv-x="474" 
d="M318 63l-28 89h-166l-24 -75q-6 -19 -6 -29q0 -25 29 -25h24v-23h-143v23h13q35 0 54 54l147 417h44l154 -431q13 -40 46 -40h8v-23h-201v23h32q24 0 24 16q0 9 -7 24zM279 179l-70 221l-74 -221h144z" />
    <glyph glyph-name="afii10018small" horiz-adv-x="452" 
d="M256 246h-68v-183q0 -40 15 -40h54q32 0 52 32t20 79q0 51 -18.5 81.5t-54.5 30.5zM428 134q0 -62 -43 -98t-115 -36h-238v23h27q17 0 24 7.5t7 27.5v362q0 23 -7 31.5t-24 8.5h-27v24h353l6 -155h-23q-12 81 -31 106q-18 25 -48 25h-70q-17 0 -24 -7.5t-7 -27.5v-155h82
q72 0 115 -36.5t43 -99.5z" />
    <glyph glyph-name="afii10019small" horiz-adv-x="461" 
d="M434 133q0 -62 -43 -97.5t-115 -35.5h-244v23h27q17 0 24 8.5t7 31.5v357q0 23 -7 31.5t-24 8.5h-27v24h222q76 0 117 -30.5t41 -89.5q0 -41 -31.5 -71.5t-83.5 -38.5q66 -7 101.5 -38.5t35.5 -82.5zM336 133q0 46 -24.5 75.5t-66.5 29.5h-57v-180q0 -22 4 -28.5t17 -6.5
h54q33 0 53 31t20 79zM316 361q0 99 -81 99h-32q-15 0 -15 -25v-173h56q31 0 51.5 29.5t20.5 69.5z" />
    <glyph glyph-name="afii10020small" horiz-adv-x="414" 
d="M285 460h-72q-16 0 -20.5 -7t-4.5 -33v-357q0 -24 6.5 -32t24.5 -8h27v-23h-214v23h27q17 0 24 8.5t7 31.5v357q0 23 -7 31.5t-24 8.5h-27v24h358l7 -178h-22q-14 95 -35 124q-20 30 -55 30z" />
    <glyph glyph-name="afii10021small" horiz-adv-x="518" 
d="M320 54v375q0 18 -4.5 24.5t-17.5 6.5h-87q-28 0 -28 -40q0 -180 -33 -316q-13 -54 -40 -81h188q13 0 17.5 6t4.5 25zM480 23l7 -149h-22q-12 74 -32 101q-19 25 -52 25h-253q-36 0 -56 -24q-20 -25 -32 -102h-23l8 149h45q38 18 60.5 121.5t22.5 275.5q0 23 -8 31.5
t-27 8.5h-27v24h385v-24h-27q-18 0 -24.5 -8t-6.5 -32v-360q0 -21 7.5 -29t23.5 -8h31z" />
    <glyph glyph-name="afii10022small" horiz-adv-x="454" 
d="M290 460h-79q-15 0 -20.5 -8t-5.5 -32v-157h49q31 0 44 20t13 76h23v-217h-23q0 56 -13 76.5t-44 20.5h-49v-176q0 -24 6.5 -32t24.5 -8h88q24 0 33 3t20 17q16 22 35 138h23l-11 -181h-375v23h27q18 0 25 8.5t7 31.5v357q0 23 -7 31.5t-25 8.5h-27v24h360l10 -161h-23
q-11 65 -24 95q-12 29 -23.5 35.5t-38.5 6.5z" />
    <glyph glyph-name="afii10024small" horiz-adv-x="696" 
d="M254 263h45v157q0 24 -6.5 32t-24.5 8h-32v24h223v-24h-30q-19 0 -25.5 -7t-6.5 -30v-160h45l96 147q14 23 14 32q0 19 -23 19h-26v23h170v-23h-17q-29 0 -44 -10t-37 -41l-101 -148q42 -4 68.5 -29t36.5 -57.5t15 -65t12 -54.5t20 -22q30 0 31 84h23q-5 -123 -70 -123
q-40 0 -64.5 23.5t-33.5 61.5q-2 11 -7 42t-9 45t-11.5 34t-20 28.5t-29.5 8.5h-38v-175q0 -24 7 -32t25 -8h30v-23h-223v23h32q16 0 23.5 8t7.5 28v179h-38q-51 0 -65 -86q-4 -27 -5.5 -36.5t-7 -33.5t-12.5 -35t-18.5 -25.5t-28 -20.5t-38.5 -6q-66 0 -70 123h23
q1 -84 31 -84q13 0 20 22t12 54.5t15 65t36.5 57.5t68.5 29l-101 148q-22 31 -37 41t-44 10h-17v23h170v-23h-26q-23 0 -23 -19q0 -9 14 -32z" />
    <glyph glyph-name="afii10025small" horiz-adv-x="400" 
d="M373 132q0 -65 -54 -104q-55 -38 -127 -38q-37 0 -73 11q-39 12 -66 46t-27 83q0 18 12 30.5t29 12.5q18 0 30 -12.5t12 -30.5q0 -26 -24 -37q-11 -5 -22 -2q29 -74 116 -74q40 0 68 33.5t28 84.5q0 49 -22 76t-59 27q-27 0 -55 -4v33q45 -5 54 -5q31 0 49.5 29t18.5 79
q0 46 -21 72.5t-54 26.5q-90 0 -116 -155h-22l7 178h21l12 -48q43 49 118 49q73 0 112 -31.5t39 -92.5q0 -43 -29 -74.5t-80 -41.5q60 -7 92.5 -38.5t32.5 -82.5z" />
    <glyph glyph-name="afii10026small" horiz-adv-x="568" 
d="M536 23v-23h-207v23h25q14 0 20 8.5t6 31.5v295l-192 -276v-19q0 -23 6 -31.5t20 -8.5h25v-23h-207v23h27q17 0 24 8.5t7 31.5v357q0 24 -7 32.5t-24 8.5h-27v23h207v-23h-25q-26 0 -26 -41v-290l192 276v14q0 41 -26 41h-25v23h207v-23h-27q-18 0 -24.5 -8.5t-6.5 -32.5
v-357q0 -24 6.5 -32t24.5 -8h27z" />
    <glyph glyph-name="afii10027small" horiz-adv-x="568" 
d="M536 23v-23h-212v23h25q18 0 24.5 8t6.5 32v295l-192 -276v-19q0 -23 6 -31.5t20 -8.5h25v-23h-207v23h27q17 0 24 8.5t7 31.5v357q0 24 -7 32.5t-24 8.5h-27v23h207v-23h-25q-26 0 -26 -41v-290l192 276v14q0 24 -6.5 32.5t-24.5 8.5h-25v23h212v-23h-27
q-18 0 -24.5 -8.5t-6.5 -32.5v-357q0 -24 6.5 -32t24.5 -8h27zM368 568q-40 1 -40 33q0 15 10 26t25 11t26.5 -13.5t11.5 -29.5q0 -41 -31 -62.5t-86 -21.5t-86 21.5t-31 62.5q0 16 11.5 29.5t26.5 13.5t25 -11t10 -26q0 -32 -40 -33q13 -34 84 -34t84 34z" />
    <glyph glyph-name="afii10028small" horiz-adv-x="521" 
d="M479 118h22q-2 -65 -23 -95t-68 -30q-36 0 -58 25.5t-31.5 61.5t-17.5 72t-25.5 61.5t-47.5 25.5h-42v-176q0 -24 6.5 -32t24.5 -8h27v-23h-214v23h27q17 0 24 7.5t7 27.5v362q0 24 -7 32.5t-24 8.5h-27v23h214v-23h-27q-16 0 -23.5 -8t-7.5 -29v-161h58l109 147
q12 16 12 32q0 19 -23 19h-26v23h170v-23h-17q-31 0 -44 -10q-17 -14 -37 -41l-112 -148q51 -9 84 -45t42 -80q22 -103 44 -103q28 0 31 84z" />
    <glyph glyph-name="afii10029small" horiz-adv-x="514" 
d="M482 23v-23h-215v23h27q17 0 24 7.5t7 27.5v373q0 18 -4.5 23.5t-17.5 5.5h-81q-27 0 -27 -40q0 -209 -26 -324q-24 -105 -100 -105q-26 0 -43.5 20.5t-17.5 49.5q0 20 13.5 33.5t32.5 13.5t30.5 -11.5t11.5 -30.5q0 -15 -12.5 -25.5t-33.5 -10.5q6 -13 24 -13
q20 0 35.5 18.5t28.5 62t19.5 124.5t6.5 198q0 23 -8 31.5t-27 8.5h-28v24h381v-24h-27q-18 0 -25 -7t-7 -27v-363q0 -23 7 -31.5t25 -8.5h27z" />
    <glyph glyph-name="afii10030small" horiz-adv-x="652" 
d="M620 23v-23h-213v23h27q17 0 24 7t7 27v403h-5l-158 -460h-23l-157 460h-4v-388q0 -49 35 -49h22v-23h-146v23h23q16 0 26 11.5t10 31.5v354q0 23 -7 31.5t-25 8.5h-27v24h186l110 -328l114 328h181v-24h-26q-18 0 -24.5 -6.5t-6.5 -28.5v-362q0 -24 6.5 -32t24.5 -8h26z
" />
    <glyph glyph-name="afii10031small" horiz-adv-x="558" 
d="M526 23v-23h-207v23h25q14 0 20 8.5t6 31.5v174h-182v-174q0 -23 6 -31.5t20 -8.5h25v-23h-207v23h27q17 0 24 8.5t7 31.5v357q0 23 -7 31.5t-24 8.5h-27v24h207v-24h-25q-14 0 -20 -8.5t-6 -31.5v-151h182v151q0 23 -6 31.5t-20 8.5h-25v24h207v-24h-27q-18 0 -24.5 -8
t-6.5 -32v-357q0 -24 6.5 -32t24.5 -8h27z" />
    <glyph glyph-name="afii10032small" horiz-adv-x="495" 
d="M247 -10q-101 0 -158 71q-56 71 -56 181q0 109 56 180q57 71 158 71q102 0 158 -71q57 -70 57 -180t-57 -181q-56 -71 -158 -71zM134 242q0 -108 28.5 -168t84.5 -60t84.5 60t28.5 168t-28.5 167.5t-84.5 59.5t-84.5 -60t-28.5 -167z" />
    <glyph glyph-name="afii10033small" horiz-adv-x="558" 
d="M526 23v-23h-207v23h25q16 0 21 7.5t5 32.5v368q0 18 -4.5 23.5t-17.5 5.5h-138q-13 0 -17.5 -5.5t-4.5 -23.5v-368q0 -25 5 -32.5t21 -7.5h25v-23h-207v23h27q17 0 24 8.5t7 31.5v357q0 23 -7 31.5t-24 8.5h-27v24h494v-24h-27q-18 0 -24.5 -8t-6.5 -32v-357
q0 -24 6.5 -32t24.5 -8h27z" />
    <glyph glyph-name="afii10034small" horiz-adv-x="446" 
d="M328 347q0 39 -20 76q-19 37 -63 37h-40q-10 0 -13.5 -8t-3.5 -32v-188h58q32 0 57 33q25 34 25 82zM264 208h-76v-145q0 -24 6.5 -32t24.5 -8h27v-23h-214v23h27q16 0 23.5 8t7.5 28v361q0 23 -7 31.5t-24 8.5h-27v24h232q73 0 117.5 -37t44.5 -100t-44.5 -101
t-117.5 -38z" />
    <glyph glyph-name="afii10035small" horiz-adv-x="444" 
d="M390 168h24q-12 -92 -64 -135q-50 -43 -111 -43q-88 0 -147 65q-59 67 -59 179q0 114 57 186q57 73 151 73q72 0 114 -58l16 57h21l14 -189h-23q-17 87 -51 126.5t-78 39.5q-56 0 -88 -57.5t-32 -172.5q0 -106 32.5 -161.5t88.5 -55.5q51 0 87 38.5t48 107.5z" />
    <glyph glyph-name="afii10036small" horiz-adv-x="458" 
d="M426 484l12 -176h-23q-15 100 -28 125q-12 27 -38 27h-45q-16 0 -21 -7t-5 -33v-357q0 -24 6.5 -32t24.5 -8h27v-23h-215v23h28q18 0 24.5 8t6.5 32v357q0 26 -5 33t-21 7h-45q-26 0 -39 -28q-13 -26 -28 -124h-22l12 176h394z" />
    <glyph glyph-name="afii10037small" horiz-adv-x="466" 
d="M465 484v-24h-19q-25 0 -45 -47l-141 -329q-40 -94 -109 -94q-34 0 -58 22t-24 58q0 21 14 35.5t34 14.5q16 0 29 -11t13 -31q0 -13 -10 -26t-24 -13q-21 0 -32 18q11 -42 58 -42q53 0 84 82l-156 311q-16 32 -27 42t-33 10h-15v24h219v-24h-29q-25 0 -25 -17
q0 -13 11 -37l100 -211l91 218q7 15 7 31t-19 16h-30v24h136z" />
    <glyph glyph-name="afii10038small" horiz-adv-x="572" 
d="M123 259q0 -76 28 -110.5t86 -34.5v287q-57 0 -85.5 -34t-28.5 -108zM29 259q0 79 55.5 122t152.5 43v19q0 24 -7 32.5t-25 8.5h-26v23h214v-23h-27q-18 0 -25 -8.5t-7 -32.5v-19q97 0 152 -42.5t56 -122.5q0 -80 -55.5 -124t-152.5 -44v-28q0 -23 7 -31.5t25 -8.5h27
v-23h-214v23h26q18 0 25 8.5t7 31.5v28q-96 0 -152 44t-56 124zM449 259q0 74 -28.5 108t-86.5 34v-287q58 0 86.5 34.5t28.5 110.5z" />
    <glyph glyph-name="afii10039small" horiz-adv-x="498" 
d="M485 23v-23h-223v23h34q19 0 19 11q0 6 -14 29l-84 148l-92 -153q-9 -15 -9 -24q0 -11 18 -11h30v-23h-152v23h16q40 0 65 40l108 175l-108 182q-24 40 -55 40h-14v24h219v-24h-29q-21 0 -21 -10q0 -8 13 -30l71 -124l81 132q20 32 -10 32h-25v24h148v-24h-16
q-42 0 -67 -40l-94 -151l121 -206q24 -40 55 -40h15z" />
    <glyph glyph-name="afii10040small" horiz-adv-x="568" 
d="M530 23l9 -149h-23q-12 79 -33 103q-21 23 -57 23h-394v23h27q17 0 24 8.5t7 31.5v357q0 23 -7 31.5t-24 8.5h-27v24h206v-24h-24q-14 0 -20 -8.5t-6 -31.5v-367q0 -18 4.5 -24t17.5 -6h138q13 0 17.5 6t4.5 24v367q0 23 -6 31.5t-20 8.5h-24v24h206v-24h-27
q-18 0 -24.5 -8t-6.5 -32v-357q0 -24 6.5 -32t24.5 -8h31z" />
    <glyph glyph-name="afii10041small" horiz-adv-x="512" 
d="M484 23v-23h-222v23h36q18 0 24.5 8t6.5 32v163q-60 -29 -125 -29q-68 0 -101.5 29t-33.5 98v96q0 24 -6.5 32t-24.5 8h-21v24h191v-24h-23q-11 0 -14.5 -7.5t-3.5 -32.5v-96q0 -53 18.5 -73.5t62.5 -20.5q30 0 81 19v171q0 25 -3.5 32.5t-15.5 7.5h-23v24h197v-24h-27
q-18 0 -24.5 -8t-6.5 -32v-357q0 -24 6.5 -32t24.5 -8h27z" />
    <glyph glyph-name="afii10042small" horiz-adv-x="785" 
d="M753 23v-23h-721v23h27q17 0 24 8.5t7 31.5v357q0 23 -7 31.5t-24 8.5h-27v24h204v-24h-24q-24 0 -24 -40v-367q0 -18 4.5 -24t17.5 -6h112q13 0 17.5 6t4.5 24v367q0 23 -6 31.5t-19 8.5h-24v24h195v-24h-24q-24 0 -24 -40v-367q0 -18 4.5 -24t17.5 -6h112q13 0 17.5 6
t4.5 24v367q0 40 -25 40h-24v24h204v-24h-27q-18 0 -24.5 -8t-6.5 -32v-357q0 -24 6.5 -32t24.5 -8h27z" />
    <glyph glyph-name="afii10043small" horiz-adv-x="796" 
d="M758 23l9 -149h-23q-12 79 -33 103q-21 23 -57 23h-622v23h27q17 0 24 8.5t7 31.5v357q0 23 -7 31.5t-24 8.5h-27v24h204v-24h-24q-13 0 -18.5 -8.5t-5.5 -31.5v-367q0 -18 4.5 -24t17.5 -6h112q13 0 17.5 6t4.5 24v367q0 23 -6 31.5t-19 8.5h-24v24h195v-24h-24
q-13 0 -18.5 -8.5t-5.5 -31.5v-367q0 -18 4.5 -24t17.5 -6h112q13 0 17.5 6t4.5 24v367q0 24 -5.5 32t-19.5 8h-24v24h204v-24h-27q-18 0 -24.5 -8t-6.5 -32v-357q0 -24 6.5 -32t24.5 -8h32z" />
    <glyph glyph-name="afii10044small" horiz-adv-x="510" 
d="M391 134q0 49 -23 80.5t-61 31.5h-54v-183q0 -24 3.5 -32t13.5 -8h48q32 0 52.5 32.5t20.5 78.5zM490 134q0 -62 -43.5 -98t-114.5 -36h-235v23h27q18 0 24.5 8t6.5 32v357q0 25 -5 32.5t-19 7.5h-37q-26 0 -40.5 -35.5t-23.5 -116.5h-22l12 176h300v-24h-36
q-18 0 -24.5 -8t-6.5 -32v-150h73q75 0 119.5 -36.5t44.5 -99.5z" />
    <glyph glyph-name="afii10045small" horiz-adv-x="678" 
d="M267 0h-235v23h27q17 0 24 8.5t7 31.5v357q0 23 -7 31.5t-24 8.5h-27v24h222v-24h-35q-18 0 -24.5 -8t-6.5 -32v-150h73q75 0 119 -36t44 -99q0 -62 -43 -98.5t-114 -36.5zM646 23v-23h-214v23h27q17 0 23.5 8t6.5 32v357q0 24 -6.5 32t-23.5 8h-27v24h214v-24h-27
q-18 0 -24.5 -8t-6.5 -32v-357q0 -24 6.5 -32t24.5 -8h27zM326 135q0 48 -23 79.5t-61 31.5h-54v-183q0 -24 4.5 -32t16.5 -8h48q30 0 49.5 32.5t19.5 79.5z" />
    <glyph glyph-name="afii10046small" horiz-adv-x="444" 
d="M424 134q0 -62 -43 -98t-114 -36h-235v23h27q17 0 24 8.5t7 31.5v357q0 23 -7 31.5t-24 8.5h-27v24h222v-24h-35q-18 0 -24.5 -8t-6.5 -32v-150h77q75 0 117 -35.5t42 -100.5zM326 134q0 50 -22.5 81t-60.5 31h-55v-183q0 -40 18 -40h48q32 0 52 32t20 79z" />
    <glyph glyph-name="afii10047small" horiz-adv-x="431" 
d="M398 234q0 -111 -62 -178q-62 -66 -150 -66q-68 0 -112.5 37t-44.5 102q0 17 12.5 30t29.5 13t29 -12.5t12 -29.5q0 -42 -37 -42q-9 0 -18 6q12 -35 45 -56t73 -21q55 0 88 56t34 160q-52 0 -157 -5v34q92 -4 157 -4q-2 111 -30 161t-81 50q-96 0 -127 -166h-23l9 189h21
l16 -57q46 58 112 58q94 0 149 -72q55 -71 55 -187z" />
    <glyph glyph-name="afii10048small" horiz-adv-x="720" 
d="M687 242q0 -106 -62 -180q-61 -72 -156 -72q-91 0 -148 68q-55 67 -60 173h-73v-168q0 -24 6.5 -32t24.5 -8h27v-23h-214v23h27q17 0 24 8.5t7 31.5v357q0 23 -7 31.5t-24 8.5h-27v24h214v-24h-27q-18 0 -24.5 -8t-6.5 -32v-156h73q8 100 63 164q57 65 145 65
q95 0 156 -73q62 -73 62 -178zM577 242q0 226 -108 226t-108 -226q0 -227 108 -227q53 0 80.5 60t27.5 167z" />
    <glyph glyph-name="afii10049small" horiz-adv-x="495" 
d="M247 250h60v170q0 40 -17 40h-51q-34 0 -53.5 -28t-19.5 -75q0 -51 21 -79t60 -28zM463 23v-23h-207v23h25q26 0 26 35v169h-46q-26 0 -43 -24.5t-27.5 -59.5t-23 -69.5t-38.5 -59t-64 -24.5q-30 0 -42 23t-15 82h23q3 -69 25 -69q15 0 37 92q9 39 37 72.5t70 44.5
q-63 6 -98 38.5t-35 83.5q0 127 184 127h212v-24h-27q-31 0 -31 -35v-362q0 -23 7 -31.5t24 -8.5h27z" />
    <glyph glyph-name="afii10023small" horiz-adv-x="456" 
d="M260 561q0 16 11 27t25 11q16 0 26 -11t10 -27q0 -15 -10.5 -26t-25.5 -11q-14 0 -25 11t-11 26zM131 561q-1 23 17.5 32.5t37.5 0t18 -32.5q0 -15 -11 -26t-26 -11t-25.5 11t-10.5 26zM290 460h-79q-15 0 -20.5 -8t-5.5 -32v-157h49q31 0 44 20t13 76h23v-217h-23
q0 56 -13 76.5t-44 20.5h-49v-176q0 -24 6.5 -32t24.5 -8h88q24 0 33 3t20 17q16 22 35 138h23l-11 -181h-375v23h27q18 0 25 8.5t7 31.5v357q0 23 -7 31.5t-25 8.5h-27v24h360l10 -161h-23q-11 65 -24 95q-12 29 -23.5 35.5t-38.5 6.5z" />
    <glyph glyph-name="Asmall" horiz-adv-x="474" 
d="M318 63l-28 89h-166l-24 -75q-6 -19 -6 -29q0 -25 29 -25h24v-23h-143v23h13q35 0 54 54l147 417h44l154 -431q13 -40 46 -40h8v-23h-201v23h32q24 0 24 16q0 9 -7 24zM279 179l-70 221l-74 -221h144z" />
    <glyph glyph-name="Bsmall" horiz-adv-x="461" 
d="M434 133q0 -62 -43 -97.5t-115 -35.5h-244v23h27q17 0 24 8.5t7 31.5v357q0 23 -7 31.5t-24 8.5h-27v24h222q76 0 117 -30.5t41 -89.5q0 -41 -31.5 -71.5t-83.5 -38.5q66 -7 101.5 -38.5t35.5 -82.5zM336 133q0 46 -24.5 75.5t-66.5 29.5h-57v-180q0 -22 4 -28.5t17 -6.5
h54q33 0 53 31t20 79zM316 361q0 99 -81 99h-32q-15 0 -15 -25v-173h56q31 0 51.5 29.5t20.5 69.5z" />
    <glyph glyph-name="Csmall" horiz-adv-x="444" 
d="M390 168h24q-12 -92 -64 -135q-50 -43 -111 -43q-88 0 -147 65q-59 67 -59 179q0 114 57 186q57 73 151 73q72 0 114 -58l16 57h21l14 -189h-23q-17 87 -51 126.5t-78 39.5q-56 0 -88 -57.5t-32 -172.5q0 -106 32.5 -161.5t88.5 -55.5q51 0 87 38.5t48 107.5z" />
    <glyph glyph-name="Esmall" horiz-adv-x="454" 
d="M290 460h-79q-15 0 -20.5 -8t-5.5 -32v-157h49q31 0 44 20t13 76h23v-217h-23q0 56 -13 76.5t-44 20.5h-49v-176q0 -24 6.5 -32t24.5 -8h88q24 0 33 3t20 17q16 22 35 138h23l-11 -181h-375v23h27q18 0 25 8.5t7 31.5v357q0 23 -7 31.5t-25 8.5h-27v24h360l10 -161h-23
q-11 65 -24 95q-12 29 -23.5 35.5t-38.5 6.5z" />
    <glyph glyph-name="Fsmall" horiz-adv-x="422" 
d="M254 23v-23h-222v23h27q17 0 24 8.5t7 31.5v357q0 23 -7 31.5t-24 8.5h-27v24h360l10 -161h-23q-17 98 -39 119q-12 12 -22 15t-30 3h-74q-16 0 -21 -7.5t-5 -32.5v-157h49q30 0 43 20t14 76h22v-217h-22q-1 56 -14 76.5t-43 20.5h-49v-176q0 -24 6.5 -32t24.5 -8h35z
" />
    <glyph glyph-name="Hsmall" horiz-adv-x="558" 
d="M526 23v-23h-207v23h25q14 0 20 8.5t6 31.5v174h-182v-174q0 -23 6 -31.5t20 -8.5h25v-23h-207v23h27q17 0 24 8.5t7 31.5v357q0 23 -7 31.5t-24 8.5h-27v24h207v-24h-25q-14 0 -20 -8.5t-6 -31.5v-151h182v151q0 23 -6 31.5t-20 8.5h-25v24h207v-24h-27q-18 0 -24.5 -8
t-6.5 -32v-357q0 -24 6.5 -32t24.5 -8h27z" />
    <glyph glyph-name="Ismall" horiz-adv-x="278" 
d="M188 420v-357q0 -24 6.5 -32t24.5 -8h27v-23h-214v23h27q17 0 24 8.5t7 31.5v357q0 23 -7 31.5t-24 8.5h-27v24h214v-24h-27q-18 0 -24.5 -8t-6.5 -32z" />
    <glyph glyph-name="Ksmall" horiz-adv-x="518" 
d="M508 23v-23h-205v23h27q11 0 11 13q0 7 -11 27l-97 170l-45 -50v-120q0 -40 18 -40h25v-23h-199v23h27q17 0 24 8.5t7 31.5v357q0 23 -7 31.5t-24 8.5h-27v24h214v-24h-27q-18 0 -24.5 -8t-6.5 -32v-194l167 187q19 20 19 31q0 16 -25 16h-25v24h170v-24h-17
q-39 0 -81 -48l-93 -105l140 -244q22 -40 53 -40h12z" />
    <glyph glyph-name="Lsmall" horiz-adv-x="427" 
d="M385 190h22l-12 -190h-368v23h27q17 0 24 8.5t7 31.5v357q0 23 -7 31.5t-24 8.5h-27v24h218v-24h-32q-17 0 -23.5 -8t-6.5 -32v-357q0 -24 6.5 -32t23.5 -8h83q21 0 35 8q32 21 54 159z" />
    <glyph glyph-name="Msmall" horiz-adv-x="652" 
d="M620 23v-23h-213v23h27q17 0 24 7t7 27v403h-5l-158 -460h-23l-157 460h-4v-388q0 -49 35 -49h22v-23h-146v23h23q16 0 26 11.5t10 31.5v354q0 23 -7 31.5t-25 8.5h-27v24h186l110 -328l114 328h181v-24h-26q-18 0 -24.5 -6.5t-6.5 -28.5v-362q0 -24 6.5 -32t24.5 -8h26z
" />
    <glyph glyph-name="Osmall" horiz-adv-x="495" 
d="M247 -10q-101 0 -158 71q-56 71 -56 181q0 109 56 180q57 71 158 71q102 0 158 -71q57 -70 57 -180t-57 -181q-56 -71 -158 -71zM134 242q0 -108 28.5 -168t84.5 -60t84.5 60t28.5 168t-28.5 167.5t-84.5 59.5t-84.5 -60t-28.5 -167z" />
    <glyph glyph-name="Psmall" horiz-adv-x="446" 
d="M328 347q0 39 -20 76q-19 37 -63 37h-40q-10 0 -13.5 -8t-3.5 -32v-188h58q32 0 57 33q25 34 25 82zM264 208h-76v-145q0 -24 6.5 -32t24.5 -8h27v-23h-214v23h27q16 0 23.5 8t7.5 28v361q0 23 -7 31.5t-24 8.5h-27v24h232q73 0 117.5 -37t44.5 -100t-44.5 -101
t-117.5 -38z" />
    <glyph glyph-name="Rsmall" horiz-adv-x="496" 
d="M449 95h23q-3 -58 -20.5 -80t-57.5 -22q-37 0 -55.5 29t-25.5 87q-9 65 -28.5 94t-58.5 29h-38v-169q0 -23 4.5 -31.5t16.5 -8.5h27v-23h-204v23h27q17 0 24 8.5t7 31.5v357q0 24 -7 32.5t-24 8.5h-27v23h237q73 0 116 -32.5t43 -92.5q0 -49 -36 -81.5t-101 -38.5
q77 -15 100 -105q5 -17 9 -46q9 -54 22 -54q23 0 27 61zM254 461h-49q-11 0 -14 -7t-3 -34v-165h56q41 0 63 27t22 77q0 46 -21 74t-54 28z" />
    <glyph glyph-name="Tsmall" horiz-adv-x="458" 
d="M426 484l12 -176h-23q-15 100 -28 125q-12 27 -38 27h-45q-16 0 -21 -7t-5 -33v-357q0 -24 6.5 -32t24.5 -8h27v-23h-215v23h28q18 0 24.5 8t6.5 32v357q0 26 -5 33t-21 7h-45q-26 0 -39 -28q-13 -26 -28 -124h-22l12 176h394z" />
    <glyph glyph-name="Xsmall" horiz-adv-x="498" 
d="M485 23v-23h-223v23h34q19 0 19 11q0 6 -14 29l-84 148l-92 -153q-9 -15 -9 -24q0 -11 18 -11h30v-23h-152v23h16q40 0 65 40l108 175l-108 182q-24 40 -55 40h-14v24h219v-24h-29q-21 0 -21 -10q0 -8 13 -30l71 -124l81 132q20 32 -10 32h-25v24h148v-24h-16
q-42 0 -67 -40l-94 -151l121 -206q24 -40 55 -40h15z" />
    <glyph glyph-name="Dsmall" horiz-adv-x="512" 
d="M32 460v24h245q96 0 149 -69q53 -70 53 -173q0 -104 -54 -173t-149 -69h-244v23h27q17 0 24 8.5t7 31.5v357q0 23 -7 31.5t-24 8.5h-27zM257 460h-43q-16 0 -21 -7.5t-5 -32.5v-357q0 -24 6.5 -32t24.5 -8h33q62 0 94.5 58.5t32.5 160.5q0 101 -31.5 159.5t-90.5 58.5z
" />
    <glyph glyph-name="Gsmall" horiz-adv-x="484" 
d="M468 220v-23h-23q-16 0 -21.5 -8t-5.5 -32v-168h-23l-31 79q-21 -35 -56 -56.5t-69 -21.5q-88 0 -147 65q-59 67 -59 179q0 114 57 186q57 73 151 73q68 0 114 -58l16 57h21l14 -189h-23q-17 87 -51 126.5t-78 39.5q-55 0 -87.5 -59t-32.5 -171q0 -106 32.5 -162
t88.5 -56q32 0 56 31t24 68v37q0 24 -5.5 32t-21.5 8h-36v23h196z" />
    <glyph glyph-name="Jsmall" horiz-adv-x="351" 
d="M273 420v-297q0 -67 -40.5 -100t-112.5 -33q-60 0 -89 30.5t-29 79.5q0 32 14.5 54t40.5 22q25 3 35 -21.5t0 -49.5t-34 -24q-23 0 -31 26q-2 -8 -2 -17q0 -28 23.5 -50t53.5 -22q33 0 53.5 26.5t20.5 78.5v297q0 24 -7 32.5t-25 8.5h-36v23h223v-23h-26q-18 0 -25 -8.5
t-7 -32.5z" />
    <glyph glyph-name="Qsmall" horiz-adv-x="490" 
d="M462 242q0 -72 -25.5 -129.5t-72.5 -89.5l6 -24q4 -12 7.5 -25t5.5 -19q14 -44 35 -45q22 0 32 63h23q-10 -91 -73 -91q-50 0 -74.5 28t-34.5 84q-15 -4 -46 -4q-101 2 -156 72q-56 71 -56 180t56 180q57 71 158 71q102 0 158 -71q57 -70 57 -180zM360 242
q0 108 -28.5 168t-84.5 60t-84.5 -60t-28.5 -168q0 -99 22 -155q5 33 28.5 55.5t53.5 22.5q65 0 101 -73q21 57 21 150zM182 76q0 -24 20.5 -43t44.5 -19q22 0 40 9l-5 38q0 21 -5 34q-6 42 -39 42q-24 0 -40 -17.5t-16 -43.5z" />
    <glyph glyph-name="Nsmall" horiz-adv-x="502" 
d="M426 411v-411h-26l-278 384h-4v-312q0 -49 35 -49h23v-23h-147v23h23q36 0 36 49v348q0 23 -7 31.5t-25 8.5h-27v24h133l231 -333h4v260q0 49 -36 49h-23v24h147v-24h-23q-36 0 -36 -49z" />
    <glyph glyph-name="Usmall" horiz-adv-x="498" 
d="M483 484v-23h-24q-33 0 -33 -49v-264q0 -158 -177 -158q-176 0 -176 158v272q0 24 -6.5 32.5t-24.5 8.5h-27v23h214v-23h-27q-18 0 -24.5 -8.5t-6.5 -32.5v-272q0 -125 112 -125t112 125v264q0 49 -35 49h-23v23h146z" />
    <glyph glyph-name="Ysmall" horiz-adv-x="465" 
d="M461 484v-23h-16q-28 0 -56 -54l-105 -204v-140q0 -24 6.5 -32t24.5 -8h27v-23h-214v23h27q18 0 24.5 8t6.5 32v140l-119 217q-23 41 -45 41h-18v23h210v-23h-30q-22 0 -22 -15q0 -7 12 -26l100 -182l87 169q8 19 8 33q0 21 -19 21h-27v23h138z" />
    <glyph glyph-name="Ssmall" horiz-adv-x="409" 
d="M381 139q0 -71 -55 -110q-54 -39 -125 -39q-84 0 -135 61l-15 -60h-18l-15 191h23q13 -86 61 -128q47 -40 100 -40q44 0 71 21t27 61q0 47 -38 70q-28 17 -83 35q-59 21 -95 45q-45 33 -45 103q0 69 41.5 106.5t111.5 37.5q80 0 126 -55l15 54h18l8 -177h-23
q-9 57 -36 95q-44 60 -108 60q-34 0 -57 -22t-23 -60q0 -45 41 -69q24 -13 37 -18q9 -4 48 -16q62 -20 96 -45q47 -31 47 -101z" />
    <glyph glyph-name="Zsmall" horiz-adv-x="422" 
d="M375 185h23l-12 -185h-362v23l256 437h-162q-45 0 -65 -150h-23l13 174h352v-23l-256 -437h169q26 0 40 32q14 33 27 129z" />
    <glyph glyph-name="Vsmall" horiz-adv-x="474" 
d="M471 484v-23h-8q-39 0 -59 -54l-147 -417h-45l-154 430q-15 41 -46 41h-8v23h202v-23h-32q-24 0 -24 -16q0 -10 6 -25l112 -325l107 312q6 18 6 29q0 25 -29 25h-24v23h143z" />
    <glyph glyph-name="Wsmall" horiz-adv-x="676" 
d="M672 484v-23h-8q-42 0 -56 -48l-124 -423h-43l-106 346l-100 -346h-43l-130 414q0 2 -13 36q-11 21 -37 21h-8v23h187v-23h-22q-17 0 -17 -15q0 -14 4 -26l89 -293l75 252l-13 41q-7 24 -17 32.5t-30 8.5v23h201v-23h-39q-22 0 -22 -16q0 -7 5 -25l88 -293l83 280
q7 21 7 29q0 25 -29 25h-26v23h144z" />
    <glyph glyph-name="afii10056small" horiz-adv-x="273" 
d="M161 550q-16 16 -8.5 37t25.5 26.5t35 -9.5q11 -11 11 -27t-11 -27q-11 -10 -26 -10t-26 10zM48 577q0 16 11 27t25 11q23 1 32 -18.5t0 -39t-32 -17.5q-14 0 -25 11t-11 26zM188 420v-357q0 -24 6.5 -32t24.5 -8h27v-23h-214v23h27q17 0 24 8.5t7 31.5v357q0 23 -7 31.5
t-24 8.5h-27v24h214v-24h-27q-18 0 -24.5 -8t-6.5 -32z" />
    <glyph glyph-name="afii10054small" horiz-adv-x="409" 
d="M381 139q0 -71 -55 -110q-54 -39 -125 -39q-84 0 -135 61l-15 -60h-18l-15 191h23q13 -86 61 -128q47 -40 100 -40q44 0 71 21t27 61q0 47 -38 70q-28 17 -83 35q-59 21 -95 45q-45 33 -45 103q0 69 41.5 106.5t111.5 37.5q80 0 126 -55l15 54h18l8 -177h-23
q-9 58 -36 94q-44 60 -108 60q-35 0 -57.5 -21.5t-22.5 -59.5q0 -45 41 -69q24 -13 37 -18q9 -4 48 -16q62 -20 96 -45q47 -31 47 -101z" />
    <glyph glyph-name="afii10055small" horiz-adv-x="278" 
d="M188 420v-357q0 -24 6.5 -32t24.5 -8h27v-23h-214v23h27q17 0 24 8.5t7 31.5v357q0 23 -7 31.5t-24 8.5h-27v24h214v-24h-27q-18 0 -24.5 -8t-6.5 -32z" />
    <glyph glyph-name="afii10062small" horiz-adv-x="466" 
d="M341 568q-40 1 -40 33q0 15 10 26t25 11t26.5 -13.5t11.5 -29.5q0 -41 -31 -62.5t-86 -21.5t-86 21.5t-31 62.5q0 16 11.5 29.5t26.5 13.5t25 -11t10 -26q0 -32 -40 -33q13 -34 84 -34t84 34zM465 484v-24h-19q-25 0 -45 -47l-141 -329q-40 -94 -109 -94q-34 0 -58 22
t-24 58q0 21 14 35.5t34 14.5q16 0 29 -11t13 -31q0 -13 -10 -26t-24 -13q-21 0 -32 18q11 -42 58 -42q53 0 84 82l-156 311q-16 32 -27 42t-33 10h-15v24h219v-24h-29q-25 0 -25 -17q0 -13 11 -37l100 -211l91 218q7 15 7 31t-19 16h-30v24h136z" />
    <glyph glyph-name="afii10061small" horiz-adv-x="517" 
d="M276 537l-14 8l11 27q5 10 11 24t10 23q10 19 21 30q12 12 29 12q12 0 20.5 -7.5t8.5 -17.5q0 -15 -15 -30l-17 -16q-3 -2 -16 -13t-26.5 -21.5t-22.5 -18.5zM479 118h22q-2 -65 -23 -95t-68 -30q-36 0 -58 25.5t-31.5 61.5t-17.5 72t-25.5 61.5t-47.5 25.5h-42v-176
q0 -24 6.5 -32t24.5 -8h27v-23h-214v23h27q17 0 24 7.5t7 27.5v362q0 24 -7 32.5t-24 8.5h-27v23h214v-23h-27q-16 0 -23.5 -8t-7.5 -29v-161h58l109 147q12 16 12 32q0 19 -23 19h-26v23h170v-23h-17q-31 0 -44 -10q-17 -14 -37 -41l-112 -148q51 -9 84 -45t42 -80
q22 -103 44 -103q28 0 31 84z" />
    <glyph glyph-name="afii10052small" horiz-adv-x="414" 
d="M285 460h-72q-16 0 -20.5 -7t-4.5 -33v-357q0 -24 6.5 -32t24.5 -8h27v-23h-214v23h27q17 0 24 8.5t7 31.5v357q0 23 -7 31.5t-24 8.5h-27v24h358l7 -178h-22q-14 95 -35 124q-20 30 -55 30zM226 537l-14 8l11 27q5 10 11 24t10 23q10 19 21 30q12 12 29 12
q12 0 20.5 -7.5t8.5 -17.5q0 -15 -15 -30l-17 -16q-3 -2 -16 -13t-26.5 -21.5t-22.5 -18.5z" />
    <glyph glyph-name="afii10058small" horiz-adv-x="666" 
d="M489 0h-225v23h27q17 0 24 7.5t7 27.5v373q0 18 -4.5 23.5t-17.5 5.5h-78q-27 0 -27 -40q0 -209 -26 -324q-24 -105 -100 -105q-26 0 -43.5 20.5t-17.5 49.5q0 20 13.5 33.5t32.5 13.5t30.5 -11.5t11.5 -30.5q0 -15 -12.5 -25.5t-33.5 -10.5q6 -13 24 -13q20 0 35.5 18.5
t28.5 62t19.5 124.5t6.5 198q0 23 -8 31.5t-27 8.5h-28v24h378v-24h-27q-18 0 -25 -7t-7 -27v-156h67q75 0 117 -35.5t42 -100.5q0 -62 -43 -98t-114 -36zM548 134q0 50 -22.5 81t-60.5 31h-45v-183q0 -40 18 -40h38q32 0 52 32t20 79z" />
    <glyph glyph-name="afii10059small" horiz-adv-x="716" 
d="M468 420v-150h66q75 0 118.5 -36.5t43.5 -99.5q0 -62 -43 -98t-114 -36h-220v23h25q26 0 26 38v178h-182v-176q0 -23 6 -31.5t20 -8.5h25v-23h-207v23h27q17 0 24 8.5t7 31.5v357q0 23 -7 31.5t-24 8.5h-27v24h207v-24h-25q-14 0 -20 -8.5t-6 -31.5v-149h182v149
q0 23 -6 31.5t-20 8.5h-25v24h207v-24h-27q-18 0 -24.5 -8t-6.5 -32zM514 239h-46v-188q0 -17 3.5 -22.5t13.5 -5.5h42q30 0 50.5 30.5t20.5 75.5q0 49 -23 79.5t-61 30.5z" />
    <glyph glyph-name="afii10050small" horiz-adv-x="405" 
d="M32 460v24h262q24 0 35 6t21 31t23 84h23l-6 -145h-176q-16 0 -21 -7.5t-5 -32.5v-357q0 -24 6.5 -32t24.5 -8h27v-23h-214v23h27q17 0 24 8.5t7 31.5v357q0 23 -7 31.5t-24 8.5h-27z" />
    <glyph glyph-name="afii10057small" horiz-adv-x="351" 
d="M273 420v-297q0 -67 -40.5 -100t-112.5 -33q-60 0 -89 30.5t-29 79.5q0 32 14.5 54t40.5 22q25 3 35 -21.5t0 -49.5t-34 -24q-23 0 -31 26q-2 -8 -2 -17q0 -28 23.5 -50t53.5 -22q33 0 53.5 26.5t20.5 78.5v297q0 24 -7 32.5t-25 8.5h-36v23h223v-23h-26q-18 0 -25 -8.5
t-7 -32.5z" />
    <glyph glyph-name="afii10053small" horiz-adv-x="444" 
d="M241 493q74 0 114 -58l16 57h21l14 -189h-23q-17 87 -51 126.5t-78 39.5q-55 0 -86.5 -54t-33.5 -157q67 0 170 4v-33l-72 2q-20 0 -42.5 0.5t-34.5 1t-21 0.5q1 -103 33.5 -157.5t87.5 -54.5q51 0 87 39t48 108h24q-12 -92 -64 -135q-50 -43 -111 -43q-88 0 -147 65
q-59 67 -59 179q0 114 57 186q57 73 151 73z" />
    <glyph glyph-name="afii10060small" horiz-adv-x="552" 
d="M540 23v-23h-176v23h23q11 0 15 6t4 25v97q0 47 -10.5 66t-37.5 19q-28 0 -54 -32t-26 -77v-64q0 -25 4.5 -32.5t18.5 -7.5h24v-23h-204v23h28q18 0 24.5 8t6.5 32v357q0 26 -3.5 33.5t-14.5 7.5h-45q-30 0 -45 -28q-15 -29 -30 -125h-22l12 176h394l12 -176h-23
q-17 102 -28 126q-12 27 -41 27h-47q-13 0 -17 -7.5t-4 -33.5v-218q15 33 45.5 54.5t68.5 21.5q98 0 98 -118v-106q0 -19 4.5 -25t18.5 -6h27z" />
    <glyph glyph-name="afii10051small" horiz-adv-x="552" 
d="M529 123q0 -62 -31 -98t-85 -36q-77 0 -77 91h27q1 -28 12 -43t27 -15q48 0 48 107q0 47 -21.5 74.5t-57.5 27.5q-30 0 -61 -34q-32 -34 -32 -78v-56q0 -24 4.5 -32t17.5 -8h24v-23h-203v23h28q18 0 24.5 8t6.5 32v357q0 27 -3.5 34t-14.5 7h-45q-30 0 -45 -28
q-15 -29 -30 -125h-22l12 176h394l12 -176h-23q-17 102 -29 126q-12 27 -42 27h-46q-12 0 -16 -7.5t-4 -33.5v-223q13 29 51 55q37 25 76 25q57 0 90.5 -41.5t33.5 -112.5z" />
    <glyph glyph-name="afii10145small" horiz-adv-x="558" 
d="M526 23v-23h-234q2 -20 9 -54q7 -32 7 -43q0 -17 -14.5 -23.5t-29 0t-14.5 23.5q0 10 7 42q8 35 9 55h-234v23h27q17 0 24 8.5t7 31.5v357q0 24 -7 32.5t-24 8.5h-27v23h207v-23h-25q-26 0 -26 -41v-368q0 -18 4.5 -23.5t17.5 -5.5h138q13 0 17.5 5.5t4.5 23.5v368
q0 41 -26 41h-25v23h207v-23h-27q-18 0 -24.5 -8.5t-6.5 -32.5v-357q0 -24 6.5 -32t24.5 -8h27z" />
    <glyph glyph-name="Ccedillasmall" horiz-adv-x="444" 
d="M390 168h24q-12 -92 -64 -135q-50 -43 -112 -43l-6 -22q21 -1 37 -12.5t16 -28.5q0 -19 -15 -32t-39 -13q-23 0 -45 9v17q16 -4 25 -4q30 0 30 25q0 21 -41 21l11 42q-79 10 -128.5 75.5t-49.5 166.5q0 114 57 186q57 73 151 73q72 0 114 -58l16 57h21l14 -189h-23
q-17 87 -51 126.5t-78 39.5q-56 0 -88 -57.5t-32 -172.5q0 -106 32.5 -161.5t88.5 -55.5q51 0 87 38.5t48 107.5z" />
    <glyph glyph-name="Adieresissmall" horiz-adv-x="474" 
d="M265 585q-1 23 17.5 32.5t37 0t17.5 -32.5q0 -15 -10.5 -26t-25.5 -11t-25.5 11t-10.5 26zM137 585q-1 23 17.5 32.5t37 0t17.5 -32.5q0 -15 -10.5 -26t-25.5 -11t-25.5 11t-10.5 26zM318 63l-28 89h-166l-24 -75q-6 -19 -6 -29q0 -25 29 -25h24v-23h-143v23h13
q35 0 54 54l147 417h44l154 -431q13 -40 46 -40h8v-23h-201v23h32q24 0 24 16q0 9 -7 24zM279 179l-70 221l-74 -221h144z" />
    <glyph glyph-name="Aringsmall" horiz-adv-x="474" 
d="M259 600q0 24 -22 24q-15 0 -21 -14.5t5 -27.5q11 -11 24.5 -5t13.5 23zM201 563q-14 15 -14 37t14 36q15 15 36 15t35 -15q14 -14 14 -36t-14 -37q-14 -14 -35 -14t-36 14zM318 63l-28 89h-166l-24 -75q-6 -19 -6 -29q0 -25 29 -25h24v-23h-143v23h13q35 0 54 54
l147 417h44l154 -431q13 -40 46 -40h8v-23h-201v23h32q24 0 24 16q0 9 -7 24zM279 179l-70 221l-74 -221h144z" />
    <glyph glyph-name="Eacutesmall" horiz-adv-x="456" 
d="M221 537l-14 8l11 27q5 10 11 24t10 23q10 19 21 30q12 12 29 12q12 0 20.5 -7.5t8.5 -17.5q0 -15 -15 -30l-17 -16q-3 -2 -16 -13t-26.5 -21.5t-22.5 -18.5zM290 460h-79q-15 0 -20.5 -8t-5.5 -32v-157h49q31 0 44 20t13 76h23v-217h-23q0 56 -13 76.5t-44 20.5h-49
v-176q0 -24 6.5 -32t24.5 -8h88q24 0 33 3t20 17q16 22 35 138h23l-11 -181h-375v23h27q18 0 25 8.5t7 31.5v357q0 23 -7 31.5t-25 8.5h-27v24h360l10 -161h-23q-11 65 -24 95q-12 29 -23.5 35.5t-38.5 6.5z" />
    <glyph glyph-name="Ntildesmall" horiz-adv-x="502" 
d="M212 603q-24 0 -47 -36l-25 16q16 36 32 51t40 15q22 0 45 -18q23 -17 34 -17q25 0 48 35l24 -16q-16 -36 -32 -51t-40 -15q-23 0 -47 18q-22 18 -32 18zM426 411v-411h-26l-280 384h-2v-312q0 -49 35 -49h23v-23h-147v23h23q36 0 36 49v348q0 23 -7 31.5t-25 8.5h-27v24
h133l232 -333h3v260q0 49 -36 49h-23v24h147v-24h-23q-36 0 -36 -49z" />
    <glyph glyph-name="Odieresissmall" horiz-adv-x="495" 
d="M247 -10q-101 0 -158 71q-56 71 -56 181q0 109 56 180q57 71 158 71q102 0 158 -71q57 -70 57 -180t-57 -181q-56 -71 -158 -71zM332 75q28 60 28 167t-28 167q-28 61 -85 61t-85 -61q-28 -60 -28 -167t28 -167q28 -61 85 -61t85 61zM275 585q-1 23 17.5 32.5t37 0
t17.5 -32.5q0 -15 -10.5 -26t-25.5 -11t-25.5 11t-10.5 26zM147 585q0 16 10.5 27t25.5 11q14 0 25 -11t11 -27q0 -15 -11 -26t-25 -11q-15 0 -25.5 11t-10.5 26z" />
    <glyph glyph-name="Udieresissmall" horiz-adv-x="498" 
d="M297 585q-1 23 17.5 32.5t37 0t17.5 -32.5q0 -15 -10.5 -26t-25.5 -11t-25.5 11t-10.5 26zM169 585q0 16 10.5 27t24.5 11q15 0 26 -11t11 -27q0 -15 -11 -26t-26 -11q-14 0 -24.5 11t-10.5 26zM483 484v-23h-24q-33 0 -33 -49v-264q0 -158 -177 -158q-176 0 -176 158
v272q0 24 -6.5 32.5t-24.5 8.5h-27v23h214v-23h-27q-18 0 -24.5 -8.5t-6.5 -32.5v-272q0 -125 112 -125t112 125v264q0 49 -35 49h-23v23h146z" />
    <glyph glyph-name="Agravesmall" horiz-adv-x="474" 
d="M283 545l-14 -8q-9 8 -22.5 18.5t-26.5 21.5t-16 13q-32 27 -32 46q0 10 8.5 17.5t20.5 7.5q22 0 39 -24q13 -18 20 -39q17 -37 23 -53zM318 63l-28 89h-166l-24 -75q-6 -19 -6 -29q0 -25 29 -25h24v-23h-143v23h13q35 0 54 54l147 417h44l154 -431q13 -40 46 -40h8v-23
h-201v23h32q24 0 24 16q0 9 -7 24zM279 179l-70 221l-74 -221h144z" />
    <glyph glyph-name="Atildesmall" horiz-adv-x="474" 
d="M197 603q-25 0 -47 -36l-24 16q16 37 32 51.5t40 14.5q22 0 44 -18q23 -17 34 -17q26 0 47 35l25 -16q-15 -36 -31.5 -51t-40.5 -15q-23 0 -47 18q-22 18 -32 18zM318 63l-28 89h-166l-24 -75q-6 -19 -6 -29q0 -25 29 -25h24v-23h-143v23h13q35 0 54 54l147 417h44
l154 -431q13 -40 46 -40h8v-23h-201v23h32q24 0 24 16q0 9 -7 24zM279 179l-70 221l-74 -221h144z" />
    <glyph glyph-name="Otildesmall" horiz-adv-x="495" 
d="M247 -10q-101 0 -158 71q-56 71 -56 181q0 109 56 180q57 71 158 71q102 0 158 -71q57 -70 57 -180t-57 -181q-56 -71 -158 -71zM332 75q28 60 28 167t-28 167q-28 61 -85 61t-85 -61q-28 -60 -28 -167t28 -167q28 -61 85 -61t85 61zM208 603q-26 0 -48 -36l-24 16
q16 37 32 51.5t40 14.5q22 0 45 -18q23 -17 33 -17q25 0 48 35l24 -16q-16 -36 -31.5 -51t-39.5 -15q-23 0 -47 18q-22 18 -32 18z" />
    <glyph glyph-name="Ocircumflexsmall" horiz-adv-x="495" 
d="M247 -10q-101 0 -158 71q-56 71 -56 181q0 109 56 180q57 71 158 71q102 0 158 -71q57 -70 57 -180t-57 -181q-56 -71 -158 -71zM332 75q28 60 28 167t-28 167q-28 61 -85 61t-85 -61q-28 -60 -28 -167t28 -167q28 -61 85 -61t85 61zM276 660l76 -110h-23l-82 72l-81 -72
h-24l76 110h58z" />
    <glyph glyph-name="Oacutesmall" horiz-adv-x="495" 
d="M247 -10q-101 0 -158 71q-56 71 -56 181q0 109 56 180q57 71 158 71q102 0 158 -71q57 -70 57 -180t-57 -181q-56 -71 -158 -71zM332 75q28 60 28 167t-28 167q-28 61 -85 61t-85 -61q-28 -60 -28 -167t28 -167q28 -61 85 -61t85 61zM216 537l-14 8l11 27q5 10 11 24
t10 23q10 19 21 30q12 12 29 12q12 0 20.5 -7.5t8.5 -17.5q0 -15 -15 -30l-17 -16q-3 -2 -16 -13t-26.5 -21.5t-22.5 -18.5z" />
    <glyph glyph-name="Igravesmall" horiz-adv-x="278" 
d="M193 545l-14 -8q-9 8 -22.5 18.5t-26.5 21.5t-16 13q-32 27 -32 46q0 10 8.5 17.5t20.5 7.5q22 0 39 -24q13 -18 20 -39q17 -37 23 -53zM188 420v-357q0 -24 6.5 -32t24.5 -8h27v-23h-214v23h27q17 0 24 8.5t7 31.5v357q0 23 -7 31.5t-24 8.5h-27v24h214v-24h-27
q-18 0 -24.5 -8t-6.5 -32z" />
    <glyph glyph-name="Idieresissmall" horiz-adv-x="278" 
d="M167 585q0 16 11 27t25 11q15 0 25.5 -11t10.5 -27q0 -15 -10.5 -26t-25.5 -11q-14 0 -25 11t-11 26zM39 585q0 16 10.5 27t25.5 11q14 0 25 -11t11 -27q0 -15 -11 -26t-25 -11q-15 0 -25.5 11t-10.5 26zM188 420v-357q0 -24 6.5 -32t24.5 -8h27v-23h-214v23h27
q17 0 24 8.5t7 31.5v357q0 23 -7 31.5t-24 8.5h-27v24h214v-24h-27q-18 0 -24.5 -8t-6.5 -32z" />
    <glyph glyph-name="Icircumflexsmall" horiz-adv-x="278" 
d="M169 660l75 -110h-24l-81 72l-81 -72h-23l75 110h59zM188 420v-357q0 -24 6.5 -32t24.5 -8h27v-23h-214v23h27q17 0 24 8.5t7 31.5v357q0 23 -7 31.5t-24 8.5h-27v24h214v-24h-27q-18 0 -24.5 -8t-6.5 -32z" />
    <glyph glyph-name="Iacutesmall" horiz-adv-x="278" 
d="M116 537l-14 8l11 27q5 10 11 24t10 23q10 19 21 30q12 12 29 12q12 0 20.5 -7.5t8.5 -17.5q0 -15 -15 -30l-17 -16q-3 -2 -16 -13t-26.5 -21.5t-22.5 -18.5zM188 420v-357q0 -24 6.5 -32t24.5 -8h27v-23h-214v23h27q17 0 24 8.5t7 31.5v357q0 23 -7 31.5t-24 8.5h-27v24
h214v-24h-27q-18 0 -24.5 -8t-6.5 -32z" />
    <glyph glyph-name="Egravesmall" horiz-adv-x="456" 
d="M273 545l-14 -8q-9 8 -22.5 18.5t-26.5 21.5t-16 13q-32 27 -32 46q0 10 8.5 17.5t20.5 7.5q22 0 39 -24q13 -18 20 -39q17 -37 23 -53zM290 460h-79q-15 0 -20.5 -8t-5.5 -32v-157h49q31 0 44 20t13 76h23v-217h-23q0 56 -13 76.5t-44 20.5h-49v-176q0 -24 6.5 -32
t24.5 -8h88q24 0 33 3t20 17q16 22 35 138h23l-11 -181h-375v23h27q18 0 25 8.5t7 31.5v357q0 23 -7 31.5t-25 8.5h-27v24h360l10 -161h-23q-11 65 -24 95q-12 29 -23.5 35.5t-38.5 6.5z" />
    <glyph glyph-name="Ydieresissmall" horiz-adv-x="465" 
d="M260 585q-1 23 17.5 32.5t37 0t17.5 -32.5q0 -15 -10.5 -26t-25.5 -11t-25.5 11t-10.5 26zM132 585q0 16 10.5 27t25.5 11q14 0 25 -11t11 -27q0 -15 -11 -26t-25 -11q-15 0 -25.5 11t-10.5 26zM461 484v-23h-16q-28 0 -56 -54l-105 -204v-140q0 -24 6.5 -32t24.5 -8h27
v-23h-214v23h27q18 0 24.5 8t6.5 32v140l-119 217q-23 41 -45 41h-18v23h210v-23h-30q-22 0 -22 -15q0 -7 12 -26l100 -182l87 169q8 19 8 33q0 21 -19 21h-27v23h138z" />
    <glyph glyph-name="Edieresissmall" horiz-adv-x="456" 
d="M252 585q0 16 10.5 27t24.5 11q15 0 26 -11t11 -27q0 -15 -11 -26t-26 -11q-14 0 -24.5 11t-10.5 26zM123 585q0 16 11 27t25 11q15 0 25.5 -11t10.5 -27q0 -15 -10.5 -26t-25.5 -11q-14 0 -25 11t-11 26zM290 460h-79q-15 0 -20.5 -8t-5.5 -32v-157h49q31 0 44 20t13 76
h23v-217h-23q0 56 -13 76.5t-44 20.5h-49v-176q0 -24 6.5 -32t24.5 -8h88q24 0 33 3t20 17q16 22 35 138h23l-11 -181h-375v23h27q18 0 25 8.5t7 31.5v357q0 23 -7 31.5t-25 8.5h-27v24h360l10 -161h-23q-11 65 -24 95q-12 29 -23.5 35.5t-38.5 6.5z" />
    <glyph glyph-name="Aacutesmall" horiz-adv-x="474" 
d="M204 537l-14 8q27 64 33 74q21 42 49 42q12 0 20.5 -8t8.5 -18q0 -24 -97 -98zM318 63l-28 89h-166l-24 -75q-6 -19 -6 -29q0 -25 29 -25h24v-23h-143v23h13q35 0 54 54l147 417h44l154 -431q13 -40 46 -40h8v-23h-201v23h32q24 0 24 16q0 9 -7 24zM279 179l-70 221
l-74 -221h144z" />
    <glyph glyph-name="Ecircumflexsmall" horiz-adv-x="456" 
d="M253 660l75 -110h-23l-82 72l-81 -72h-23l75 110h59zM290 460h-79q-15 0 -20.5 -8t-5.5 -32v-157h49q31 0 44 20t13 76h23v-217h-23q0 56 -13 76.5t-44 20.5h-49v-176q0 -24 6.5 -32t24.5 -8h88q24 0 33 3t20 17q16 22 35 138h23l-11 -181h-375v23h27q18 0 25 8.5t7 31.5
v357q0 23 -7 31.5t-25 8.5h-27v24h360l10 -161h-23q-11 65 -24 95q-12 29 -23.5 35.5t-38.5 6.5z" />
    <glyph glyph-name="Acircumflexsmall" horiz-adv-x="474" 
d="M267 660l74 -110h-22l-82 72l-81 -72h-23l75 110h59zM318 63l-28 89h-166l-24 -75q-6 -19 -6 -29q0 -25 29 -25h24v-23h-143v23h13q35 0 54 54l147 417h44l154 -431q13 -40 46 -40h8v-23h-201v23h32q24 0 24 16q0 9 -7 24zM279 179l-70 221l-74 -221h144z" />
    <glyph glyph-name="Ugravesmall" horiz-adv-x="498" 
d="M483 484v-23h-24q-33 0 -33 -49v-264q0 -158 -177 -158q-176 0 -176 158v272q0 24 -6.5 32.5t-24.5 8.5h-27v23h214v-23h-27q-18 0 -24.5 -8.5t-6.5 -32.5v-272q0 -125 112 -125t112 125v264q0 49 -35 49h-23v23h146zM305 545l-14 -8q-9 8 -22.5 18.5t-26.5 21.5t-16 13
q-32 27 -32 46q0 10 8.5 17.5t20.5 7.5q22 0 39 -24q13 -18 20 -39q17 -37 23 -53z" />
    <glyph glyph-name="Ucircumflexsmall" horiz-adv-x="498" 
d="M308 660l75 -110h-22l-83 72l-80 -72h-24l75 110h59zM483 484v-23h-24q-33 0 -33 -49v-264q0 -158 -177 -158q-176 0 -176 158v272q0 24 -6.5 32.5t-24.5 8.5h-27v23h214v-23h-27q-18 0 -24.5 -8.5t-6.5 -32.5v-272q0 -125 112 -125t112 125v264q0 49 -35 49h-23v23h146z
" />
    <glyph glyph-name="Uacutesmall" horiz-adv-x="498" 
d="M483 484v-23h-24q-33 0 -33 -49v-264q0 -158 -177 -158q-176 0 -176 158v272q0 24 -6.5 32.5t-24.5 8.5h-27v23h214v-23h-27q-18 0 -24.5 -8.5t-6.5 -32.5v-272q0 -125 112 -125t112 125v264q0 49 -35 49h-23v23h146zM241 537l-14 8l11 27q5 10 11 24t10 23q10 19 21 30
q12 12 29 12q12 0 20.5 -7.5t8.5 -17.5q0 -15 -15 -30l-17 -16q-3 -2 -16 -13t-26.5 -21.5t-22.5 -18.5z" />
    <glyph glyph-name="Ogravesmall" horiz-adv-x="495" 
d="M247 -10q-101 0 -158 71q-56 71 -56 181q0 109 56 180q57 71 158 71q102 0 158 -71q57 -70 57 -180t-57 -181q-56 -71 -158 -71zM332 75q28 60 28 167t-28 167q-28 61 -85 61t-85 -61q-28 -60 -28 -167t28 -167q28 -61 85 -61t85 61zM283 545l-14 -8q-9 8 -22.5 18.5
t-26.5 21.5t-16 13q-32 27 -32 46q0 10 8.5 17.5t20.5 7.5q22 0 39 -24q13 -18 20 -39q17 -37 23 -53z" />
    <glyph glyph-name="AEsmall" horiz-adv-x="660" 
d="M607 181h24l-12 -181h-374v23h26q32 0 32 40v105h-151l-57 -96q-12 -18 -12 -30q0 -19 30 -19h23v-23h-143v23h9q33 0 66 54l208 344q10 16 10 26q0 13 -18 13h-23v24h361l9 -161h-23q-17 98 -39 119q-12 12 -22 15t-30 3h-78q-12 0 -17 -8t-5 -32v-157h49q30 0 43 20
t14 76h22v-217h-22q-1 56 -14 76.5t-43 20.5h-49v-176q0 -23 8 -31.5t26 -8.5h81q31 0 42 7q28 15 49 151zM303 195v221l-135 -221h135z" />
    <glyph glyph-name="Oslashsmall" horiz-adv-x="495" 
d="M111 38l-29 -38h-39l46 60q-56 71 -56 182q0 109 56 180q57 71 158 71q82 0 136 -48l30 39h38l-47 -61q58 -68 58 -181q0 -110 -57 -181q-56 -71 -158 -71q-84 0 -136 48zM134 242q0 -67 10 -111l196 257q-28 82 -93 82q-56 0 -84.5 -60t-28.5 -168zM360 242
q0 66 -10 110l-196 -258q29 -80 93 -80q56 0 84.5 60t28.5 168z" />
    <glyph glyph-name="OEsmall" horiz-adv-x="688" 
d="M332 63v357q0 25 -24.5 37t-60.5 12q-56 0 -84.5 -60t-28.5 -167q0 -108 28.5 -168t84.5 -60q36 0 60.5 12t24.5 37zM659 181l-11 -181h-329q-30 -10 -72 -10q-101 0 -158 71q-56 71 -56 181q0 109 56 180q57 71 158 71q43 0 70 -9h316l10 -161h-23q-11 65 -24 95
q-12 29 -23.5 35.5t-38.5 6.5h-79q-15 0 -20.5 -8t-5.5 -32v-157h49q31 0 44 20t13 76h23v-217h-23q0 56 -13 76.5t-44 20.5h-49v-176q0 -24 6.5 -32t24.5 -8h88q24 0 33 3t20 17q16 22 35 138h23z" />
    <glyph glyph-name="Ethsmall" horiz-adv-x="512" 
d="M32 461v23h245q96 0 149 -69q53 -70 53 -173q0 -104 -54 -173t-149 -69h-244v23h27q17 0 24 8.5t7 31.5v174h-59v32h59v151q0 24 -7 32.5t-24 8.5h-27zM273 269v-32h-85v-174q0 -24 6.5 -32t24.5 -8h33q62 0 94.5 58.5t32.5 160.5t-32 160.5t-94 58.5h-39
q-15 0 -20.5 -7.5t-5.5 -33.5v-151h85z" />
    <glyph glyph-name="Lslashsmall" horiz-adv-x="427" 
d="M385 190h22l-12 -190h-368v23h27q17 0 24 8.5t7 31.5v146l-45 -20l-14 38l59 26v167q0 23 -7 31.5t-24 8.5h-27v24h218v-24h-32q-17 0 -23.5 -8t-6.5 -32v-123l60 27l15 -38l-75 -34v-189q0 -24 6.5 -32t23.5 -8h83q21 0 35 8q32 21 54 159z" />
    </font>
</defs>
</svg>
